<?xml version="1.0" encoding="UTF-8"?>
<svg xmlns="http://www.w3.org/2000/svg" xmlns:xlink="http://www.w3.org/1999/xlink" width="252pt" height="252pt" viewBox="0 0 252 252" version="1.1">
<g id="surface1">
<path style=" stroke:none;fill-rule:nonzero;fill:rgb(93.333333%,14.117647%,10.980392%);fill-opacity:1;" d="M 238.140625 173.25 C 238.140625 182.644531 230.523438 190.261719 221.128906 190.261719 C 211.734375 190.261719 204.121094 182.644531 204.121094 173.25 C 204.121094 163.855469 211.734375 156.238281 221.128906 156.238281 C 230.523438 156.238281 238.140625 163.855469 238.140625 173.25 Z M 238.140625 173.25 "/>
<path style="fill:none;stroke-width:50;stroke-linecap:butt;stroke-linejoin:miter;stroke:rgb(93.333333%,14.117647%,10.980392%);stroke-opacity:1;stroke-miterlimit:4;" d="M 25 0 C 66.418651 0 100 33.581349 100 75 C 100 116.418651 66.418651 150 25 150 " transform="matrix(0.63,0,0,0.63,126,126)"/>
<path style="fill:none;stroke-width:50;stroke-linecap:butt;stroke-linejoin:miter;stroke:rgb(93.333333%,14.117647%,10.980392%);stroke-opacity:1;stroke-miterlimit:4;" d="M 25 75 L 104.99752 75 " transform="matrix(0.63,0,0,0.63,126,126)"/>
<path style=" stroke:none;fill-rule:nonzero;fill:rgb(93.333333%,14.117647%,10.980392%);fill-opacity:1;" d="M 78.75 238.140625 C 69.355469 238.140625 61.738281 230.523438 61.738281 221.128906 C 61.738281 211.734375 69.355469 204.121094 78.75 204.121094 C 88.144531 204.121094 95.761719 211.734375 95.761719 221.128906 C 95.761719 230.523438 88.144531 238.140625 78.75 238.140625 Z M 78.75 238.140625 "/>
<path style="fill:none;stroke-width:50;stroke-linecap:butt;stroke-linejoin:miter;stroke:rgb(93.333333%,14.117647%,10.980392%);stroke-opacity:1;stroke-miterlimit:4;" d="M 25 -0.000000000000028422 C 66.418651 0 100 33.581349 100 75 C 100 116.418651 66.418651 150 25 150 " transform="matrix(0.000000000000000039,0.63,-0.63,0.000000000000000039,126,126)"/>
<path style="fill:none;stroke-width:50;stroke-linecap:butt;stroke-linejoin:miter;stroke:rgb(93.333333%,14.117647%,10.980392%);stroke-opacity:1;stroke-miterlimit:4;" d="M 25 75 L 104.99752 75 " transform="matrix(0.000000000000000039,0.63,-0.63,0.000000000000000039,126,126)"/>
<path style=" stroke:none;fill-rule:nonzero;fill:rgb(93.333333%,14.117647%,10.980392%);fill-opacity:1;" d="M 13.859375 78.75 C 13.859375 69.355469 21.476562 61.738281 30.871094 61.738281 C 40.265625 61.738281 47.878906 69.355469 47.878906 78.75 C 47.878906 88.144531 40.265625 95.761719 30.871094 95.761719 C 21.476562 95.761719 13.859375 88.144531 13.859375 78.75 Z M 13.859375 78.75 "/>
<path style="fill:none;stroke-width:50;stroke-linecap:butt;stroke-linejoin:miter;stroke:rgb(93.333333%,14.117647%,10.980392%);stroke-opacity:1;stroke-miterlimit:4;" d="M 25 0 C 66.418651 0 100 33.581349 100 75 C 100 116.418651 66.418651 150 25 150 " transform="matrix(-0.63,0.000000000000000077,-0.000000000000000077,-0.63,126,126)"/>
<path style="fill:none;stroke-width:50;stroke-linecap:butt;stroke-linejoin:miter;stroke:rgb(93.333333%,14.117647%,10.980392%);stroke-opacity:1;stroke-miterlimit:4;" d="M 25 75 L 104.99752 75 " transform="matrix(-0.63,0.000000000000000077,-0.000000000000000077,-0.63,126,126)"/>
<path style=" stroke:none;fill-rule:nonzero;fill:rgb(93.333333%,14.117647%,10.980392%);fill-opacity:1;" d="M 173.25 13.859375 C 182.644531 13.859375 190.261719 21.476562 190.261719 30.871094 C 190.261719 40.265625 182.644531 47.878906 173.25 47.878906 C 163.855469 47.878906 156.238281 40.265625 156.238281 30.871094 C 156.238281 21.476562 163.855469 13.859375 173.25 13.859375 Z M 173.25 13.859375 "/>
<path style="fill:none;stroke-width:50;stroke-linecap:butt;stroke-linejoin:miter;stroke:rgb(93.333333%,14.117647%,10.980392%);stroke-opacity:1;stroke-miterlimit:4;" d="M 25 0.000000000000028422 C 66.418651 0.000000000000028422 100 33.581349 100 75 C 100 116.418651 66.418651 150 25 150 " transform="matrix(-0.000000000000000116,-0.63,0.63,-0.000000000000000116,126,126)"/>
<path style="fill:none;stroke-width:50;stroke-linecap:butt;stroke-linejoin:miter;stroke:rgb(93.333333%,14.117647%,10.980392%);stroke-opacity:1;stroke-miterlimit:4;" d="M 25 75 L 104.99752 75 " transform="matrix(-0.000000000000000116,-0.63,0.63,-0.000000000000000116,126,126)"/>
</g>
</svg>
