<?xml version="1.0" encoding="UTF-8"?>
<svg xmlns="http://www.w3.org/2000/svg" xmlns:xlink="http://www.w3.org/1999/xlink" width="251pt" height="251pt" viewBox="0 0 251 251" version="1.1">
<g id="surface1">
<path style=" stroke:none;fill-rule:nonzero;fill:rgb(40%,14.509804%,23.137255%);fill-opacity:1;" d="M 119.804688 0.144531 C 97.3125 1.34375 76.429688 9.816406 58.925781 24.894531 C 56.035156 27.390625 50.921875 32.578125 48.414062 35.554688 C 35.105469 51.351562 27.195312 70.074219 25.148438 90.648438 C 24.835938 93.769531 24.785156 96.195312 24.882812 102.050781 C 25.027344 109.757812 25.21875 111.941406 26.402344 118.375 C 33.730469 158.730469 66.207031 191.117188 106.785156 198.535156 C 113.777344 199.808594 116.214844 200 125.230469 200 C 134.054688 200 136.539062 199.808594 143.074219 198.65625 C 183.289062 191.5 215.453125 160.246094 223.722656 120.296875 C 225.265625 112.832031 225.75 107.164062 225.578125 97.996094 C 225.433594 90.097656 225.074219 86.472656 223.722656 79.941406 C 218.320312 53.773438 202.578125 30.824219 179.9375 16.15625 C 162.070312 4.585938 141.167969 -0.984375 119.804688 0.144531 Z M 136.441406 2.421875 C 153.03125 4.441406 168.558594 10.320312 181.890625 19.683594 C 188.738281 24.484375 197.105469 32.289062 202.121094 38.554688 C 214.101562 53.511719 220.949219 69.859375 223.410156 89.449219 C 223.988281 94.128906 223.988281 106.039062 223.410156 110.816406 C 222.226562 120.25 220.203125 128.316406 216.921875 136.476562 C 211.039062 151.195312 201.082031 164.949219 188.882812 175.175781 C 161.757812 197.910156 124.894531 204.511719 91.71875 192.558594 C 78.144531 187.660156 66.207031 180.097656 55.769531 169.75 C 51.5 165.527344 49.332031 163.054688 46.21875 158.949219 C 28.425781 135.398438 22.207031 104.574219 29.535156 76.125 C 33.105469 62.226562 39.347656 49.742188 48.34375 38.554688 C 51.695312 34.375 59.214844 26.886719 63.363281 23.597656 C 79.589844 10.730469 97.769531 3.625 118.722656 1.96875 C 121.589844 1.75 133.332031 2.039062 136.441406 2.421875 Z M 136.441406 2.421875 "/>
<path style=" stroke:none;fill-rule:nonzero;fill:rgb(73.72549%,19.607843%,28.627451%);fill-opacity:1;" d="M 123.421875 6.695312 L 123.0625 7.464844 L 120.121094 7.535156 L 117.152344 7.609375 L 117.152344 20.546875 L 121.492188 20.546875 L 121.492188 23.191406 L 117.636719 23.191406 L 117.636719 22.230469 C 117.636719 21.292969 117.613281 21.269531 116.816406 21.269531 L 115.996094 21.269531 L 115.898438 23.070312 L 115.828125 24.871094 L 128.96875 24.871094 L 128.96875 21.269531 L 127.039062 21.269531 L 127.039062 23.191406 L 123.421875 23.191406 L 123.421875 20.546875 L 132.390625 20.546875 L 132.296875 22.011719 C 132.175781 23.789062 131.742188 24.246094 130.367188 24.078125 C 129.378906 23.957031 129.28125 24.101562 129.617188 25.328125 C 129.765625 25.855469 129.8125 25.878906 131.355469 25.710938 C 132.222656 25.613281 133.140625 25.445312 133.355469 25.328125 C 133.910156 25.039062 134.199219 23.8125 134.417969 21.078125 L 134.585938 18.867188 L 119.058594 18.867188 L 119.132812 18.195312 L 119.203125 17.546875 L 127.230469 17.476562 L 135.238281 17.429688 L 135.238281 15.988281 L 119.082031 15.988281 L 119.082031 14.789062 L 133.066406 14.789062 L 133.066406 7.585938 L 129.183594 7.585938 C 125.832031 7.585938 125.328125 7.535156 125.449219 7.226562 C 125.519531 7.03125 125.664062 6.695312 125.738281 6.503906 C 125.859375 6.242188 125.714844 6.144531 125.160156 6.144531 C 124.75 6.144531 124.289062 6.097656 124.097656 6.023438 C 123.90625 5.953125 123.640625 6.214844 123.421875 6.695312 Z M 130.898438 9.746094 L 130.898438 10.464844 L 125.0625 10.417969 L 119.203125 10.347656 L 119.132812 9.671875 L 119.058594 9.027344 L 130.898438 9.027344 Z M 130.898438 12.507812 L 130.898438 13.347656 L 125.0625 13.296875 C 119.636719 13.226562 119.203125 13.203125 119.132812 12.792969 C 118.914062 11.667969 118.960938 11.667969 125.109375 11.667969 L 130.898438 11.667969 Z M 130.898438 12.507812 "/>
<path style=" stroke:none;fill-rule:nonzero;fill:rgb(40%,14.509804%,23.137255%);fill-opacity:1;" d="M 119.324219 31.519531 C 106.183594 32.769531 94.371094 37.257812 84 44.914062 C 69.292969 55.789062 59.722656 71.683594 56.828125 90.046875 C 56.105469 94.5625 56.058594 105.027344 56.707031 109.496094 C 61.410156 141.183594 86.363281 165.214844 118.070312 168.550781 C 138.757812 170.734375 159.25 163.484375 174.054688 148.746094 C 183.507812 139.335938 189.847656 127.90625 192.714844 115.085938 C 193.945312 109.613281 194.1875 107.09375 194.164062 100.011719 C 194.164062 92.714844 193.824219 89.542969 192.402344 83.808594 C 185.363281 55.40625 161.179688 34.472656 132.007812 31.617188 C 129.617188 31.375 121.398438 31.304688 119.324219 31.519531 Z M 134.632812 33.753906 C 156.285156 36.898438 174.921875 50.078125 185.023438 69.402344 C 190.546875 79.964844 193.222656 92.570312 192.425781 104.09375 C 191.414062 118.425781 186.496094 131.050781 177.503906 142.261719 C 175.429688 144.878906 170.199219 150.089844 167.546875 152.203125 C 160 158.203125 150.859375 162.765625 141.722656 165.070312 C 131.210938 167.734375 120.167969 167.808594 109.679688 165.308594 C 76.261719 157.316406 54.105469 125.433594 58.46875 91.609375 C 60.929688 72.621094 71.679688 55.3125 87.738281 44.507812 C 97.117188 38.21875 108.234375 34.304688 119.902344 33.273438 C 123.351562 32.960938 130.824219 33.199219 134.632812 33.753906 Z M 134.632812 33.753906 "/>
<path style=" stroke:none;fill-rule:nonzero;fill:rgb(40%,14.509804%,23.137255%);fill-opacity:1;" d="M 148.714844 42.707031 C 147.171875 43.285156 146.183594 44.050781 144.738281 45.707031 C 142.878906 47.894531 141.964844 49.8125 142.15625 51.207031 C 142.277344 52.09375 142.203125 52.359375 141.722656 52.886719 C 141.046875 53.605469 139.40625 54.398438 138.949219 54.230469 C 138.683594 54.132812 138.683594 53.992188 138.972656 53.4375 C 139.503906 52.40625 139.214844 51.925781 138.128906 52.117188 C 137.648438 52.191406 136.753906 52.140625 136.128906 51.972656 C 134.777344 51.636719 134.078125 51.804688 133.089844 52.621094 C 132.222656 53.34375 132.152344 54.085938 132.851562 54.949219 C 133.574219 55.886719 133.667969 57.015625 133.089844 57.953125 C 132.511719 58.839844 131.980469 59.105469 130.34375 59.320312 C 128.894531 59.511719 128.4375 59.96875 127.761719 61.816406 C 127.449219 62.609375 127.085938 63.378906 126.917969 63.519531 C 126.75 63.664062 125.929688 63.90625 125.085938 64.050781 C 122.167969 64.554688 121.058594 65.320312 119.515625 67.890625 C 118.046875 70.339844 116.140625 71.613281 113.007812 72.164062 C 111.222656 72.5 109.992188 73.074219 108.691406 74.253906 C 107.582031 75.261719 105.726562 77.734375 105.363281 78.742188 C 105.148438 79.292969 105.027344 79.339844 104.617188 79.125 C 104.328125 78.980469 104.039062 78.667969 103.964844 78.453125 C 103.867188 78.238281 103.578125 77.710938 103.289062 77.324219 C 102.832031 76.675781 102.785156 76.292969 102.808594 73.84375 C 102.832031 71.636719 102.976562 70.722656 103.433594 69.332031 C 103.941406 67.722656 103.964844 67.507812 103.628906 66.929688 C 103.144531 66.042969 102.0625 65.96875 100.398438 66.738281 L 99.09375 67.3125 L 98.710938 66.738281 C 98.515625 66.425781 98.226562 66.160156 98.105469 66.160156 C 97.792969 66.160156 80.769531 76.675781 80.167969 77.230469 C 79.542969 77.828125 79.832031 78.40625 80.769531 78.40625 C 81.375 78.40625 81.808594 78.667969 82.722656 79.582031 L 83.90625 80.757812 L 83.277344 82.007812 C 82.894531 82.773438 82.675781 83.542969 82.722656 84 C 82.796875 84.71875 82.84375 84.765625 83.761719 84.71875 C 84.292969 84.695312 85.425781 84.359375 86.292969 83.976562 C 87.160156 83.589844 89.066406 82.917969 90.511719 82.460938 L 93.164062 81.644531 L 97.816406 81.71875 C 101.070312 81.765625 102.589844 81.71875 102.808594 81.527344 C 103 81.359375 103.386719 81.308594 103.675781 81.40625 C 104.132812 81.550781 104.183594 81.695312 104.039062 82.703125 C 103.917969 83.589844 103.699219 84 102.929688 84.695312 C 101.601562 85.96875 100.78125 85.945312 99.867188 84.597656 C 98.949219 83.230469 98.082031 83.015625 95.914062 83.6875 C 93.550781 84.40625 92.34375 84.503906 90.199219 84.191406 C 87.691406 83.832031 87.496094 83.925781 87.496094 85.414062 C 87.496094 86.519531 87.449219 86.589844 86.96875 86.519531 C 86.605469 86.472656 86.390625 86.253906 86.339844 85.894531 C 86.269531 85.488281 86.097656 85.367188 85.496094 85.367188 C 83.710938 85.367188 83.132812 86.785156 84.121094 88.726562 C 84.386719 89.257812 84.605469 89.878906 84.605469 90.144531 C 84.605469 90.648438 83.710938 91.441406 81.832031 92.640625 C 80.386719 93.578125 79.277344 95.136719 78.578125 97.296875 C 77.683594 100.011719 76.9375 101.164062 75.417969 102.195312 C 72.5 104.164062 72.140625 105.339844 73.875 107.191406 C 74.816406 108.199219 74.910156 108.390625 74.621094 108.773438 C 74.382812 109.085938 73.851562 109.253906 72.523438 109.351562 C 70.621094 109.519531 69.824219 109.832031 69.414062 110.574219 C 68.910156 111.511719 69.125 111.992188 70.332031 112.589844 C 71.996094 113.429688 72.5 114.800781 71.707031 116.335938 C 70.910156 117.871094 69.65625 118.015625 69.65625 116.550781 C 69.65625 115.664062 69.078125 115.136719 68.113281 115.136719 C 66.546875 115.136719 65.796875 116.863281 65.796875 120.539062 C 65.796875 123.128906 66.304688 124.355469 68.136719 126.082031 C 69.414062 127.332031 69.726562 127.789062 70.066406 128.941406 C 70.714844 131.171875 72.429688 132.589844 74.816406 132.828125 C 76.671875 133.019531 78 132.347656 79.277344 130.644531 C 80.578125 128.890625 81.109375 128.578125 83.15625 128.316406 C 84.074219 128.21875 85.183594 127.957031 85.570312 127.738281 C 86.992188 127.019531 88.460938 124.234375 88.460938 122.3125 C 88.460938 121.59375 89.015625 121.136719 89.910156 121.136719 C 91.1875 121.136719 92.320312 119.960938 92.320312 118.640625 C 92.320312 117.898438 93.285156 117.054688 94.152344 117.054688 C 95.214844 117.054688 96.105469 118.089844 97.285156 120.730469 C 97.527344 121.28125 98.105469 121.929688 98.660156 122.289062 C 99.480469 122.816406 99.9375 122.9375 101.84375 123.011719 C 103.867188 123.105469 104.207031 123.058594 105.410156 122.480469 C 106.496094 121.976562 106.859375 121.90625 107.535156 122.097656 C 109.027344 122.53125 110.5 122.386719 111.054688 121.785156 C 111.824219 120.945312 112.089844 120.296875 112.089844 119.21875 C 112.089844 118.425781 111.945312 118.066406 111.390625 117.511719 C 110.621094 116.769531 110.066406 116.648438 109.101562 117.105469 C 108.59375 117.320312 108.328125 117.296875 107.605469 116.914062 C 106.449219 116.3125 106.160156 115.734375 106.640625 115.039062 C 106.835938 114.726562 107.074219 114.054688 107.171875 113.550781 C 107.246094 113.046875 107.4375 112.472656 107.582031 112.304688 C 107.894531 111.894531 108.933594 111.941406 109.125 112.375 C 109.199219 112.589844 109.558594 112.902344 109.945312 113.09375 C 110.886719 113.574219 111.703125 113.214844 112.308594 112.085938 C 113.03125 110.671875 113.972656 109.972656 116.070312 109.277344 C 119.179688 108.269531 120.820312 107.164062 124.027344 103.949219 C 127.183594 100.78125 127.714844 100.417969 129.980469 99.890625 C 133.523438 99.050781 135.117188 99.769531 133.285156 101.402344 C 132.753906 101.859375 132.535156 102.292969 132.511719 102.890625 C 132.464844 103.660156 132.585938 103.804688 134.488281 105.148438 L 136.492188 106.589844 L 136.347656 107.835938 C 136.226562 108.964844 136.25 109.15625 136.730469 109.46875 C 137.40625 109.949219 139.070312 109.949219 140.757812 109.519531 C 141.796875 109.253906 142.230469 108.964844 143.121094 107.957031 C 143.699219 107.285156 144.328125 106.734375 144.496094 106.734375 C 144.664062 106.734375 144.929688 106.996094 145.074219 107.332031 C 145.410156 108.03125 146.425781 108.367188 146.953125 107.910156 C 147.171875 107.742188 147.535156 107.164062 147.796875 106.613281 C 148.113281 105.964844 148.546875 105.484375 149.078125 105.222656 C 149.632812 104.957031 150.066406 104.5 150.425781 103.683594 C 150.738281 103.058594 151.558594 101.957031 152.28125 101.285156 C 153.390625 100.179688 153.5625 99.890625 153.5625 99.074219 C 153.5625 97.875 153.03125 97.660156 151.488281 98.234375 C 150.425781 98.644531 150.378906 98.644531 149.75 98.113281 C 148.207031 96.890625 147.414062 96.867188 147.148438 98.019531 C 146.808594 99.433594 145.988281 99.820312 144.421875 99.265625 C 143.699219 99.003906 142.953125 98.019531 142.953125 97.296875 C 142.953125 97.105469 142.757812 96.792969 142.496094 96.554688 C 142.15625 96.242188 141.914062 96.21875 141.410156 96.410156 C 140.300781 96.820312 139.84375 96.699219 139.671875 96.003906 C 139.527344 95.5 139.625 95.257812 140.203125 94.800781 C 140.589844 94.488281 141.410156 93.769531 142.011719 93.167969 C 142.640625 92.570312 143.3125 92.089844 143.507812 92.089844 C 143.722656 92.089844 144.277344 91.753906 144.761719 91.34375 C 145.894531 90.359375 145.917969 89.472656 144.808594 88.632812 C 144.277344 88.222656 143.941406 87.695312 143.722656 86.953125 C 143.363281 85.558594 142.664062 85.101562 140.660156 84.933594 C 138.851562 84.792969 138.417969 84.457031 138.757812 83.496094 C 138.949219 82.964844 139.117188 82.871094 139.625 82.917969 C 139.988281 82.964844 140.542969 82.824219 140.902344 82.582031 C 141.457031 82.222656 141.554688 82.222656 141.941406 82.535156 C 144.640625 84.886719 147.917969 84.765625 149.484375 82.269531 C 150.332031 80.972656 150.355469 80.613281 149.679688 79.292969 C 149.222656 78.40625 149.195312 78.164062 149.414062 77.277344 C 149.65625 76.4375 149.632812 76.050781 149.316406 75.140625 C 148.882812 73.867188 148.957031 72.789062 149.605469 71.132812 C 150.066406 70.003906 150.066406 69.980469 149.535156 69.089844 C 149.246094 68.609375 148.785156 67.746094 148.523438 67.171875 C 148.113281 66.304688 147.917969 66.160156 147.292969 66.160156 C 146.160156 66.160156 144.953125 66.761719 144.542969 67.554688 C 144.351562 67.9375 144.011719 68.324219 143.796875 68.417969 C 143.339844 68.585938 142.230469 68.179688 142.230469 67.84375 C 142.230469 67.722656 142.203125 67.53125 142.179688 67.433594 C 142.132812 67.339844 142.421875 67.195312 142.808594 67.121094 C 143.867188 66.929688 144.15625 66.304688 143.410156 65.707031 C 143.097656 65.441406 142.589844 65.226562 142.324219 65.203125 C 141.769531 65.203125 141.503906 64.792969 141.503906 63.976562 C 141.503906 63.640625 141.890625 63.351562 142.902344 62.898438 C 143.652344 62.5625 144.566406 62.007812 144.929688 61.671875 L 145.605469 61.023438 L 146.519531 62.03125 C 147.316406 62.898438 147.605469 63.039062 148.425781 63.039062 C 148.980469 63.039062 149.777344 62.898438 150.210938 62.703125 C 150.765625 62.464844 151.558594 62.417969 152.863281 62.488281 L 154.695312 62.632812 L 156.019531 61.3125 C 157.128906 60.230469 157.417969 59.777344 157.636719 58.742188 C 158.070312 56.726562 157.972656 56.222656 157.03125 55.09375 C 156.238281 54.132812 156.164062 53.964844 156.308594 52.980469 C 156.382812 52.382812 156.769531 51.300781 157.152344 50.558594 C 158.117188 48.683594 158.214844 48.109375 157.757812 46.402344 C 157.25 44.410156 156.914062 43.957031 155.417969 43.1875 C 154.355469 42.660156 153.800781 42.539062 151.875 42.46875 C 150.355469 42.417969 149.292969 42.492188 148.714844 42.707031 Z M 104.566406 79.917969 C 104.953125 80.375 104.542969 80.878906 103.941406 80.710938 C 103.605469 80.589844 103.507812 80.398438 103.578125 80.085938 C 103.722656 79.535156 104.207031 79.460938 104.566406 79.917969 Z M 104.566406 79.917969 "/>
<path style=" stroke:none;fill-rule:nonzero;fill:rgb(40%,14.509804%,23.137255%);fill-opacity:1;" d="M 160.070312 74.707031 C 159.613281 75.019531 159.011719 75.285156 158.746094 75.285156 C 157.996094 75.285156 157.660156 75.742188 157.660156 76.699219 C 157.660156 77.878906 158.457031 79.078125 159.492188 79.507812 C 160.289062 79.847656 160.359375 79.941406 160.214844 80.566406 C 160.046875 81.503906 160.265625 82.007812 160.816406 82.007812 C 161.109375 82.007812 161.324219 82.222656 161.421875 82.605469 C 161.542969 83.085938 161.734375 83.207031 162.289062 83.207031 C 163.230469 83.207031 164.339844 82.605469 164.53125 82.007812 C 164.605469 81.742188 164.773438 81.527344 164.867188 81.527344 C 165.375 81.527344 166.050781 80.492188 166.195312 79.507812 C 166.410156 78.140625 165.929688 77.109375 164.867188 76.75 C 163.734375 76.363281 163.46875 76.414062 163.207031 77.085938 C 162.914062 77.828125 162.433594 78.046875 161.78125 77.683594 C 161.253906 77.421875 161.109375 76.628906 161.515625 76.363281 C 161.902344 76.125 161.78125 74.898438 161.347656 74.515625 C 160.964844 74.15625 160.84375 74.179688 160.070312 74.707031 Z M 160.070312 74.707031 "/>
<path style=" stroke:none;fill-rule:nonzero;fill:rgb(40%,14.509804%,23.137255%);fill-opacity:1;" d="M 167.039062 85.800781 C 166.339844 86.375 166.554688 86.929688 167.640625 87.457031 C 168.726562 87.960938 169.714844 87.625 169.714844 86.734375 C 169.714844 85.511719 168.125 84.960938 167.039062 85.800781 Z M 167.039062 85.800781 "/>
<path style=" stroke:none;fill-rule:nonzero;fill:rgb(40%,14.509804%,23.137255%);fill-opacity:1;" d="M 163.324219 88.152344 C 162.675781 88.320312 161.808594 88.488281 161.445312 88.488281 C 160.503906 88.488281 159.15625 89.234375 158.046875 90.359375 C 157.347656 91.105469 157.175781 91.441406 157.296875 91.847656 C 157.515625 92.570312 158.480469 92.882812 159.566406 92.570312 C 160.988281 92.183594 161.445312 92.28125 162.363281 93.21875 C 162.84375 93.722656 163.640625 94.25 164.121094 94.371094 C 164.867188 94.585938 165.132812 94.851562 165.785156 96.050781 C 166.773438 97.898438 167.136719 98.164062 168.484375 97.996094 C 170.269531 97.753906 170.679688 97.347656 170.679688 95.835938 C 170.679688 94.296875 169.933594 93.195312 168.75 92.929688 C 168.050781 92.785156 168.027344 92.714844 168.050781 91.511719 C 168.101562 90.097656 167.546875 88.679688 166.726562 88.128906 C 166.121094 87.695312 164.941406 87.695312 163.324219 88.152344 Z M 163.324219 88.152344 "/>
<path style=" stroke:none;fill-rule:nonzero;fill:rgb(40%,14.509804%,23.137255%);fill-opacity:1;" d="M 157.441406 112.160156 C 156.648438 112.589844 156.019531 112.734375 154.910156 112.734375 C 152.429688 112.734375 151.96875 113.382812 152.863281 115.542969 C 153.152344 116.289062 153.152344 116.359375 152.476562 117.082031 C 152.066406 117.488281 150.910156 118.402344 149.894531 119.121094 C 147.582031 120.730469 147.050781 121.640625 147.050781 123.898438 C 147.050781 125.148438 147.148438 125.554688 147.535156 125.9375 C 148.085938 126.492188 149.367188 126.585938 149.921875 126.082031 C 150.980469 125.171875 153.632812 124.953125 154.984375 125.652344 C 156.308594 126.300781 156.382812 126.636719 155.753906 128.605469 C 155.296875 130.042969 155.222656 130.597656 155.371094 132.179688 C 155.632812 135.132812 154.839844 136.285156 151.65625 137.460938 C 148.714844 138.566406 147.460938 140.054688 147.460938 142.40625 C 147.460938 144.664062 148.738281 145.960938 151.535156 146.535156 C 152.210938 146.679688 153.320312 147.015625 154.019531 147.304688 C 155.585938 147.90625 156.960938 147.929688 157.683594 147.328125 C 158.191406 146.921875 158.214844 146.800781 157.949219 146.25 C 157.78125 145.890625 157.660156 145.410156 157.660156 145.144531 C 157.660156 144.59375 158.792969 143.222656 159.25 143.222656 C 159.683594 143.222656 160.117188 144.039062 159.925781 144.542969 C 159.804688 144.808594 160.046875 145.242188 160.601562 145.816406 C 161.082031 146.296875 161.566406 147.015625 161.6875 147.425781 C 162 148.433594 162.601562 148.433594 163.566406 147.472656 C 164.628906 146.417969 164.675781 145.289062 163.785156 143.175781 C 163.300781 142 163.207031 141.542969 163.375 140.96875 L 163.589844 140.222656 L 165.449219 140.320312 L 167.304688 140.390625 L 168.390625 139.40625 C 168.96875 138.855469 169.570312 138.421875 169.714844 138.421875 C 169.859375 138.421875 170.488281 138.6875 171.113281 139.023438 C 173.1875 140.128906 174.609375 139.695312 174.851562 137.894531 C 174.921875 137.316406 175.066406 136.429688 175.164062 135.878906 C 175.285156 135.0625 175.210938 134.796875 174.753906 134.246094 C 174.199219 133.621094 174.054688 133.597656 172.222656 133.597656 C 171.160156 133.597656 170.125 133.667969 169.90625 133.742188 C 169.472656 133.910156 168.269531 133.40625 167.085938 132.539062 C 166.121094 131.84375 165.207031 131.773438 163.496094 132.324219 C 162.191406 132.757812 161.589844 132.660156 161.371094 132.0625 C 161.132812 131.460938 161.710938 131.027344 162.914062 130.835938 C 165.039062 130.523438 166.027344 128.605469 165.039062 126.683594 C 164.386719 125.457031 164.074219 125.363281 163.035156 126.035156 C 161.398438 127.164062 160.964844 126.851562 160.503906 124.28125 L 160.214844 122.554688 L 160.988281 121.832031 C 161.855469 121.015625 161.953125 120.394531 161.371094 119.242188 C 160.9375 118.402344 160.964844 118.351562 162.121094 116.457031 C 162.699219 115.519531 162.914062 113.863281 162.53125 113.3125 C 162.144531 112.785156 159.78125 111.535156 159.15625 111.558594 C 158.792969 111.558594 158.019531 111.824219 157.441406 112.160156 Z M 157.441406 112.160156 "/>
<path style=" stroke:none;fill-rule:nonzero;fill:rgb(40%,14.509804%,23.137255%);fill-opacity:1;" d="M 136.320312 115.929688 C 135.503906 116.382812 134.972656 116.457031 132.898438 116.457031 C 129.667969 116.457031 129.402344 116.671875 128.605469 119.960938 C 128.484375 120.464844 128.605469 120.777344 129.183594 121.449219 C 129.59375 121.90625 129.933594 122.480469 129.933594 122.746094 C 129.933594 123.800781 128.703125 124.761719 126.992188 125.074219 C 125.882812 125.265625 125.832031 125.601562 126.726562 126.921875 C 127.328125 127.835938 127.449219 127.90625 128.269531 127.789062 C 130.316406 127.523438 131.546875 129.898438 130.511719 132.085938 C 130.003906 133.164062 129.136719 133.742188 127.328125 134.246094 C 125.976562 134.628906 125.832031 134.726562 125.472656 135.589844 C 125.277344 136.09375 125.109375 136.789062 125.109375 137.125 C 125.109375 138.636719 124 139.117188 122.578125 138.183594 C 120.746094 136.957031 120.335938 138.085938 121.6875 140.605469 C 122.554688 142.238281 122.699219 142.382812 123.398438 142.40625 C 123.832031 142.433594 124.484375 142.671875 124.871094 142.9375 C 125.277344 143.246094 125.929688 143.464844 126.386719 143.464844 C 127.328125 143.464844 128.390625 142.457031 130.101562 139.984375 C 131.378906 138.109375 131.863281 137.703125 133.089844 137.4375 C 133.644531 137.292969 134.394531 136.980469 134.777344 136.742188 C 135.839844 135.972656 136.417969 136.140625 137.695312 137.484375 L 138.878906 138.734375 L 139.40625 138.230469 C 139.722656 137.941406 140.300781 137.582031 140.734375 137.4375 C 141.167969 137.292969 141.503906 137.054688 141.503906 136.910156 C 141.503906 136.742188 141.625 136.214844 141.769531 135.710938 C 141.964844 134.988281 142.203125 134.703125 142.832031 134.4375 C 143.289062 134.269531 143.699219 134.003906 143.796875 133.859375 C 144.011719 133.5 143.3125 132.324219 142.347656 131.484375 C 141.191406 130.476562 140.226562 130.5 139 131.507812 C 138.347656 132.035156 137.792969 132.277344 137.238281 132.277344 C 135.476562 132.277344 132.511719 128.195312 132.511719 125.769531 C 132.511719 124.835938 132.609375 124.570312 133.261719 123.996094 C 133.667969 123.609375 134.609375 123.128906 135.359375 122.9375 C 136.464844 122.601562 136.804688 122.601562 137.527344 122.84375 C 138.273438 123.128906 138.394531 123.105469 138.734375 122.675781 C 139.550781 121.59375 138.757812 120.65625 136.996094 120.65625 C 136.054688 120.65625 135.960938 120.609375 135.960938 120.082031 C 135.960938 119.648438 136.25 119.289062 136.996094 118.808594 C 138.105469 118.039062 138.707031 116.671875 138.203125 115.902344 C 137.839844 115.328125 137.40625 115.328125 136.320312 115.929688 Z M 136.320312 115.929688 "/>
<path style=" stroke:none;fill-rule:nonzero;fill:rgb(40%,14.509804%,23.137255%);fill-opacity:1;" d="M 121.398438 123.515625 C 120.890625 124.042969 120.746094 124.378906 120.820312 125.003906 C 120.890625 125.722656 121.035156 125.890625 122.097656 126.394531 C 123.445312 127.019531 123.976562 126.898438 124.097656 125.84375 C 124.171875 125.363281 124.074219 125.21875 123.710938 125.21875 C 123.085938 125.21875 122.890625 124.980469 123.207031 124.59375 C 123.542969 124.164062 122.964844 122.816406 122.433594 122.816406 C 122.242188 122.816406 121.757812 123.128906 121.398438 123.515625 Z M 121.398438 123.515625 "/>
<path style=" stroke:none;fill-rule:nonzero;fill:rgb(40%,14.509804%,23.137255%);fill-opacity:1;" d="M 104.253906 139.144531 C 103.867188 139.574219 103.84375 139.742188 104.085938 140.4375 C 104.253906 140.871094 104.328125 141.398438 104.230469 141.617188 C 104.160156 141.808594 104.207031 142.191406 104.351562 142.457031 C 104.542969 142.839844 104.785156 142.886719 105.75 142.816406 C 107.269531 142.671875 107.773438 143.128906 107.171875 144.0625 C 106.808594 144.59375 106.640625 144.664062 105.917969 144.519531 C 104.808594 144.328125 103.410156 145.3125 103.410156 146.320312 C 103.410156 147.089844 104.0625 147.785156 104.761719 147.785156 C 105.027344 147.785156 105.484375 147.953125 105.773438 148.167969 C 106.449219 148.648438 106.929688 148.3125 107.21875 147.210938 C 107.414062 146.488281 107.484375 146.464844 108.789062 146.394531 C 109.96875 146.320312 110.210938 146.226562 110.644531 145.625 C 111.054688 145.074219 111.34375 144.90625 111.996094 144.90625 C 112.933594 144.90625 112.984375 144.761719 112.402344 143.753906 C 112.042969 143.128906 112.019531 142.886719 112.285156 141.855469 C 112.695312 140.246094 112.355469 139.480469 111.078125 139.09375 C 110.378906 138.902344 109.847656 138.902344 108.859375 139.117188 C 107.726562 139.359375 107.4375 139.359375 106.808594 139.046875 C 105.796875 138.519531 104.785156 138.566406 104.253906 139.144531 Z M 104.253906 139.144531 "/>
<path style=" stroke:none;fill-rule:nonzero;fill:rgb(40%,14.509804%,23.137255%);fill-opacity:1;" d="M 101.121094 140.558594 C 100.878906 140.96875 101.433594 141.710938 102.109375 141.878906 C 102.953125 142.09375 103.097656 141.902344 102.640625 141.109375 C 102.230469 140.4375 101.410156 140.128906 101.121094 140.558594 Z M 101.121094 140.558594 "/>
<path style=" stroke:none;fill-rule:nonzero;fill:rgb(40%,14.509804%,23.137255%);fill-opacity:1;" d="M 101.070312 143.847656 C 100.492188 144.449219 100.035156 145 100.035156 145.121094 C 100.035156 145.550781 101.144531 145.601562 102.011719 145.191406 C 102.855469 144.808594 102.929688 144.710938 102.929688 143.753906 C 102.929688 142.40625 102.421875 142.433594 101.070312 143.847656 Z M 101.070312 143.847656 "/>
<path style=" stroke:none;fill-rule:nonzero;fill:rgb(73.72549%,19.607843%,28.627451%);fill-opacity:1;" d="M 56.878906 38.84375 L 56.273438 39.5625 L 54.828125 39.082031 C 53.261719 38.554688 53.140625 38.578125 52.898438 39.539062 C 52.753906 40.136719 52.828125 40.210938 53.960938 40.59375 C 55.285156 41.027344 55.285156 41.074219 54.273438 42.371094 L 53.816406 42.945312 L 53.042969 41.820312 C 52.609375 41.21875 52.152344 40.714844 52.03125 40.714844 C 51.8125 40.714844 50.898438 41.121094 50.65625 41.316406 C 50.609375 41.363281 51.066406 42.058594 51.667969 42.875 C 52.273438 43.691406 53.117188 45.058594 53.527344 45.925781 C 54.128906 47.171875 54.441406 47.554688 55.117188 47.820312 C 56.128906 48.253906 56.324219 48.132812 55.960938 47.316406 C 55.816406 46.980469 55.71875 46.714844 55.792969 46.714844 C 55.839844 46.714844 58.15625 48.398438 60.902344 50.4375 L 65.917969 54.132812 L 66.449219 53.484375 L 66.980469 52.839844 L 66.375 52.40625 C 66.0625 52.164062 65.796875 51.878906 65.796875 51.78125 C 65.796875 51.6875 66.59375 50.535156 67.582031 49.214844 C 69.4375 46.765625 69.488281 46.546875 68.425781 45.972656 C 68.066406 45.78125 67.847656 45.925781 67.292969 46.691406 L 66.59375 47.652344 L 65.773438 47.050781 C 65.316406 46.714844 64.785156 46.355469 64.59375 46.234375 C 64.277344 46.066406 64.304688 45.925781 64.785156 45.300781 C 65.460938 44.386719 65.460938 44.21875 64.738281 43.761719 C 64.183594 43.402344 64.132812 43.402344 63.578125 44.195312 L 63 45.035156 L 61.988281 44.292969 C 61.433594 43.882812 60.976562 43.5 60.976562 43.425781 C 60.976562 43.355469 61.21875 42.972656 61.507812 42.585938 L 62.035156 41.84375 L 61.335938 41.289062 L 60.636719 40.738281 L 59.480469 42.417969 L 58.613281 41.769531 C 58.132812 41.410156 57.671875 41.074219 57.625 41.050781 C 57.578125 41.003906 57.816406 40.570312 58.179688 40.113281 C 58.734375 39.394531 58.804688 39.179688 58.539062 38.890625 C 57.890625 38.097656 57.480469 38.074219 56.878906 38.84375 Z M 57.601562 43.089844 L 58.421875 43.789062 L 57.746094 44.652344 L 57.09375 45.539062 L 56.128906 44.773438 L 55.191406 44.027344 L 55.816406 43.210938 C 56.179688 42.753906 56.515625 42.394531 56.613281 42.394531 C 56.683594 42.394531 57.140625 42.707031 57.601562 43.089844 Z M 61.941406 46.402344 C 61.941406 46.476562 61.652344 46.882812 61.3125 47.339844 L 60.6875 48.15625 L 59.625 47.386719 C 59.046875 46.980469 58.636719 46.523438 58.734375 46.378906 C 58.804688 46.234375 59.09375 45.828125 59.335938 45.445312 L 59.792969 44.796875 L 60.878906 45.5625 C 61.457031 45.972656 61.941406 46.355469 61.941406 46.402344 Z M 64.496094 48.179688 C 65.074219 48.613281 65.460938 49.070312 65.386719 49.214844 C 65.292969 49.355469 65.003906 49.765625 64.761719 50.125 L 64.277344 50.773438 L 63.242188 50.054688 C 62.664062 49.667969 62.15625 49.261719 62.085938 49.164062 C 61.964844 48.972656 63.050781 47.4375 63.316406 47.4375 C 63.363281 47.4375 63.894531 47.773438 64.496094 48.179688 Z M 64.496094 48.179688 "/>
<path style=" stroke:none;fill-rule:nonzero;fill:rgb(73.72549%,19.607843%,28.627451%);fill-opacity:1;" d="M 189.605469 45.371094 C 185.363281 48.492188 181.867188 51.109375 181.84375 51.207031 C 181.820312 51.300781 182.058594 51.710938 182.375 52.09375 C 182.808594 52.644531 183.023438 52.742188 183.265625 52.550781 C 183.507812 52.332031 184.589844 53.679688 188.28125 58.71875 C 190.859375 62.273438 193.03125 65.175781 193.101562 65.175781 C 193.175781 65.175781 193.511719 64.9375 193.875 64.648438 L 194.523438 64.121094 L 189.800781 57.664062 C 185.316406 51.542969 185.097656 51.179688 185.53125 50.871094 C 186.109375 50.4375 190.859375 46.957031 194.285156 44.507812 C 195.683594 43.476562 196.910156 42.636719 197.007812 42.636719 C 197.128906 42.636719 199.78125 46.1875 205.398438 53.847656 C 206 54.664062 206.53125 55.335938 206.605469 55.335938 C 206.675781 55.335938 207.015625 55.09375 207.375 54.804688 L 208.027344 54.277344 L 205.617188 51.039062 C 204.3125 49.261719 202.046875 46.164062 200.601562 44.195312 C 199.128906 42.203125 197.804688 40.402344 197.636719 40.164062 C 197.347656 39.777344 196.648438 40.234375 189.605469 45.371094 Z M 189.605469 45.371094 "/>
<path style=" stroke:none;fill-rule:nonzero;fill:rgb(73.72549%,19.607843%,28.627451%);fill-opacity:1;" d="M 49.5 45.804688 C 48.871094 46.644531 48.292969 47.414062 48.199219 47.507812 C 48.101562 47.628906 47.617188 47.605469 47.160156 47.484375 C 46.316406 47.246094 46.269531 47.269531 45.808594 48.0625 L 45.304688 48.902344 L 46.027344 49.046875 C 46.4375 49.117188 46.75 49.238281 46.75 49.332031 C 46.75 49.40625 46.21875 50.171875 45.546875 51.039062 L 44.363281 52.597656 L 45.015625 53.125 C 45.351562 53.414062 45.738281 53.582031 45.808594 53.484375 C 46.703125 52.527344 51.8125 45.371094 51.742188 45.203125 C 51.695312 45.058594 51.429688 44.796875 51.164062 44.628906 C 50.679688 44.316406 50.585938 44.386719 49.5 45.804688 Z M 49.5 45.804688 "/>
<path style=" stroke:none;fill-rule:nonzero;fill:rgb(73.72549%,19.607843%,28.627451%);fill-opacity:1;" d="M 195.5625 46.957031 C 194.476562 47.773438 193.585938 48.492188 193.585938 48.566406 C 193.585938 48.636719 194.863281 50.4375 196.429688 52.550781 C 197.972656 54.664062 199.324219 56.511719 199.394531 56.632812 C 199.492188 56.75 200.40625 56.222656 201.445312 55.453125 C 202.480469 54.664062 203.421875 53.964844 203.542969 53.894531 C 203.710938 53.773438 198.792969 46.789062 197.828125 45.804688 C 197.585938 45.5625 197.152344 45.78125 195.5625 46.957031 Z M 199.46875 50.773438 L 201.277344 53.269531 L 200.699219 53.703125 C 200.382812 53.964844 200.046875 54.160156 199.902344 54.160156 C 199.78125 54.160156 198.839844 53.007812 197.804688 51.589844 L 195.898438 49.046875 L 196.621094 48.492188 C 197.007812 48.179688 197.394531 48.011719 197.492188 48.109375 C 197.585938 48.203125 198.480469 49.40625 199.46875 50.773438 Z M 199.46875 50.773438 "/>
<path style=" stroke:none;fill-rule:nonzero;fill:rgb(73.72549%,19.607843%,28.627451%);fill-opacity:1;" d="M 51.574219 46.933594 L 51.089844 47.652344 L 52.875 48.925781 C 53.863281 49.621094 54.683594 50.269531 54.683594 50.339844 C 54.707031 50.4375 52.585938 53.367188 51.429688 54.832031 C 51.402344 54.878906 50.535156 54.300781 49.523438 53.535156 L 47.691406 52.164062 L 47.28125 52.742188 C 47.0625 53.054688 46.871094 53.390625 46.871094 53.484375 C 46.871094 53.652344 51.332031 57.039062 51.574219 57.039062 C 51.644531 57.039062 52.128906 56.4375 52.65625 55.71875 C 53.1875 55 53.671875 54.398438 53.765625 54.398438 C 53.839844 54.398438 54.105469 54.613281 54.34375 54.855469 C 54.730469 55.3125 54.730469 55.359375 54.226562 56.078125 C 53.863281 56.605469 53.636719 56.9375 53.261719 56.679688 C 52.769531 56.320312 51.894531 57.726562 52.296875 57.902344 C 52.441406 58.046875 52.488281 58.335938 52.417969 58.527344 C 52.324219 58.761719 52.222656 58.910156 52.835938 59.269531 C 53.378906 59.585938 53.519531 59.585938 53.695312 59.390625 C 53.984375 59.070312 54.707031 59.703125 56.5625 61.074219 C 58.949219 62.824219 59.191406 62.96875 59.601562 62.609375 C 59.820312 62.417969 60.011719 62.105469 60.011719 61.9375 C 60.011719 61.792969 58.878906 60.808594 57.480469 59.777344 C 56.082031 58.742188 54.949219 57.832031 54.949219 57.757812 C 54.972656 57.6875 55.238281 57.328125 55.550781 56.941406 L 56.128906 56.222656 L 57.09375 56.894531 L 58.082031 57.566406 L 57.648438 58.289062 C 57.289062 58.886719 57.289062 59.007812 57.601562 59.199219 C 58.421875 59.726562 58.804688 59.441406 59.648438 57.757812 C 60.203125 56.65625 60.636719 56.078125 60.929688 56.078125 C 61.144531 56.078125 61.480469 55.863281 61.628906 55.597656 C 61.988281 55.046875 61.773438 54.878906 59.84375 54.328125 C 58.636719 53.964844 58.566406 53.964844 58.324219 54.398438 C 57.988281 55 58.011719 55.046875 58.566406 55.191406 C 58.832031 55.261719 59.046875 55.480469 59.046875 55.695312 C 59.046875 56.222656 58.757812 56.175781 57.9375 55.550781 C 57.550781 55.261719 57.214844 55 57.167969 54.976562 C 57.117188 54.949219 57.480469 54.375 57.988281 53.726562 L 58.878906 52.527344 L 60.492188 53.703125 C 62.808594 55.382812 62.855469 55.429688 62.085938 56.4375 L 61.433594 57.28125 L 62.085938 57.519531 C 62.445312 57.664062 62.808594 57.832031 62.929688 57.878906 C 63.195312 58.070312 64.59375 56.054688 64.59375 55.480469 C 64.59375 55.191406 64.398438 54.734375 64.183594 54.496094 C 63.675781 53.964844 59.167969 50.582031 58.734375 50.4375 C 58.566406 50.367188 58.082031 50.84375 57.671875 51.46875 C 57.238281 52.09375 56.636719 52.910156 56.324219 53.269531 L 55.769531 53.964844 L 55.191406 53.484375 L 54.636719 53.03125 L 55.742188 51.566406 C 56.371094 50.773438 56.878906 50.027344 56.878906 49.910156 C 56.878906 49.8125 56.613281 49.550781 56.324219 49.332031 C 56.035156 49.117188 54.949219 48.347656 53.9375 47.605469 L 52.078125 46.234375 Z M 51.574219 46.933594 "/>
<path style=" stroke:none;fill-rule:nonzero;fill:rgb(73.72549%,19.607843%,28.627451%);fill-opacity:1;" d="M 189.027344 49.285156 C 187.820312 50.171875 186.832031 50.988281 186.832031 51.085938 C 186.832031 51.324219 190.28125 56.078125 190.449219 56.054688 C 190.523438 56.054688 191.558594 55.335938 192.789062 54.421875 L 195.007812 52.789062 L 193.125 50.246094 L 191.222656 47.675781 Z M 191.898438 51.375 L 192.621094 52.429688 L 191.777344 53.054688 C 191.34375 53.390625 190.882812 53.679688 190.765625 53.679688 C 190.59375 53.679688 189.171875 51.734375 189.148438 51.445312 C 189.101562 51.179688 190.765625 50.078125 190.957031 50.222656 C 191.078125 50.292969 191.488281 50.820312 191.898438 51.375 Z M 191.898438 51.375 "/>
<path style=" stroke:none;fill-rule:nonzero;fill:rgb(73.72549%,19.607843%,28.627451%);fill-opacity:1;" d="M 50.441406 48.398438 C 49.980469 48.589844 49.933594 48.707031 50.125 49.382812 C 50.414062 50.316406 50.320312 50.460938 49.28125 50.796875 C 48.4375 51.085938 48.222656 51.542969 48.65625 52.214844 C 48.800781 52.453125 48.96875 52.476562 49.355469 52.261719 C 50.222656 51.804688 50.441406 51.925781 50.296875 52.839844 C 50.199219 53.460938 50.246094 53.679688 50.488281 53.679688 C 50.65625 53.679688 50.96875 53.75 51.1875 53.824219 C 51.476562 53.941406 51.574219 53.824219 51.574219 53.367188 C 51.574219 53.054688 51.644531 52.453125 51.71875 52.046875 C 51.839844 51.421875 52.007812 51.277344 52.828125 51.15625 C 53.671875 51.011719 53.765625 50.917969 53.644531 50.460938 C 53.574219 50.199219 53.5 49.859375 53.5 49.742188 C 53.5 49.621094 53.066406 49.597656 52.539062 49.691406 C 51.621094 49.835938 51.597656 49.835938 51.429688 48.996094 C 51.257812 48.085938 51.234375 48.085938 50.441406 48.398438 Z M 50.441406 48.398438 "/>
<path style=" stroke:none;fill-rule:nonzero;fill:rgb(73.72549%,19.607843%,28.627451%);fill-opacity:1;" d="M 194.140625 55.671875 C 193.199219 56.390625 192.210938 57.109375 191.945312 57.304688 C 191.488281 57.617188 191.558594 57.757812 193.464844 60.328125 L 195.441406 63.015625 L 197.585938 61.433594 C 198.769531 60.59375 199.757812 59.777344 199.804688 59.65625 C 199.902344 59.414062 196.285156 54.398438 196.042969 54.398438 C 195.949219 54.398438 195.105469 54.976562 194.140625 55.671875 Z M 196.695312 57.925781 L 197.660156 59.273438 L 197.007812 59.753906 C 196.648438 60.015625 196.238281 60.328125 196.09375 60.449219 C 195.921875 60.566406 195.441406 60.160156 194.789062 59.296875 C 193.945312 58.191406 193.824219 57.902344 194.113281 57.734375 C 194.308594 57.640625 194.742188 57.328125 195.054688 57.0625 C 195.367188 56.800781 195.65625 56.582031 195.683594 56.558594 C 195.707031 56.558594 196.140625 57.160156 196.695312 57.925781 Z M 196.695312 57.925781 "/>
<path style=" stroke:none;fill-rule:nonzero;fill:rgb(73.72549%,19.607843%,28.627451%);fill-opacity:1;" d="M 199.804688 116.746094 C 199.058594 120.035156 198.453125 122.722656 198.480469 122.746094 C 198.503906 122.769531 199.324219 123.011719 200.289062 123.273438 C 201.515625 123.609375 202.023438 123.660156 202.023438 123.464844 C 202.023438 123.296875 201.710938 123.011719 201.324219 122.769531 C 200.9375 122.554688 200.433594 122.097656 200.191406 121.738281 C 199.828125 121.1875 199.804688 120.921875 200.046875 119.648438 C 200.191406 118.855469 200.359375 118.136719 200.433594 118.089844 C 200.527344 117.96875 209.351562 119.914062 211.59375 120.5625 C 212.898438 120.921875 212.96875 121.015625 213.1875 122.578125 C 213.210938 122.914062 213.546875 121.882812 213.910156 120.296875 C 214.296875 118.714844 214.632812 117.273438 214.679688 117.105469 C 214.898438 116.457031 214.390625 116.863281 214.007812 117.65625 C 213.691406 118.328125 213.476562 118.496094 212.921875 118.496094 C 212.535156 118.496094 209.90625 117.96875 207.0625 117.296875 C 204.21875 116.648438 201.660156 116.046875 201.371094 115.976562 C 200.867188 115.855469 200.867188 115.832031 201.203125 114.609375 C 201.636719 112.902344 202.242188 112.183594 203.375 111.941406 C 205.039062 111.582031 205.0625 111.460938 203.589844 111.152344 C 200.988281 110.574219 201.324219 110.046875 199.804688 116.746094 Z M 199.804688 116.746094 "/>
<path style=" stroke:none;fill-rule:nonzero;fill:rgb(73.72549%,19.607843%,28.627451%);fill-opacity:1;" d="M 48.199219 113.886719 C 48.199219 114.632812 48.078125 114.945312 47.714844 115.136719 C 46.945312 115.542969 36.140625 117.800781 35.660156 117.65625 C 35.417969 117.585938 35.058594 117.128906 34.863281 116.648438 C 34.695312 116.167969 34.476562 115.878906 34.40625 116 C 34.261719 116.238281 35.515625 122.050781 35.757812 122.265625 C 35.828125 122.363281 35.902344 121.976562 35.902344 121.449219 C 35.902344 120.898438 36.046875 120.34375 36.238281 120.203125 C 36.671875 119.839844 47.378906 117.488281 48.171875 117.585938 C 48.605469 117.632812 48.921875 117.898438 49.160156 118.425781 C 49.546875 119.242188 50.003906 119.503906 49.789062 118.785156 C 49.742188 118.570312 49.453125 117.25 49.160156 115.855469 C 48.582031 113.09375 48.199219 112.304688 48.199219 113.886719 Z M 48.199219 113.886719 "/>
<path style=" stroke:none;fill-rule:nonzero;fill:rgb(73.72549%,19.607843%,28.627451%);fill-opacity:1;" d="M 47.113281 121.546875 C 46.363281 121.738281 45.328125 122.554688 44.964844 123.25 C 44.773438 123.609375 44.339844 125.121094 43.976562 126.609375 C 43.253906 129.613281 42.699219 130.523438 41.324219 130.980469 C 39.832031 131.460938 38.410156 130.308594 38.144531 128.410156 C 37.972656 127.089844 38.382812 125.9375 39.566406 124.617188 C 40.097656 124.019531 40.480469 123.464844 40.410156 123.394531 C 40.289062 123.273438 37.710938 124.5 36.671875 125.171875 L 36.117188 125.53125 L 36.671875 125.796875 C 37.15625 126.035156 37.25 126.324219 37.371094 127.90625 C 37.566406 130.117188 38.191406 131.363281 39.589844 132.253906 C 41.46875 133.476562 43.929688 132.925781 44.992188 131.078125 C 45.28125 130.574219 45.761719 129.109375 46.050781 127.859375 C 46.917969 123.996094 47.523438 123.058594 49.113281 123.058594 C 49.8125 123.058594 50.535156 123.660156 51.066406 124.667969 C 51.644531 125.796875 51.140625 127.570312 49.859375 128.84375 C 49.332031 129.371094 48.921875 129.898438 48.96875 129.996094 C 49.015625 130.09375 50.03125 129.707031 51.210938 129.15625 C 53.019531 128.292969 53.285156 128.097656 52.828125 127.957031 C 52.246094 127.789062 52.152344 127.5 51.957031 125.386719 C 51.8125 123.632812 51.140625 122.507812 49.789062 121.882812 C 48.800781 121.402344 48.101562 121.304688 47.113281 121.546875 Z M 47.113281 121.546875 "/>
<path style=" stroke:none;fill-rule:nonzero;fill:rgb(73.72549%,19.607843%,28.627451%);fill-opacity:1;" d="M 197.78125 124.929688 C 197.925781 125.53125 197.78125 125.914062 196.886719 127.1875 C 195.585938 129.082031 195.175781 130.476562 195.320312 132.589844 C 195.488281 135.46875 196.984375 137.558594 199.828125 138.855469 C 201.6875 139.71875 204.507812 139.765625 206.144531 138.949219 C 209.207031 137.460938 210.945312 133.859375 210.246094 130.453125 C 209.957031 129.109375 209.425781 128.097656 209.136719 128.363281 C 209.0625 128.460938 209.160156 129.15625 209.378906 129.898438 C 210.632812 134.148438 207.207031 138.015625 202.914062 137.222656 C 199.128906 136.503906 196.238281 133.742188 196.238281 130.859375 C 196.261719 128.4375 198.769531 126.179688 201.492188 126.179688 C 202.746094 126.179688 202.386719 125.867188 200.261719 125.121094 C 199.179688 124.738281 198.140625 124.378906 197.949219 124.304688 C 197.707031 124.210938 197.660156 124.355469 197.78125 124.929688 Z M 197.78125 124.929688 "/>
<path style=" stroke:none;fill-rule:nonzero;fill:rgb(73.72549%,19.607843%,28.627451%);fill-opacity:1;" d="M 53.40625 131.171875 C 53.527344 131.964844 53.476562 132.15625 52.972656 132.46875 C 52.078125 133.046875 43.085938 137.628906 42.484375 137.824219 C 42.097656 137.917969 41.808594 137.796875 41.421875 137.367188 C 40.191406 135.949219 40.601562 137.007812 43.160156 141.953125 C 44.652344 144.832031 45.859375 147.210938 45.882812 147.234375 C 45.90625 147.234375 46.75 147.089844 47.789062 146.898438 C 49.621094 146.511719 50.269531 146.105469 48.992188 146.105469 C 46.871094 146.105469 45.738281 145.167969 44.148438 142.09375 C 43.328125 140.488281 43.277344 140.320312 43.640625 139.957031 C 44.027344 139.597656 53.382812 134.726562 54.296875 134.4375 C 54.585938 134.339844 54.949219 134.558594 55.429688 135.0625 C 55.839844 135.492188 56.152344 135.6875 56.152344 135.542969 C 56.152344 135.207031 53.550781 130.261719 53.355469 130.261719 C 53.308594 130.261719 53.332031 130.667969 53.40625 131.171875 Z M 53.40625 131.171875 "/>
<path style=" stroke:none;fill-rule:nonzero;fill:rgb(73.72549%,19.607843%,28.627451%);fill-opacity:1;" d="M 190.957031 140.007812 C 190.113281 141.519531 189.484375 142.816406 189.535156 142.886719 C 189.605469 142.9375 189.945312 142.671875 190.28125 142.261719 C 190.644531 141.878906 191.078125 141.542969 191.222656 141.542969 C 191.511719 141.542969 198.863281 145.527344 201.15625 146.898438 L 202.3125 147.617188 L 202.144531 148.839844 C 202.070312 149.515625 202.046875 149.992188 202.09375 149.945312 C 202.457031 149.5625 205.328125 144.183594 205.183594 144.183594 C 205.085938 144.183594 204.746094 144.449219 204.433594 144.785156 C 204.121094 145.121094 203.664062 145.382812 203.421875 145.382812 C 202.84375 145.382812 193.101562 139.984375 192.667969 139.429688 C 192.355469 139.023438 192.378906 138.496094 192.742188 137.628906 C 192.835938 137.414062 192.8125 137.222656 192.714844 137.222656 C 192.597656 137.222656 191.800781 138.46875 190.957031 140.007812 Z M 190.957031 140.007812 "/>
<path style=" stroke:none;fill-rule:nonzero;fill:rgb(73.72549%,19.607843%,28.627451%);fill-opacity:1;" d="M 56.273438 148.914062 C 49.234375 150.691406 49.042969 150.714844 48.34375 150.328125 C 47.957031 150.113281 47.59375 149.96875 47.546875 150.042969 C 47.472656 150.113281 47.957031 150.835938 48.582031 151.648438 C 49.234375 152.492188 49.835938 153.257812 49.933594 153.402344 C 50.03125 153.546875 50.175781 153.570312 50.269531 153.476562 C 50.367188 153.378906 50.320312 153.164062 50.175781 153.019531 C 49.789062 152.632812 49.8125 151.988281 50.222656 151.648438 C 50.414062 151.480469 51.285156 151.171875 52.128906 150.90625 L 53.71875 150.472656 L 55.40625 152.730469 C 56.347656 153.953125 57.117188 155.082031 57.117188 155.226562 C 57.117188 155.585938 55.597656 157.917969 55.09375 158.324219 C 54.753906 158.613281 54.609375 158.589844 54.105469 158.109375 C 53.019531 157.101562 53.476562 158.085938 54.949219 160.027344 C 56.660156 162.261719 56.996094 162.550781 56.757812 161.515625 C 56.5625 160.652344 56.417969 160.964844 60.636719 153.402344 C 63.675781 147.976562 64.132812 147.039062 63.699219 147.089844 C 63.578125 147.113281 60.253906 147.929688 56.273438 148.914062 Z M 60.492188 149.632812 C 60.203125 150.136719 59.457031 151.386719 58.878906 152.417969 C 57.988281 153.929688 57.722656 154.242188 57.480469 153.980469 C 56.660156 153.066406 54.683594 150.378906 54.753906 150.28125 C 54.925781 150.136719 60.085938 148.792969 60.566406 148.769531 C 61 148.746094 61 148.792969 60.492188 149.632812 Z M 60.492188 149.632812 "/>
<path style=" stroke:none;fill-rule:nonzero;fill:rgb(73.72549%,19.607843%,28.627451%);fill-opacity:1;" d="M 186.519531 147.808594 C 185.84375 148.289062 184.375 149.875 182.976562 151.625 C 180.734375 154.484375 180.277344 155.371094 181.675781 154.292969 C 182.179688 153.882812 182.398438 153.835938 182.832031 154.074219 C 183.578125 154.460938 191.4375 160.53125 192.066406 161.179688 C 192.570312 161.734375 192.570312 161.804688 192.257812 162.597656 C 192.066406 163.078125 192.015625 163.390625 192.160156 163.339844 C 192.476562 163.246094 195.996094 158.757812 195.875 158.636719 C 195.828125 158.589844 195.441406 158.78125 195.03125 159.070312 C 194.40625 159.523438 194.164062 159.574219 193.679688 159.355469 C 192.835938 158.949219 189.511719 156.355469 189.484375 156.042969 C 189.460938 155.347656 190.113281 155.226562 194.355469 155.226562 L 198.648438 155.226562 L 199.734375 153.835938 C 200.988281 152.273438 201.082031 151.914062 200.167969 152.515625 C 199.636719 152.875 198.769531 152.96875 195.511719 153.089844 C 193.320312 153.164062 191.511719 153.210938 191.464844 153.1875 C 191.4375 153.164062 191.582031 152.683594 191.777344 152.105469 C 192.742188 149.394531 191.558594 147.328125 188.90625 147.113281 C 187.820312 147.015625 187.53125 147.113281 186.519531 147.808594 Z M 189.460938 149.851562 C 189.992188 150.304688 190.5 151.003906 190.570312 151.386719 C 190.738281 152.128906 190.160156 153.714844 189.246094 154.988281 L 188.738281 155.683594 L 186.472656 153.953125 C 185.21875 152.996094 184.132812 152.082031 184.0625 151.890625 C 183.988281 151.699219 184.445312 151.050781 185.21875 150.28125 C 186.375 149.128906 186.640625 148.984375 187.507812 148.984375 C 188.328125 148.984375 188.714844 149.152344 189.460938 149.851562 Z M 189.460938 149.851562 "/>
<path style=" stroke:none;fill-rule:nonzero;fill:rgb(73.72549%,19.607843%,28.627451%);fill-opacity:1;" d="M 68.039062 153.738281 C 68.257812 153.980469 68.5 154.507812 68.59375 154.890625 C 68.714844 155.515625 68.378906 155.972656 65.074219 159.742188 C 63.050781 162.019531 61.144531 164.0625 60.808594 164.277344 C 60.277344 164.636719 60.15625 164.636719 59.386719 164.277344 C 58.925781 164.0625 58.566406 163.964844 58.566406 164.085938 C 58.566406 164.375 62.179688 167.566406 62.328125 167.421875 C 62.375 167.351562 62.253906 166.964844 62.011719 166.558594 C 61.699219 166.007812 61.652344 165.671875 61.820312 165.214844 C 61.964844 164.878906 63.484375 162.980469 65.195312 161.011719 C 68.234375 157.53125 68.328125 157.460938 68.402344 158.179688 C 68.449219 158.613281 68.378906 162.070312 68.210938 165.863281 C 68.066406 169.679688 67.992188 172.847656 68.039062 172.894531 C 68.113281 172.96875 70.089844 170.832031 72.453125 168.167969 C 74.839844 165.503906 76.9375 163.199219 77.15625 163.078125 C 77.371094 162.933594 77.828125 162.910156 78.167969 163.003906 C 78.960938 163.199219 80.265625 164.277344 80.265625 164.757812 C 80.265625 165.308594 74.503906 175.367188 74.042969 175.609375 C 73.828125 175.730469 73.367188 175.730469 72.960938 175.609375 C 72.550781 175.488281 72.164062 175.464844 72.089844 175.511719 C 71.945312 175.65625 71.730469 175.511719 75.203125 177.480469 C 79.035156 179.617188 80.578125 180.195312 82.507812 180.195312 C 86.363281 180.195312 89.425781 176.929688 89.425781 172.871094 C 89.425781 169.75 87.761719 167.832031 82.484375 164.855469 C 80.699219 163.847656 78.554688 162.40625 77.589844 161.542969 C 76.625 160.699219 75.757812 160.027344 75.660156 160.027344 C 75.539062 160.027344 75.660156 160.390625 75.925781 160.796875 C 76.285156 161.46875 76.335938 161.683594 76.09375 162.238281 C 75.757812 162.980469 70.621094 168.910156 70.308594 168.910156 C 70.1875 168.910156 70.164062 168.625 70.234375 168.238281 C 70.308594 167.878906 70.425781 165.261719 70.5 162.429688 C 70.570312 159.597656 70.691406 156.882812 70.742188 156.425781 C 70.863281 155.660156 70.765625 155.492188 69.511719 154.433594 C 68.210938 153.332031 67.269531 152.875 68.039062 153.738281 Z M 83.664062 166.414062 C 84.074219 166.605469 84.820312 167.160156 85.351562 167.640625 C 87.570312 169.632812 87.980469 172.128906 86.582031 174.960938 C 85.183594 177.769531 82.867188 179.257812 80.410156 178.898438 C 79.203125 178.707031 76.527344 177.457031 76.335938 177 C 76.238281 176.714844 81.398438 167.351562 82.167969 166.4375 C 82.578125 165.933594 82.746094 165.933594 83.664062 166.414062 Z M 83.664062 166.414062 "/>
<path style=" stroke:none;fill-rule:nonzero;fill:rgb(73.72549%,19.607843%,28.627451%);fill-opacity:1;" d="M 178.734375 156.234375 C 177.9375 156.933594 175.839844 158.730469 174.101562 160.246094 C 172.34375 161.757812 170.921875 163.054688 170.921875 163.125 C 170.921875 163.4375 173.164062 166.007812 173.355469 165.886719 C 173.453125 165.839844 173.332031 165.308594 173.066406 164.734375 C 172.730469 163.941406 172.65625 163.507812 172.824219 163.101562 C 173.042969 162.5 174.875 160.628906 175.238281 160.628906 C 175.5 160.628906 182.925781 169.128906 183.265625 169.824219 C 183.480469 170.28125 183.433594 170.496094 183 171.097656 C 181.988281 172.441406 182.6875 172.082031 185.121094 169.96875 C 186.472656 168.839844 187.53125 167.832031 187.460938 167.78125 C 187.414062 167.710938 187.027344 167.855469 186.617188 168.046875 C 186.230469 168.261719 185.75 168.429688 185.554688 168.429688 C 185.195312 168.429688 183.21875 166.34375 179.261719 161.734375 L 176.875 158.972656 L 177.574219 158.394531 C 178.636719 157.53125 179.671875 156.90625 180.082031 156.90625 C 180.277344 156.90625 180.878906 157.125 181.382812 157.410156 C 182.855469 158.179688 182.878906 157.84375 181.480469 156.332031 L 180.203125 154.9375 Z M 178.734375 156.234375 "/>
<path style=" stroke:none;fill-rule:nonzero;fill:rgb(73.72549%,19.607843%,28.627451%);fill-opacity:1;" d="M 167.980469 164.878906 C 167.929688 165.308594 167.617188 165.503906 166.410156 165.8125 C 165.59375 166.03125 164.652344 166.390625 164.289062 166.605469 C 162.191406 167.976562 162.191406 171.527344 164.289062 172.894531 C 164.796875 173.207031 165.710938 173.351562 168.246094 173.472656 C 171.886719 173.664062 172.824219 173.953125 173.453125 175.152344 C 174.03125 176.257812 173.910156 177.027344 173.019531 177.914062 C 172.125 178.800781 170.558594 179.332031 169.546875 179.089844 C 169.183594 179.019531 168.292969 178.609375 167.570312 178.226562 C 166.871094 177.84375 166.242188 177.578125 166.171875 177.648438 C 166.097656 177.722656 166.726562 178.585938 167.546875 179.59375 C 168.992188 181.347656 169.351562 181.585938 169.351562 180.722656 C 169.351562 180.457031 169.714844 180.21875 170.4375 180.003906 C 172.125 179.523438 174.03125 178.515625 174.511719 177.816406 C 175.597656 176.28125 175.695312 174.625 174.777344 173.113281 C 173.957031 171.769531 173.113281 171.503906 169.378906 171.3125 C 165.59375 171.144531 164.675781 170.855469 164.195312 169.65625 C 163.953125 169.078125 163.953125 168.816406 164.21875 168.285156 C 164.773438 167.132812 165.738281 166.628906 167.304688 166.628906 C 168.535156 166.628906 168.824219 166.726562 169.691406 167.421875 C 170.246094 167.855469 170.800781 168.144531 170.921875 168.070312 C 171.160156 167.925781 168.605469 164.351562 168.246094 164.351562 C 168.148438 164.351562 168.027344 164.589844 167.980469 164.878906 Z M 167.980469 164.878906 "/>
<path style=" stroke:none;fill-rule:nonzero;fill:rgb(73.72549%,19.607843%,28.627451%);fill-opacity:1;" d="M 156.453125 170.855469 C 154.933594 171.527344 153.65625 172.105469 153.585938 172.175781 C 153.320312 172.441406 153.800781 172.511719 154.40625 172.273438 C 155.585938 171.816406 155.972656 172.34375 158.238281 177.578125 C 161.179688 184.300781 161.035156 183.746094 160.070312 184.5625 C 159.613281 184.925781 159.300781 185.285156 159.371094 185.332031 C 159.492188 185.453125 165.132812 183.027344 165.132812 182.835938 C 165.132812 182.761719 164.722656 182.738281 164.21875 182.789062 C 163.566406 182.859375 163.207031 182.761719 162.941406 182.425781 C 162.433594 181.851562 158.140625 171.984375 158.140625 171.40625 C 158.140625 171.144531 158.480469 170.664062 158.914062 170.304688 C 159.347656 169.945312 159.613281 169.65625 159.46875 169.65625 C 159.347656 169.65625 157.972656 170.207031 156.453125 170.855469 Z M 156.453125 170.855469 "/>
<path style=" stroke:none;fill-rule:nonzero;fill:rgb(73.72549%,19.607843%,28.627451%);fill-opacity:1;" d="M 93.765625 172.082031 C 92.222656 173.113281 91.667969 175.082031 92.464844 176.640625 C 92.679688 177.074219 93.644531 178.417969 94.585938 179.691406 C 96.082031 181.683594 96.296875 182.089844 96.296875 183.003906 C 96.296875 183.820312 96.152344 184.179688 95.550781 184.78125 C 93.5 186.820312 89.910156 184.347656 89.910156 180.867188 C 89.910156 179.5 89.449219 180.027344 89.066406 181.804688 C 88.847656 182.835938 88.632812 183.820312 88.558594 183.988281 C 88.390625 184.539062 88.703125 184.753906 89.183594 184.46875 C 89.570312 184.226562 89.765625 184.25 90.320312 184.707031 C 94.007812 187.660156 98.589844 186.605469 98.589844 182.789062 C 98.589844 181.324219 98.25 180.652344 96.128906 177.867188 C 94.152344 175.273438 93.839844 174.191406 94.753906 173.160156 C 95.671875 172.152344 96.996094 172.199219 98.25 173.28125 C 99.3125 174.191406 99.792969 175.25 99.792969 176.570312 C 99.792969 178.226562 100.203125 177.867188 100.734375 175.753906 C 101.335938 173.375 101.386719 172.753906 100.953125 173.183594 C 100.492188 173.640625 100.058594 173.519531 98.757812 172.585938 C 97.722656 171.839844 97.3125 171.671875 96.082031 171.601562 C 94.851562 171.527344 94.464844 171.601562 93.765625 172.082031 Z M 93.765625 172.082031 "/>
<path style=" stroke:none;fill-rule:nonzero;fill:rgb(73.72549%,19.607843%,28.627451%);fill-opacity:1;" d="M 142.058594 175.585938 C 138.46875 176.519531 137.746094 176.832031 139.144531 176.832031 C 139.625 176.832031 140.132812 176.976562 140.277344 177.144531 C 140.613281 177.578125 143.433594 188.019531 143.433594 188.886719 C 143.433594 189.390625 143.242188 189.652344 142.664062 189.941406 C 141.265625 190.660156 142.324219 190.542969 145.964844 189.582031 C 151.246094 188.164062 152.742188 187.253906 154.089844 184.683594 C 155.199219 182.546875 154.644531 178.851562 152.910156 176.832031 C 150.8125 174.410156 147.894531 174.074219 142.058594 175.585938 Z M 148.90625 176.210938 C 151.03125 177.21875 152.429688 179.785156 152.453125 182.738281 C 152.453125 185.1875 151.03125 187.035156 148.28125 188.117188 C 146.160156 188.933594 145.941406 188.859375 145.386719 186.964844 C 144.0625 182.476562 142.664062 176.808594 142.785156 176.496094 C 142.976562 175.992188 144.230469 175.679688 146.085938 175.65625 C 147.269531 175.632812 147.96875 175.777344 148.90625 176.210938 Z M 148.90625 176.210938 "/>
<path style=" stroke:none;fill-rule:nonzero;fill:rgb(59.607843%,16.862745%,24.313725%);fill-opacity:1;" d="M 102.808594 205.640625 C 100.492188 206.121094 99.167969 207.152344 98.347656 209.050781 C 97.839844 210.203125 97.816406 210.539062 97.960938 213.082031 C 98.417969 220.933594 98.417969 220.863281 98.011719 222.398438 C 97.335938 225.085938 97.574219 226.3125 99.070312 227.585938 C 100.179688 228.496094 101.507812 228.785156 104.738281 228.761719 C 109.148438 228.738281 113.222656 227.679688 117.683594 225.398438 L 119.78125 224.34375 L 118.9375 223.191406 C 118.503906 222.542969 118.117188 221.894531 118.117188 221.726562 C 118.117188 221.414062 118.191406 221.390625 113.777344 221.964844 C 111.777344 222.230469 109.679688 222.109375 109.679688 221.75 C 109.679688 221.367188 112.742188 220.71875 116.019531 220.382812 C 117.324219 220.261719 117.636719 220.140625 117.539062 219.878906 C 117.46875 219.6875 117.394531 219.011719 117.394531 218.414062 C 117.394531 217.285156 117.394531 217.285156 116.261719 216.878906 C 114.71875 216.324219 111.996094 214.667969 111.898438 214.210938 C 111.777344 213.636719 113.851562 214.140625 115.949219 215.195312 L 117.78125 216.109375 L 118.550781 214.859375 C 118.984375 214.164062 119.324219 213.492188 119.324219 213.371094 C 119.324219 212.746094 113.5625 208.304688 111.246094 207.152344 C 108.761719 205.882812 104.882812 205.210938 102.808594 205.640625 Z M 102.808594 205.640625 "/>
<path style=" stroke:none;fill-rule:nonzero;fill:rgb(59.607843%,16.862745%,24.313725%);fill-opacity:1;" d="M 142.613281 206.027344 C 139.9375 206.675781 135.910156 209.148438 132.753906 212.125 L 131.332031 213.445312 L 132.125 214.765625 C 132.5625 215.484375 132.921875 216.109375 132.945312 216.132812 C 132.945312 216.15625 133.839844 215.726562 134.898438 215.195312 C 136.03125 214.644531 137.359375 214.1875 138.035156 214.117188 L 139.214844 213.972656 L 138.636719 214.597656 C 138.152344 215.148438 135.019531 216.828125 133.742188 217.261719 C 133.378906 217.355469 133.308594 217.667969 133.308594 218.820312 L 133.308594 220.261719 L 134.464844 220.382812 C 137.214844 220.71875 140.15625 221.269531 140.734375 221.582031 L 141.386719 221.917969 L 140.421875 222.109375 C 139.578125 222.253906 136.128906 221.992188 133.621094 221.558594 C 132.945312 221.460938 132.824219 221.535156 132.464844 222.230469 C 132.222656 222.6875 131.789062 223.335938 131.453125 223.671875 L 130.871094 224.296875 L 132.753906 225.28125 C 136.949219 227.441406 140.925781 228.59375 145 228.832031 C 150.210938 229.144531 153.078125 227.753906 153.078125 224.917969 C 153.078125 224.320312 152.886719 222.925781 152.667969 221.796875 C 152.28125 219.878906 152.308594 219.519531 152.691406 215.628906 C 153.128906 211.355469 153.054688 210.082031 152.234375 208.523438 C 151.730469 207.5625 150.113281 206.242188 149.003906 205.929688 C 147.75 205.546875 144.375 205.59375 142.613281 206.027344 Z M 142.613281 206.027344 "/>
<path style=" stroke:none;fill-rule:nonzero;fill:rgb(59.607843%,16.862745%,24.313725%);fill-opacity:1;" d="M 123.179688 211.859375 C 121.300781 212.460938 119.660156 213.949219 118.792969 215.84375 C 118.382812 216.757812 118.261719 217.453125 118.261719 218.726562 C 118.285156 220.765625 118.746094 221.871094 120.191406 223.40625 C 123.953125 227.414062 130.726562 225.832031 132.246094 220.574219 C 133.1875 217.382812 131.667969 213.875 128.679688 212.339844 C 127.570312 211.761719 124.339844 211.476562 123.179688 211.859375 Z M 123.179688 211.859375 "/>
<path style=" stroke:none;fill-rule:nonzero;fill:rgb(59.607843%,16.862745%,24.313725%);fill-opacity:1;" d="M 118.695312 225.449219 C 116.984375 226.574219 113.828125 227.847656 110.835938 228.59375 C 109.488281 228.953125 108.207031 229.335938 108.039062 229.480469 C 107.460938 229.9375 105.507812 233.296875 104.59375 235.386719 C 104.109375 236.539062 103.410156 238.507812 103.074219 239.753906 C 102.445312 242.011719 102.011719 244.773438 102.277344 244.773438 C 102.351562 244.773438 104.519531 243.691406 107.125 242.371094 C 109.703125 241.050781 112.089844 239.972656 112.429688 239.972656 C 113.753906 239.972656 114.550781 242.78125 114.597656 247.679688 L 114.621094 250.964844 L 115.226562 250.65625 C 116.070312 250.222656 118.3125 247.796875 119.492188 246.09375 C 121.757812 242.757812 124.171875 237.042969 124.988281 233.082031 C 125.207031 232.074219 125.398438 231.183594 125.449219 231.160156 C 125.472656 231.113281 125.640625 231.808594 125.808594 232.722656 C 127.039062 239.445312 132.199219 248.972656 135.574219 250.703125 L 136.273438 251.0625 L 136.128906 249.765625 C 135.9375 248.109375 136.320312 243.882812 136.828125 242.132812 C 137.261719 240.644531 137.746094 239.972656 138.417969 239.972656 C 138.683594 239.972656 141.097656 241.101562 143.820312 242.492188 L 148.738281 244.988281 L 148.59375 243.980469 C 147.847656 239.058594 146.160156 234.472656 143.628906 230.730469 L 142.664062 229.265625 L 140.710938 228.832031 C 137.984375 228.230469 134.007812 226.71875 132.199219 225.589844 L 130.679688 224.632812 L 129.28125 225.351562 C 127.59375 226.214844 125.617188 226.550781 124.097656 226.289062 C 122.941406 226.070312 120.867188 225.183594 120.625 224.824219 C 120.410156 224.464844 119.976562 224.605469 118.695312 225.449219 Z M 118.695312 225.449219 "/>
<path style=" stroke:none;fill-rule:nonzero;fill:rgb(59.607843%,16.862745%,24.313725%);fill-opacity:1;" d="M 98.949219 229.792969 C 95.695312 232.074219 91.886719 233.488281 88.921875 233.488281 C 87.882812 233.488281 87.015625 233.585938 87.015625 233.683594 C 87.015625 233.800781 87.351562 234.378906 87.738281 234.976562 C 88.605469 236.273438 89.933594 237.210938 91.164062 237.425781 C 93.742188 237.882812 98.757812 235.554688 105.074219 230.992188 L 107.125 229.527344 L 104.230469 229.382812 C 102.664062 229.289062 101.097656 229.167969 100.757812 229.097656 C 100.300781 228.976562 99.84375 229.167969 98.949219 229.792969 Z M 98.949219 229.792969 "/>
<path style=" stroke:none;fill-rule:nonzero;fill:rgb(59.607843%,16.862745%,24.313725%);fill-opacity:1;" d="M 150.089844 229.097656 C 150.015625 229.191406 148.523438 229.3125 146.785156 229.382812 L 143.628906 229.527344 L 145.988281 231.234375 C 151.703125 235.3125 156.285156 237.570312 158.914062 237.570312 C 159.734375 237.570312 161.203125 236.996094 161.855469 236.417969 C 162.480469 235.84375 163.6875 234.1875 163.6875 233.875 C 163.6875 233.707031 163.011719 233.609375 161.902344 233.585938 C 158.960938 233.539062 155.199219 232.144531 151.824219 229.863281 C 150.332031 228.855469 150.355469 228.855469 150.089844 229.097656 Z M 150.089844 229.097656 "/>
<path style="fill-rule:evenodd;fill:rgb(74.117647%,65.882353%,47.45098%);fill-opacity:1;stroke-width:0.5;stroke-linecap:butt;stroke-linejoin:miter;stroke:rgb(74.117647%,65.882353%,47.45098%);stroke-opacity:1;stroke-miterlimit:4;" d="M 381.59238 860.955366 C 381.59238 860.955366 382.751494 847.622323 381.424614 842.295194 C 381.424614 842.295194 376.254358 840.286106 366.58491 836.785421 C 366.58491 836.785421 373.920879 791.459163 328.761205 766.619522 C 328.761205 766.619522 321.089704 800.119553 340.260832 828.292455 C 340.260832 828.292455 328.425672 825.126619 315.751681 820.286541 C 315.751681 820.286541 320.418638 775.462556 282.594933 744.793513 C 282.594933 744.793513 269.585408 770.789903 293.59126 811.458728 C 293.59126 811.458728 277.424676 804.624782 262.584973 795.949172 C 262.584973 795.949172 271.430839 750.455491 236.42866 720.958416 C 236.42866 720.958416 225.432333 750.957763 241.751432 783.285825 C 241.751432 783.285825 230.755105 777.121576 209.921564 762.449141 C 209.921564 762.449141 216.754233 711.460906 189.759089 693.45521 C 189.759089 693.45521 183.429719 725.448425 191.757034 747.624502 C 191.757034 747.624502 184.421066 742.784425 170.084661 729.283958 C 170.084661 729.283958 177.42063 686.453841 154.75691 663.790712 C 154.75691 663.790712 145.590762 688.295505 153.094497 712.45023 C 153.094497 712.45023 143.592816 702.95272 132.764255 691.126494 C 132.764255 691.126494 144.263882 659.285483 116.262139 632.451973 C 116.262139 632.451973 109.765002 653.456082 114.264193 668.128517 C 114.264193 668.128517 107.431524 661.127148 100.75137 650.959941 C 100.75137 650.959941 107.095991 618.28181 92.59182 599.119366 C 92.59182 599.119366 84.432271 612.284985 85.255852 629.286137 L 75.754171 615.115974 C 75.754171 615.115974 85.759151 586.45602 71.926046 568.115476 C 71.926046 568.115476 62.592131 581.448518 64.254544 594.948985 L 57.421875 583.290183 C 57.421875 583.290183 68.753735 554.949857 54.92063 533.960969 C 54.92063 533.960969 45.922249 552.286292 46.425548 561.28153 L 41.423058 549.120456 C 41.423058 549.120456 52.754918 527.461871 40.584226 504.448674 C 40.584226 504.448674 34.254856 512.11974 32.089143 525.285359 C 32.089143 525.285359 30.51824 515.970493 30.914778 511.29784 C 31.997634 498.208323 26.873132 473.262139 13.756848 465.45409 C 13.756848 465.45409 3.553598 483.124938 20.72678 513.398251 C 23.334786 517.994802 24.143115 523.443694 26.598606 528.116347 C 26.598606 528.116347 14.763446 521.61725 0.427042 518.283989 C 0.427042 518.283989 12.7655 546.959163 34.590388 549.790152 L 44.595369 571.951008 C 44.595369 571.951008 22.25193 560.292206 8.922124 559.455086 C 8.922124 559.455086 17.584973 581.296315 54.585097 592.787693 C 54.585097 592.787693 59.587587 604.461716 61.097485 606.28816 C 61.097485 606.28816 31.265563 592.787693 21.596116 597.125498 C 21.596116 597.125498 34.758155 617.962183 70.599166 624.628704 L 83.090139 644.29342 C 83.090139 644.29342 62.592131 636.622354 35.429221 641.462432 C 35.429221 641.462432 64.254544 663.623288 95.093065 662.618744 C 95.093065 662.618744 111.427415 686.956113 113.593127 688.782557 C 113.593127 688.782557 78.087649 677.626027 61.921066 687.290961 C 61.921066 687.290961 85.591384 714.626743 123.262575 701.948176 C 123.262575 701.948176 142.586218 723.454557 146.597361 728.12721 C 146.597361 728.12721 108.758404 719.619024 91.26494 731.627895 C 91.26494 731.627895 106.424925 750.622915 159.7594 741.125405 C 159.7594 741.125405 178.259462 759.785576 184.924365 763.621109 C 184.924365 763.621109 144.919696 764.793078 132.260956 775.462556 C 132.260956 775.462556 153.597796 794.792424 203.256661 777.958696 C 203.256661 777.958696 218.919945 789.617499 226.759213 794.959848 C 226.759213 794.959848 187.42561 797.790837 172.265625 812.950324 C 172.265625 812.950324 203.75996 836.617997 253.098543 810.956455 C 253.098543 810.956455 270.92754 820.956238 277.424676 823.787226 C 277.424676 823.787226 239.753486 828.292455 228.086093 848.292019 C 228.086093 848.292019 264.765936 865.125747 310.093376 837.455117 L 333.428162 845.126183 C 333.428162 845.126183 301.430528 849.448767 278.599041 881.624626 C 278.599041 881.624626 308.59873 895.125093 359.584475 854.121421 Z M 381.59238 860.955366 " transform="matrix(0.256122,0,0,0.256646,0,0.000000000000014589)"/>
<path style="fill-rule:evenodd;fill:rgb(74.117647%,65.882353%,47.45098%);fill-opacity:1;stroke-width:0.5;stroke-linecap:butt;stroke-linejoin:miter;stroke:rgb(74.117647%,65.882353%,47.45098%);stroke-opacity:1;stroke-miterlimit:4;" d="M 597.995829 862.020792 C 597.995829 862.020792 596.821464 848.687749 598.163596 843.36062 C 598.163596 843.36062 603.318601 841.351531 612.988048 837.850847 C 612.988048 837.850847 605.652079 792.524589 650.827004 767.684948 C 650.827004 767.684948 658.498506 801.184979 639.327378 829.357881 C 639.327378 829.357881 651.162537 826.192044 663.821277 821.351967 C 663.821277 821.351967 659.15432 776.527982 696.993277 745.858939 C 696.993277 745.858939 709.98755 771.855329 685.99695 812.524153 C 685.99695 812.524153 702.163533 805.690208 716.987986 797.014598 C 716.987986 797.014598 708.157371 751.520916 743.159549 722.023842 C 743.159549 722.023842 754.155876 752.023188 737.821526 784.351251 C 737.821526 784.351251 748.817854 778.187002 769.651394 763.514567 C 769.651394 763.514567 762.818725 712.526332 789.829121 694.520636 C 789.829121 694.520636 796.158491 726.529071 787.831175 748.689928 C 787.831175 748.689928 795.151892 743.849851 809.488297 730.349384 C 809.488297 730.349384 802.152328 687.519267 824.8313 664.856138 C 824.8313 664.856138 833.997448 689.360931 826.493713 713.515656 C 826.493713 713.515656 835.995393 704.018146 846.823954 692.19192 C 846.823954 692.19192 835.324328 660.350909 863.326071 633.517399 C 863.326071 633.517399 869.823207 654.521508 865.324016 669.193943 C 865.324016 669.193943 872.156686 662.192573 878.821589 652.025367 C 878.821589 652.025367 872.492219 619.362456 886.996389 600.184792 C 886.996389 600.184792 895.155939 613.350411 894.317107 630.351562 L 903.818787 616.181399 C 903.818787 616.181399 893.829059 587.521445 907.662164 569.196122 C 907.662164 569.196122 916.996078 582.529165 915.318414 596.014411 L 922.151083 584.355609 C 922.151083 584.355609 910.819223 556.015283 924.652328 535.026394 C 924.652328 535.026394 933.65071 553.351718 933.162662 562.362176 L 938.165152 550.185881 C 938.165152 550.185881 926.81804 528.527297 938.988733 505.52932 C 938.988733 505.52932 945.318103 513.185166 947.483815 526.350784 C 947.483815 526.350784 949.054719 517.035919 948.673431 512.363266 C 947.590575 499.288969 952.715077 474.327565 965.831362 466.519516 C 965.831362 466.519516 976.034612 484.190364 958.861429 514.463677 C 956.253424 519.060228 955.445095 524.50912 952.989604 529.181773 C 952.989604 529.181773 964.824763 522.682676 979.161168 519.349415 C 979.161168 519.349415 966.822709 548.024589 944.997821 550.855578 L 934.992841 573.016434 C 934.992841 573.016434 957.321028 561.357632 970.650834 560.520512 C 970.650834 560.520512 961.987986 582.361741 924.987861 593.853119 C 924.987861 593.853119 919.985371 605.527141 918.490725 607.353586 C 918.490725 607.353586 948.322647 593.853119 957.992094 598.190924 C 957.992094 598.190924 944.830055 619.027608 908.989044 625.69413 L 896.49807 645.358846 C 896.49807 645.358846 916.996078 637.68778 944.158989 642.527857 C 944.158989 642.527857 915.318414 664.688714 884.495144 663.68417 C 884.495144 663.68417 868.160794 688.021539 865.995082 689.847983 C 865.995082 689.847983 901.485309 678.691453 917.651892 688.356387 C 917.651892 688.356387 893.996825 715.692169 856.325635 703.028822 C 856.325635 703.028822 836.986741 724.519983 832.990849 729.192636 C 832.990849 729.192636 870.829806 720.68445 888.323269 732.69332 C 888.323269 732.69332 873.163284 751.68834 819.82881 742.19083 C 819.82881 742.19083 801.328748 760.851002 794.663845 764.686535 C 794.663845 764.686535 834.653262 765.858503 847.327253 776.527982 C 847.327253 776.527982 825.990413 795.85785 776.331549 779.024122 C 776.331549 779.024122 760.653013 790.682925 752.828997 796.025274 C 752.828997 796.025274 792.1626 798.856262 807.322585 814.01575 C 807.322585 814.01575 775.82825 837.683423 726.489666 812.021881 C 726.489666 812.021881 708.66067 822.021663 702.163533 824.852652 C 702.163533 824.852652 739.819472 829.357881 751.486865 849.357445 C 751.486865 849.357445 714.822273 866.191173 669.494833 838.520543 L 646.160047 846.191609 C 646.160047 846.191609 678.157682 850.529414 700.989168 882.690052 C 700.989168 882.690052 670.98948 896.190519 619.988484 855.186846 Z M 597.995829 862.020792 " transform="matrix(0.256122,0,0,0.256646,0,0.000000000000014589)"/>
</g>
</svg>
