<?xml version="1.0" encoding="UTF-8" standalone="no"?>
<!-- Created with Inkscape (http://www.inkscape.org/) -->

<svg
   xmlns:dc="http://purl.org/dc/elements/1.1/"
   xmlns:cc="http://creativecommons.org/ns#"
   xmlns:rdf="http://www.w3.org/1999/02/22-rdf-syntax-ns#"
   xmlns:svg="http://www.w3.org/2000/svg"
   xmlns="http://www.w3.org/2000/svg"
   version="1.1"
   width="220.00693"
   height="220.00693"
   id="svg2">
  <defs
     id="defs4" />
  <metadata
     id="metadata7">
    <rdf:RDF>
      <cc:Work
         rdf:about="">
        <dc:format>image/svg+xml</dc:format>
        <dc:type
           rdf:resource="http://purl.org/dc/dcmitype/StillImage" />
        <dc:title></dc:title>
      </cc:Work>
    </rdf:RDF>
  </metadata>
  <g
     transform="translate(-268.85178,-543.36488)"
     id="layer1">
    <g
       transform="matrix(0.89376535,0,0,0.89376535,38.316685,536.04768)"
       id="g3069"
       style="fill-rule:evenodd">
      <g
         id="g3049">
        <g
           id="g3051">
          <path
             d="m 381.012,13.8886 c 64.786,0 117.373,52.5864 117.373,117.3724 0,64.786 -52.587,117.372 -117.373,117.372 -64.786,0 -117.372,-52.586 -117.372,-117.372 0,-64.786 52.586,-117.3724 117.372,-117.3724 z"
             id="path3053"
             style="fill:#e21c2a;stroke:#e21c2a;stroke-width:0.21600001" />
          <path
             d="m 381.012,17.6315 c 62.745,0 113.63,50.8842 113.63,113.6295 0,62.745 -50.885,113.629 -113.63,113.629 -62.745,0 -113.629,-50.884 -113.629,-113.629 0,-62.7453 50.884,-113.6295 113.629,-113.6295 z m 0,7.8338 c 58.419,0 105.796,47.3758 105.796,105.7957 0,58.419 -47.377,105.796 -105.796,105.796 -58.42,0 -105.795,-47.377 -105.795,-105.796 0,-58.4199 47.375,-105.7957 105.795,-105.7957 z"
             id="path3055"
             style="fill:#fcce02;stroke:#fcce02;stroke-width:0.21600001" />
          <path
             d="m 297.115,140.664 c 5.335,0 9.665,4.33 9.665,9.665 0,5.335 -4.33,9.665 -9.665,9.665 -5.334,0 -9.664,-4.33 -9.664,-9.665 0,-5.335 4.33,-9.665 9.664,-9.665 z"
             id="path3057"
             style="fill:#fcce02;stroke:#e21c2a;stroke-width:0.21600001" />
          <path
             d="m 391.483,30.9592 c 3.428,0 6.209,2.7807 6.209,6.209 0,3.4285 -2.781,6.2092 -6.209,6.2092 -9.46,0 -18.839,-6.8717 -29.894,-4.3296 -14.6,3.358 -22.076,10.3028 -27.26,20.3397 -0.94,4.5414 0.31,7.4098 3.827,9.2821 7.389,3.9331 8.928,-7.5748 8.256,-8.6219 7.016,2.0943 4.877,13.9348 -3.094,15.9534 1.07,18.2296 -24.562,19.2693 -24.562,8.187 0,-3.1495 2.555,-5.7038 5.704,-5.7038 3.15,0 6.244,2.601 5.704,5.7038 -0.745,4.2775 3.823,2.6657 5.356,-4.7917 -0.178,-6.4031 -5.163,-7.8153 -10.18,-6.9596 -19.204,2.192 -23.672,21.8141 -14.79,33.6382 4.16,4.179 11.83,4.101 16.793,0.29 23.34,-17.9176 29.945,-40.8181 56.12,-55.9384 6.855,-3.9597 19.664,-6.6637 28.292,-6.4082 94.9,9.2188 98.676,177.1926 -22.619,185.2996 -9.845,0.611 -18.635,-1.996 -26.721,-6.613 -14.537,-8.303 -24.91,-23.57 -28.376,-22.965 -14.693,2.566 -4.264,12.159 -4.009,10.592 0.423,-2.6 2.135,-4.77 4.77,-4.77 2.635,0 4.77,2.136 4.77,4.77 0,2.635 -2.135,4.77 -4.77,4.77 l 0,0 c -6.041,1.731 -19.691,-4.865 -10.04,-16.522 -4.347,-3.722 -5.968,-6.935 -5.403,-11.628 0.252,-2.093 2.488,-3.82 4.597,-3.82 2.109,0 3.821,1.712 3.821,3.82 0,2.109 -1.712,3.821 -3.821,3.821 -0.681,0 -1.32,-0.18 -1.874,-0.492 2.173,2.875 6.434,4.554 10.509,1.919 6.098,-15.142 1.043,-24.928 -5.606,-33.734 -0.722,-1.103 -3.448,-3.822 -7.153,-5.249 -2.785,-1.073 -6.017,1.278 -4.347,1.652 2,0.448 3.714,1.664 3.714,3.713 0,2.05 -1.664,3.714 -3.714,3.714 -7.081,0 -6.394,-14.382 3.187,-14.27 -0.389,-15.888 18.876,-15.722 18.876,-1.643 0,1.989 -1.614,3.604 -3.603,3.604 -1.99,0 -3.604,-1.615 -3.604,-3.604 0,-1.99 1.614,-3.604 3.604,-3.604 2.334,0 -8.448,-7.66 -9.183,1.864 0.741,3.657 2.609,6.911 6.959,9.279 5.934,-1.35 11.476,-1.654 16.556,-0.729 3.431,-5.047 7.122,-8.726 10.993,-11.462 l 0,-27.652 -7.25,-0.174 7.25,-3.119 0,-13.5766 c -7.94,9.2576 -15.773,18.3646 -23.779,24.2346 -6.81,4.993 -15.526,5.306 -24.359,2.61 -6.548,-2.313 -11.862,-6.391 -15.369,-13.049 -10.894,-23.9426 -0.056,-48.2822 27.839,-53.0674 5.625,-14.9207 17.026,-22.9521 37.429,-25.268 8.703,-0.8269 14.778,1.2846 24.263,4.9745 -0.012,-0.1573 -0.018,-0.3155 -0.018,-0.4759 0,-3.4283 2.78,-6.209 6.209,-6.209 z m 56.756,118.8118 c 2.256,0 4.277,1.007 5.638,2.597 5.229,-16.711 6.077,-34.707 1.364,-50.115 l -20.946,0 c 0.033,9.164 0.286,18.305 1.819,27.311 0.209,1.229 0.442,2.422 0.7,3.578 2.918,-5.56 5.762,-11.345 8.579,-17.208 3.673,2.997 7.346,5.993 11.02,8.99 -4.45,8.118 -9.399,15.28 -14.795,21.658 0.853,1.588 1.764,3.02 2.721,4.295 1.134,-0.701 2.469,-1.106 3.9,-1.106 z m -52.359,3.762 3.631,0 c 4.33,-2.859 8.621,-8.115 8.714,-12.807 l 0.247,-12.335 -5.745,0.103 c -0.422,5.199 -1.143,10.343 -2.525,15.367 -0.518,1.88 -2.099,5.479 -4.322,9.672 z m 2.165,3.987 -4.376,0 c -5.736,9.91 -14.015,21.062 -20.192,21.051 10.089,15.239 27.94,13.636 35.166,1.09 -0.883,0.765 -2.033,1.229 -3.292,1.229 -2.775,0 -5.027,-2.251 -5.027,-5.027 0,-2.776 2.261,-5.255 5.027,-5.027 1.356,0.111 2.459,0.493 3.328,1.078 6.903,-5.592 13.073,-13.384 18.816,-22.457 -2.494,-6.072 -4.278,-13.098 -5.208,-21.098 l -3.673,0.032 c 0,6.724 0.303,15.568 -1.832,21.944 -3.107,9.279 -10.244,12.216 -16.128,15.168 -1.928,-3.213 -2.185,-5.622 -2.609,-7.983 z m 4.972,-33.378 10.372,-6.299 8.314,4.598 c -0.572,-6.713 -0.866,-13.447 -1.059,-20.188 l -16.635,0 c -0.592,7.249 -0.598,14.604 -0.992,21.889 z m 28.387,33.137 c -6.599,6.13 -13.718,11.412 -21.285,16.086 10.983,9.917 -12.517,33.779 -47.081,19.705 9.118,11.139 16.502,14.14 26.835,14.433 23.924,0.679 43.457,-14.633 55.449,-35.501 -5.418,-3.546 -10.141,-8.443 -13.918,-14.723 z m 3.614,-59.7275 8.275,-7.5226 8.65,7.5226 1.636,0 c -6.856,-17.2939 -21.422,-30.524 -45.594,-33.5242 -14.03,-2.1906 -26.621,8.5076 -38.71,21.7488 l 3.912,0 0,19.0239 5.8,-2.495 9.279,12.47 -15.079,-0.362 0,21.004 c 4.191,-1.119 8.471,-1.77 12.759,-2.373 l -22.91,27.684 c 2.082,1.975 4.019,4.338 5.801,7.114 8.626,2.946 12.887,-1.379 11.616,-7.052 -0.885,1.145 -2.269,1.884 -3.827,1.884 -2.667,0 -4.832,-2.165 -4.832,-4.832 0,-2.667 2.165,-4.832 4.832,-4.832 4.591,0 6.758,3.304 7.188,7.537 3.094,-3.416 5.857,-9.801 6.386,-18.208 1.011,-16.057 -0.29,-32.177 -0.435,-48.2662 l 7.175,3.4787 23.584,0 c -0.195,-8.4702 -0.295,-16.9466 -0.649,-25.4046 4.736,2.6098 9.472,5.2197 14.209,7.8295 0.239,5.8411 0.215,11.7082 0.208,17.5751 l 0.726,0 z M 334.8,215.102 l 0,0"
             id="path3059"
             style="fill:#fcce02;stroke:#e21c2a;stroke-width:0.21600001" />
          <path
             d="m 451.087,66.0138 c 4.748,0 8.6,3.8514 8.6,8.5997 0,4.7481 -3.852,8.5995 -8.6,8.5995 -4.748,0 -8.6,-3.8514 -8.6,-8.5995 0,-4.7483 3.852,-8.5997 8.6,-8.5997 z m 0,2.8434 c 3.178,0 5.756,2.5782 5.756,5.7563 0,3.1782 -2.578,5.7561 -5.756,5.7561 -3.178,0 -5.756,-2.5779 -5.756,-5.7561 0,-3.1781 2.578,-5.7563 5.756,-5.7563 z"
             id="path3061"
             style="fill:#e21c2a;stroke:#e21c2a;stroke-width:0.21600001" />
        </g>
      </g>
    </g>
  </g>
</svg>
