<?xml version="1.0" encoding="UTF-8" standalone="no"?>
<!-- Created with Inkscape (http://www.inkscape.org/) -->

<svg
   xmlns:dc="http://purl.org/dc/elements/1.1/"
   xmlns:cc="http://creativecommons.org/ns#"
   xmlns:rdf="http://www.w3.org/1999/02/22-rdf-syntax-ns#"
   xmlns:svg="http://www.w3.org/2000/svg"
   xmlns="http://www.w3.org/2000/svg"
   version="1.1"
   width="220"
   height="220.00035"
   id="svg4159">
  <defs
     id="defs4161" />
  <metadata
     id="metadata4164">
    <rdf:RDF>
      <cc:Work
         rdf:about="">
        <dc:format>image/svg+xml</dc:format>
        <dc:type
           rdf:resource="http://purl.org/dc/dcmitype/StillImage" />
        <dc:title></dc:title>
      </cc:Work>
    </rdf:RDF>
  </metadata>
  <g
     transform="translate(-299.39304,-360.02236)"
     id="layer1">
    <g
       transform="matrix(3.2721621,0,0,3.2721621,-1576.6908,-1218.9536)"
       id="g31247"
       style="fill:#087a01;fill-opacity:1">
      <g
         transform="matrix(1.25,0,0,-1.25,585.30002,492.36692)"
         id="g29446"
         style="fill:#087a01;fill-opacity:1">
        <path
           d="m 0,0 11.407,-6.562 c 0.005,1.458 0,11.959 0,12.602 0.604,0.047 3.611,0.349 4.494,0.512 l 0,-20.003 C 14.949,-12.963 -2.811,-3.159 -2.811,-3.159 L 0,0 z"
           id="path29448"
           style="fill:#087a01;fill-opacity:1;fill-rule:nonzero;stroke:none" />
      </g>
      <g
         transform="matrix(1.25,0,0,-1.25,578.94027,531.5123)"
         id="g29450"
         style="fill:#087a01;fill-opacity:1">
        <path
           d="M 0,0 -1.719,3.67 22.303,14.636 46.58,3.647 45.047,-0.14 22.261,10.186 0,0 z"
           id="path29452"
           style="fill:#087a01;fill-opacity:1;fill-rule:nonzero;stroke:none" />
      </g>
      <g
         transform="matrix(1.25,0,0,-1.25,593.22777,544.98679)"
         id="g29454"
         style="fill:#087a01;fill-opacity:1">
        <path
           d="M 0,0 -3.856,2.207 11.128,9.037 26.136,2.416 22.349,0.139 11.412,5.13 0,0 z"
           id="path29456"
           style="fill:#087a01;fill-opacity:1;fill-rule:nonzero;stroke:none" />
      </g>
      <g
         transform="matrix(1.25,0,0,-1.25,584.42877,538.71417)"
         id="g29458"
         style="fill:#087a01;fill-opacity:1">
        <path
           d="M 0,0 -2.579,2.857 18.353,12.034 38.89,3.113 36.311,0.047 18.299,8.002 0,0 z"
           id="path29460"
           style="fill:#087a01;fill-opacity:1;fill-rule:nonzero;stroke:none" />
      </g>
      <g
         transform="matrix(1.25,0,0,-1.25,605.16314,548.18117)"
         id="g29462"
         style="fill:#087a01;fill-opacity:1">
        <path
           d="M 0,0 -4.925,0.836 1.673,4.112 8.689,0.906 3.229,0 1.607,0.6 0,0 z"
           id="path29464"
           style="fill:#087a01;fill-opacity:1;fill-rule:nonzero;stroke:none" />
      </g>
      <g
         transform="matrix(1.25,0,0,-1.25,639.05264,517.83467)"
         id="g29466"
         style="fill:#087a01;fill-opacity:1">
        <path
           d="M 0,0 -0.488,-3.903 -21.015,5.391 -3.88,14.613 -1.835,11.244 -12.876,5.631 0,0 z"
           id="path29468"
           style="fill:#087a01;fill-opacity:1;fill-rule:nonzero;stroke:none" />
      </g>
      <g
         transform="matrix(1.25,0,0,-1.25,574.87489,517.1958)"
         id="g29470"
         style="fill:#087a01;fill-opacity:1">
        <path
           d="m 0,0 12.111,4.988 c -0.894,0.456 -7.743,4.003 -10.322,5.351 0.279,0.487 0.557,1.045 0.859,1.602 0.302,0.581 0.674,1.255 0.999,1.998 C 6.668,12.336 18.26,6.226 21.048,4.786 20.235,4.368 0.557,-4.298 0.557,-4.298 L 0,0 z"
           id="path29472"
           style="fill:#087a01;fill-opacity:1;fill-rule:nonzero;stroke:none" />
      </g>
      <g
         transform="matrix(1.25,0,0,-1.25,629.0339,492.97667)"
         id="g29474"
         style="fill:#087a01;fill-opacity:1">
        <path
           d="m 0,0 2.672,-2.765 -18.575,-10.198 0,20.025 4.215,-0.58 0,-12.844 L 0,0 z"
           id="path29476"
           style="fill:#087a01;fill-opacity:1;fill-rule:nonzero;stroke:none" />
      </g>
    </g>
  </g>
</svg>
