<?xml version="1.0" encoding="UTF-8" standalone="no"?>
<!-- Created with Inkscape (http://www.inkscape.org/) -->
<svg xmlns:rdf="http://www.w3.org/1999/02/22-rdf-syntax-ns#" xmlns="http://www.w3.org/2000/svg" height="220" width="220" version="1.1" xmlns:cc="http://creativecommons.org/ns#" xmlns:dc="http://purl.org/dc/elements/1.1/">
<defs>
<clipPath id="clipPath271915" clipPathUnits="userSpaceOnUse">
<path d="m0,1190.6,841.89,0v-1190.6h-841.89v1190.6z"/>
</clipPath>
</defs>
<metadata>
<rdf:RDF>
<cc:Work rdf:about="">
<dc:format>image/svg+xml</dc:format>
<dc:type rdf:resource="http://purl.org/dc/dcmitype/StillImage"/>
<dc:title/>
</cc:Work>
</rdf:RDF>
</metadata>
<g transform="translate(0,-832.36218)">
<g transform="matrix(6.1802596,0,0,-6.1802596,-502.49494,7994.0671)">
<g clip-path="url(#clipPath271915)">
<g transform="translate(94.4697,1154.7002)">
<path fill-rule="nonzero" fill="#00a0e9" d="m0,0,3.277,0.012,0-1.55-4.097-4.066,1.715-1.71,3.741,3.717,3.741-3.717,1.715,1.71-4.091,4.066,0,1.55l3.275-0.012,0.913,2.475-11.095,0.01,0.906-2.485z"/>
</g>
<g transform="translate(112.8018,1145.6396)">
<path fill-rule="nonzero" fill="#00a0e9" d="m0,0,0.015-3.271-1.556,0-4.058,4.095-1.709-1.725,3.706-3.738-3.706-3.738,1.709-1.717,4.058,4.096,1.556,0l-0.015-3.28,2.476-0.92,0.007,11.096-2.483-0.898z"/>
</g>
<g transform="translate(104.1719,1146.0718)">
<path fill-rule="nonzero" fill="#00a0e9" d="m0,0,0.841-0.837,4.306,4.282,3.22-3.222,2.478,0.898-4.861,4.867-0.002,0l-4.857,4.858-0.914-2.469,3.229-3.231-4.271-4.308,0.831-0.838z"/>
</g>
<g transform="translate(103.7461,1127.3071)">
<path fill-rule="nonzero" fill="#00a0e9" d="m0,0-3.275-0.015,0,1.553,4.09,4.069-1.714,1.701-3.742-3.709-3.741,3.709-1.715-1.701,4.098-4.069,0-1.553l-3.277,0.015-0.921-2.478,11.1-0.005-0.903,2.483z"/>
</g>
<g transform="translate(104.1719,1135.9375)">
<path fill-rule="nonzero" fill="#00a0e9" d="m0,0-0.831-0.847,4.271-4.308-3.22-3.217,0.905-2.473,4.857,4.858,0.002,0,4.861,4.859l-2.466,0.916-3.232-3.233-4.306,4.275-0.841-0.83z"/>
</g>
<g transform="translate(94.0371,1146.0718)">
<path fill-rule="nonzero" fill="#00a0e9" d="M0,0,0.832,0.838-3.44,5.146-0.219,8.372-1.125,10.84-5.983,5.988-10.845,1.121-8.375,0.213-5.146,3.445-0.838-0.837,0,0z"/>
</g>
<g transform="translate(85.4043,1136.3613)">
<path fill-rule="nonzero" fill="#00a0e9" d="m0,0-0.007,3.28,1.55,0,4.061-4.095,1.71,1.716-3.708,3.738,3.708,3.738-1.71,1.726-4.061-4.096-1.55,0l0.007,3.271-2.474,0.923-0.005-11.099,2.479,0.898z"/>
</g>
<g transform="translate(94.0371,1135.9375)">
<path fill-rule="nonzero" fill="#00a0e9" d="m0,0-0.838,0.83-4.308-4.275-3.225,3.224-2.474-0.907,4.862-4.859,4.858-4.865,0.916,2.466-3.231,3.231,4.272,4.308l-0.832,0.847z"/>
</g>
</g>
</g>
</g>
</svg>
