<?xml version="1.0" encoding="UTF-8" standalone="no"?>
<!-- Created with Inkscape (http://www.inkscape.org/) -->

<svg
   xmlns:dc="http://purl.org/dc/elements/1.1/"
   xmlns:cc="http://creativecommons.org/ns#"
   xmlns:rdf="http://www.w3.org/1999/02/22-rdf-syntax-ns#"
   xmlns:svg="http://www.w3.org/2000/svg"
   xmlns="http://www.w3.org/2000/svg"
   version="1.1"
   width="220"
   height="220.00035"
   id="svg4159">
  <defs
     id="defs4161" />
  <metadata
     id="metadata4164">
    <rdf:RDF>
      <cc:Work
         rdf:about="">
        <dc:format>image/svg+xml</dc:format>
        <dc:type
           rdf:resource="http://purl.org/dc/dcmitype/StillImage" />
        <dc:title></dc:title>
      </cc:Work>
    </rdf:RDF>
  </metadata>
  <g
     transform="translate(-299.39304,-360.02236)"
     id="layer1">
    <g
       transform="translate(-59.768702,59.713866)"
       id="g27403"
       style="fill:#00baa3;fill-opacity:1">
      <g
         transform="matrix(7.5222982,0,0,-7.5222982,401.81536,394.51861)"
         id="g22483"
         style="fill:#00baa3;fill-opacity:1">
        <path
           d="m 0,0 0,-1.487 5.854,0 0,5.806 -1.487,0 L 4.367,0 0,0 z"
           id="path22485"
           style="fill:#00baa3;fill-opacity:1;fill-rule:nonzero;stroke:none" />
      </g>
      <g
         transform="matrix(7.5222982,0,0,-7.5222982,493.26545,362.0268)"
         id="g22487"
         style="fill:#00baa3;fill-opacity:1">
        <path
           d="m 0,0 0,-5.806 5.856,0 0,1.487 -4.369,0 L 1.487,0 0,0 z"
           id="path22489"
           style="fill:#00baa3;fill-opacity:1;fill-rule:nonzero;stroke:none" />
      </g>
      <g
         transform="matrix(7.5222982,0,0,-7.5222982,541.80834,347.99621)"
         id="g22499"
         style="fill:#00baa3;fill-opacity:1">
        <path
           d="m 0,0 0,-16.642 c 0,-0.907 -0.734,-1.643 -1.642,-1.643 l -3.324,0 0,8.176 4.369,0 0,1.487 -5.856,0 0,-11.197 6.05,0 c 1.046,0 1.893,0.85 1.893,1.898 l 0,19.2 c 0,1.048 -0.847,1.896 -1.893,1.896 l -18.577,0 c -1.048,0 -1.896,-0.848 -1.896,-1.896 l 0,-19.2 c 0,-1.048 0.848,-1.898 1.896,-1.898 l 6.224,0 0,0.035 0,11.162 -5.854,0 0,-1.487 4.367,0 0,-8.176 -3.499,0 c -0.906,0 -1.644,0.736 -1.644,1.643 l 0,16.642 c 0,0.907 0.738,1.643 1.644,1.643 l 16.1,0 C -0.734,1.643 0,0.907 0,0"
           id="path22501"
           style="fill:#00baa3;fill-opacity:1;fill-rule:nonzero;stroke:none" />
      </g>
      <g
         transform="matrix(7.5222982,0,0,-7.5222982,545.8779,305.30867)"
         id="g22503"
         style="fill:#00baa3;fill-opacity:1">
        <path
           d="m 0,0 -20.397,0 c -1.89,0 -3.424,-1.532 -3.424,-3.422 l 0,-21.077 c 0,-1.886 1.534,-3.418 3.424,-3.418 l 9.424,0 0,20.377 -1.478,0 0,-18.984 -6.929,0 c -1.7,0 -3.08,1.378 -3.08,3.077 l 0,18.97 c 0,1.702 1.38,3.082 3.08,3.082 l 18.363,0 c 1.703,0 3.081,-1.38 3.081,-3.082 l 0,-18.97 c 0,-1.699 -1.378,-3.077 -3.081,-3.077 l -6.918,0 0,18.984 -1.478,0 0,-20.377 9.413,0 c 1.89,0 3.424,1.532 3.424,3.418 l 0,21.077 C 3.424,-1.532 1.89,0 0,0"
           id="path22505"
           style="fill:#00baa3;fill-opacity:1;fill-rule:nonzero;stroke:none" />
      </g>
    </g>
  </g>
</svg>
