<?xml version="1.0" encoding="UTF-8" standalone="no"?>
<!-- Created with Inkscape (http://www.inkscape.org/) -->

<svg
   xmlns:dc="http://purl.org/dc/elements/1.1/"
   xmlns:cc="http://creativecommons.org/ns#"
   xmlns:rdf="http://www.w3.org/1999/02/22-rdf-syntax-ns#"
   xmlns:svg="http://www.w3.org/2000/svg"
   xmlns="http://www.w3.org/2000/svg"
   version="1.1"
   width="220"
   height="220"
   id="svg4159">
  <defs
     id="defs4161" />
  <metadata
     id="metadata4164">
    <rdf:RDF>
      <cc:Work
         rdf:about="">
        <dc:format>image/svg+xml</dc:format>
        <dc:type
           rdf:resource="http://purl.org/dc/dcmitype/StillImage" />
        <dc:title></dc:title>
      </cc:Work>
    </rdf:RDF>
  </metadata>
  <g
     transform="translate(-260.35017,-483.0255)"
     id="layer1">
    <g
       transform="translate(-1.3485845e-6,-2.489275)"
       id="g4176">
      <path
         d="m 292.87209,610.9924 -27.33419,-0.17993 0.20212,-30.06312 27.32669,0.17993 -0.19492,30.06312"
         id="path4061"
         style="fill:#00652e;fill-opacity:1;fill-rule:nonzero;stroke:none" />
      <path
         d="m 386.9374,611.94452 -0.9971,54.87081 59.9238,0.09 0.35986,-7.24963 -29.3284,-0.19492 c -18.28527,-0.44983 -20.03958,-20.32447 -20.03958,-20.32447 l -0.45762,-27.12427 -9.46126,-0.0678 z m -42.88305,0.03 -0.82467,27.11678 c 0,0 -2.0167,19.84465 -20.30947,20.04707 l -29.32841,-0.20272 0.2621,7.25713 59.91631,0.71972 -0.26209,-54.87081 -9.45377,-0.0678 z m -50.49253,-41.12874 -27.76153,-0.19492 0.41204,-59.49648 c 0,0 4.3033,-14.6792 19.45481,-18.15033 l 93.98284,0.41984 69.79741,0.68223 c 0,0 26.0372,4.8056 25.90226,25.61737 l -1.2745,156.41066 c 0,0 -3.50861,21.83887 -27.68655,21.89135 l -102.60444,-0.68973 -55.92039,-0.17213 c 0,0 -22.47611,-2.88636 -22.5136,-27.48413 l 0.12775,-50.67247 27.11678,0.39704 0.14994,9.67118 18.91502,-0.0822 c 0,0 4.64067,-0.80218 4.67066,-6.0576 l -0.12715,-11.56793 -15.56385,-0.10496 0,-30.07061 53.39389,0.35986 0.33767,-49.61539 32.37969,0.21712 0.09,49.61538 52.3443,0.57697 0,29.8457 -14.71668,0.32987 -0.075,11.98027 c 0,0 1.0121,5.26292 6.26752,5.71274 l 16.60594,-0.0978 0.19492,-105.43832 -22.71602,-0.14994 -0.12775,19.2374 c 0,0 2.81139,4.75312 7.8494,4.78311 l 7.56451,0.054 -0.14274,22.07128 -20.18202,-0.44982 c 0,0 -20.48191,-1.40195 -20.35446,-22.84347 l -0.46481,-23.97552 -55.18569,-0.054 -0.16493,24.2829 c 0,0 -1.70933,20.80427 -17.80546,22.26619 l -24.59778,0.14994 0.14275,-23.33077 11.3655,-0.2471 c 0,0 4.73063,0.98211 4.79061,-8.15678 l 0.40484,-14.82164 -24.59778,-0.16493 0.32208,47.51621"
         id="path4063"
         style="fill:#00652e;fill-opacity:1;fill-rule:nonzero;stroke:none" />
    </g>
  </g>
</svg>
