<?xml version="1.0" encoding="UTF-8" standalone="no"?>
<!-- Created with Inkscape (http://www.inkscape.org/) -->

<svg
   xmlns:dc="http://purl.org/dc/elements/1.1/"
   xmlns:cc="http://creativecommons.org/ns#"
   xmlns:rdf="http://www.w3.org/1999/02/22-rdf-syntax-ns#"
   xmlns:svg="http://www.w3.org/2000/svg"
   xmlns="http://www.w3.org/2000/svg"
   version="1.1"
   width="220"
   height="220"
   id="svg2">
  <defs
     id="defs4">
    <clipPath
       id="clipPath3013">
      <path
         d="m 59.528,172.803 121.89,0 0,119.276 -121.89,0 0,-119.276 z"
         id="path3015" />
    </clipPath>
  </defs>
  <metadata
     id="metadata7">
    <rdf:RDF>
      <cc:Work
         rdf:about="">
        <dc:format>image/svg+xml</dc:format>
        <dc:type
           rdf:resource="http://purl.org/dc/dcmitype/StillImage" />
        <dc:title></dc:title>
      </cc:Work>
    </rdf:RDF>
  </metadata>
  <g
     transform="translate(0,-832.36218)"
     id="layer1">
    <g
       transform="matrix(1.7228698,0,0,-1.7228698,-97.558992,1342.8279)"
       id="g3009">
      <g
         clip-path="url(#clipPath3013)"
         id="g3011">
        <g
           transform="matrix(2.866684,0,0,-2.8050995,62.915527,660.27417)"
           id="g3017">
          <g
             transform="translate(24.7034,141.4617)"
             id="g3019">
            <path
               d="m 0,0 c 0.223,4.052 0.463,4.707 2.12,4.774 1.234,0.048 10.082,0.025 14.514,0.009 l 0,-8.606 c 0,-3.523 -2.855,-6.38 -6.379,-6.38 l -7.697,0 C 1.797,-8.253 -0.163,-2.893 0,0"
               id="path3021"
               style="fill:#00a650;fill-opacity:1;fill-rule:nonzero;stroke:none" />
          </g>
        </g>
        <g
           transform="matrix(2.866684,0,0,-2.8050995,62.915527,660.27417)"
           id="g3023">
          <g
             transform="translate(17.2561,151.3406)"
             id="g3025">
            <path
               d="m 0,0 c -4.825,-10.307 -0.721,-17.796 0.847,-20.082 l -2.439,0 c -3.536,5.674 -3.084,12.557 -2.12,15.641 0.993,3.181 -0.132,3.977 -0.929,4.043 -3.38,0.398 -3.879,-5.765 -3.712,-9.876 0.157,-3.802 1.905,-8.123 2.647,-9.808 l -6.354,0 c -3.522,0 -6.378,2.857 -6.378,6.38 l 0,16.816 13.334,0 c 0,0 4.972,-0.662 5.898,3.116 0.91,3.699 1.868,9.62 -2.005,16.209 l 1.715,0 C 4.293,15.302 5.014,10.709 0,0"
               id="path3027"
               style="fill:#00a650;fill-opacity:1;fill-rule:nonzero;stroke:none" />
          </g>
        </g>
        <g
           transform="matrix(2.866684,0,0,-2.8050995,62.915527,660.27417)"
           id="g3029">
          <g
             transform="translate(14.9358,163.2717)"
             id="g3031">
            <path
               d="M 0,0 C -0.224,-4.052 -0.463,-4.705 -2.12,-4.772 -3.308,-4.821 -11.549,-4.8 -16.118,-4.784 l 0,8.914 c 0,3.522 2.857,6.378 6.378,6.378 l 7.062,0 C -2.038,8.89 0.17,3.063 0,0"
               id="path3033"
               style="fill:#00a650;fill-opacity:1;fill-rule:nonzero;stroke:none" />
          </g>
        </g>
        <g
           transform="matrix(2.866684,0,0,-2.8050995,62.915527,660.27417)"
           id="g3035">
          <g
             transform="translate(21.5877,147.1643)"
             id="g3037">
            <path
               d="m 0,0 c -0.894,-3.643 -1.835,-9.438 1.831,-15.905 l -1.563,0 C -5.136,-6.375 -1.868,0.716 0.243,5.37 5.937,14.585 1.651,24.474 0.595,26.616 l 1.722,0 C 5.874,20.938 5.421,14.036 4.456,10.948 3.461,7.765 4.588,6.971 5.382,6.904 8.762,6.505 9.263,12.668 9.093,16.78 8.938,20.603 7.171,24.954 6.435,26.616 l 6.936,0 c 3.524,0 6.379,-2.857 6.379,-6.378 l 0,-17.124 -13.851,0 C 5.899,3.114 0.929,3.776 0,0"
               id="path3039"
               style="fill:#00a650;fill-opacity:1;fill-rule:nonzero;stroke:none" />
          </g>
        </g>
      </g>
    </g>
  </g>
</svg>
