<?xml version="1.0" encoding="UTF-8" standalone="no"?>
<!-- Created with Inkscape (http://www.inkscape.org/) -->

<svg
   xmlns:dc="http://purl.org/dc/elements/1.1/"
   xmlns:cc="http://creativecommons.org/ns#"
   xmlns:rdf="http://www.w3.org/1999/02/22-rdf-syntax-ns#"
   xmlns:svg="http://www.w3.org/2000/svg"
   xmlns="http://www.w3.org/2000/svg"
   version="1.1"
   width="220"
   height="220"
   id="svg3010">
  <defs
     id="defs3012">
    <clipPath
       id="clipPath3032">
      <path
         d="m 0,595.275 841.89,0 L 841.89,0 0,0 0,595.275 z"
         id="path3034" />
    </clipPath>
  </defs>
  <metadata
     id="metadata3015">
    <rdf:RDF>
      <cc:Work
         rdf:about="">
        <dc:format>image/svg+xml</dc:format>
        <dc:type
           rdf:resource="http://purl.org/dc/dcmitype/StillImage" />
        <dc:title></dc:title>
      </cc:Work>
    </rdf:RDF>
  </metadata>
  <g
     transform="translate(-319.51317,-332.51332)"
     id="layer1">
    <path
       d="m 410.11316,495.24437 c 5.83746,1.93776 10.33998,3.94681 16.03127,3.93714 5.71182,0.01 10.20589,-1.99938 16.03973,-3.93714 5.25033,-1.73119 10.25663,-2.50436 15.06722,-2.50436 12.82501,0.0158 24.03845,5.40859 36.29808,12.03614 8.23189,-11.12887 13.18624,-23.1034 13.18624,-34.29992 0,-31.85596 -42.2177,-52.22184 -65.54821,-59.25772 -3.05646,-0.92418 -5.31557,-1.73118 -8.23913,-2.57926 -0.20296,-16.24268 0.30926,-36.27996 1.33493,-47.30735 4.87099,-1.61158 8.38289,-6.19022 8.38289,-11.58794 0,-6.7544 -5.47745,-12.23064 -12.21977,-12.23064 -2.18542,0 -4.22587,0.58109 -5.99692,1.58138 -2.13348,-0.53156 -5.47625,-1.20929 -8.81781,-1.20929 -14.82439,0 -33.71158,13.70571 -33.71158,32.96136 0,19.26773 11.69063,38.44002 39.3038,53.04454 -0.5388,17.19103 -5.78793,49.81775 -8.75136,56.48638 -2.96343,6.66741 -7.95402,3.43458 -14.25055,-0.63787 -6.29895,-4.08091 -17.41212,-11.11075 -17.41212,-22.9693 0,-11.85009 9.63447,-15.92375 17.04123,-15.92375 -2.22649,-3.70399 -5.92806,-5.55115 -13.70571,-5.55115 -12.21976,0 -31.85475,14.81474 -31.85475,40.36329 0,10.76524 2.7641,20.2801 7.39831,28.60259 11.89116,-6.38955 22.86177,-11.50579 35.35698,-11.52874 4.8118,0 9.8181,0.78767 15.06723,2.51161 m 43.66256,-38.10418 c 0,9.63206 -5.56081,21.11369 -10.74107,24.81767 -5.18993,3.70157 -4.81301,-5.93048 -7.40797,-22.2227 -2.59497,-16.29343 -2.20959,-30.31807 -2.20959,-30.31807 13.33,7.03829 20.35863,18.0983 20.35863,27.7231 m -27.7811,26.67208 c 0,0 -2.73026,-3.08061 -2.35938,-8.26329 0.36967,-5.18993 3.10719,-49.51694 3.10719,-49.51694 0,0 1.83749,43.00899 1.83749,48.93947 0,5.92686 -2.5853,8.84076 -2.5853,8.84076 m 4.0797,-138.51043 c 2.25187,0 4.07366,1.82058 4.07366,4.06278 0,2.25187 -1.82179,4.07366 -4.07366,4.07366 -2.24945,0 -4.0797,-1.82179 -4.0797,-4.07366 0,-2.2422 1.83025,-4.06278 4.0797,-4.06278 m -26.3036,46.65861 c -14.80386,-14.44506 -11.10954,-29.62826 -4.81059,-35.92721 5.83746,-5.83746 14.52237,-9.11378 19.30638,-5.44241 0.30323,4.37568 2.89699,8.11349 6.59493,10.01018 -0.16913,11.16994 -1.26969,30.99822 -2.23616,44.64594 -5.73477,-2.55388 -11.78123,-6.39922 -18.85456,-13.2865 m 40.15308,131.15562 c -5.43396,1.7638 -10.7,4.1993 -17.76971,4.20655 -7.07333,-0.008 -12.34541,-2.44275 -17.78058,-4.20655 -3.56988,-1.17547 -6.91144,-1.68045 -10.15394,-1.68045 -6.38231,-0.0326 -12.52904,2.00905 -18.87752,5.04013 13.60544,10.5055 30.37606,17.41936 45.54355,21.03757 16.93855,-2.84745 33.57507,-10.79181 47.38347,-21.35651 -6.11653,-2.8547 -12.05306,-4.75381 -18.19979,-4.72119 -3.24974,0 -6.58526,0.50498 -10.14548,1.68045 m 0,-11.48405 c -5.43396,1.77226 -10.7,4.20051 -17.76971,4.21622 -7.07333,-0.0157 -12.34541,-2.44396 -17.78058,-4.21622 -4.13043,-1.36151 -7.99509,-1.94018 -11.71478,-1.94018 -8.98815,-0.0326 -17.48702,3.48532 -26.7494,8.31403 1.51132,1.58743 3.09028,3.10961 4.73811,4.57743 7.49133,-3.81392 15.09984,-6.66137 23.57213,-6.70124 3.82117,0 7.78489,0.60404 11.89359,1.9571 5.83504,1.92931 10.33636,3.94681 16.04093,3.92989 5.70216,0.0169 10.19381,-2.00058 16.02403,-3.92989 4.10627,-1.36151 8.07,-1.9571 11.89116,-1.9571 8.24518,0.0398 15.67127,2.73752 22.96809,6.39922 1.71427,-1.45212 3.36814,-2.94047 4.97248,-4.4687 -9.12828,-4.72844 -17.51239,-8.15336 -26.37006,-8.1292 -3.73056,0.009 -7.57347,0.57988 -11.71599,1.94864 m 13.32516,-13.34087 c -4.22346,0.007 -8.59793,0.6717 -13.32516,2.23375 -5.43638,1.7638 -10.70242,4.1993 -17.77212,4.20776 -7.07333,-0.009 -12.34541,-2.44396 -17.77213,-4.20776 -4.74414,-1.5536 -9.11982,-2.23375 -13.33603,-2.23375 -10.77369,-0.0169 -20.83462,4.49287 -32.45034,10.72537 1.10056,1.62125 2.29294,3.1833 3.5264,4.71153 9.97031,-5.29382 19.59511,-9.56682 30.53552,-9.59219 4.3189,-0.008 8.79485,0.68136 13.45564,2.21684 5.83746,1.93897 10.33878,3.94922 16.04094,3.93956 5.70094,0.01 10.19622,-2.00059 16.03006,-3.93956 4.662,-1.53548 9.14761,-2.22409 13.45564,-2.22409 10.90779,0.0326 20.51809,4.28991 30.45337,9.55595 1.38568,-1.46903 2.7037,-2.96464 3.97098,-4.47595 -11.7752,-6.33278 -21.92793,-10.93437 -32.81277,-10.91746"
       id="path3038"
       style="fill:#0f80cc;fill-opacity:1;fill-rule:nonzero;stroke:none" />
  </g>
</svg>
