<?xml version="1.0" encoding="UTF-8" standalone="no"?>
<!-- Created with Inkscape (http://www.inkscape.org/) -->

<svg
   xmlns:dc="http://purl.org/dc/elements/1.1/"
   xmlns:cc="http://creativecommons.org/ns#"
   xmlns:rdf="http://www.w3.org/1999/02/22-rdf-syntax-ns#"
   xmlns:svg="http://www.w3.org/2000/svg"
   xmlns="http://www.w3.org/2000/svg"
   version="1.1"
   width="220"
   height="220.00035"
   id="svg4159">
  <defs
     id="defs4161" />
  <metadata
     id="metadata4164">
    <rdf:RDF>
      <cc:Work
         rdf:about="">
        <dc:format>image/svg+xml</dc:format>
        <dc:type
           rdf:resource="http://purl.org/dc/dcmitype/StillImage" />
        <dc:title></dc:title>
      </cc:Work>
    </rdf:RDF>
  </metadata>
  <g
     transform="translate(-299.39304,-360.02236)"
     id="layer1">
    <path
       d="m 404.21073,466.3325 22.23342,0 0,-19.78397 -22.23342,0 0,19.78397 z m 33.34982,0 20.78951,0 -0.0565,-19.78397 -20.73298,0 0,19.78397 z m 20.79483,1.88389 -20.79483,0 0,19.78398 20.85169,0 -0.0565,-19.78398 z m -31.91122,0 -22.23343,0 0,19.78398 22.23343,0 0,-19.78398 z m -22.9871,-23.55172 22.9871,0 0,-14.88479 -38.81365,0 -3.20312,-3.20312 c 0,0 13.36864,0.89971 42.01677,1.21312 l 0,-25.3301 c 0,0 12.43534,1.13052 14.31951,1.31863 1.88419,0.18842 -0.94209,2.07261 -3.20312,3.0147 l 0,21.08186 c 2.89066,0 5.90505,0.0314 9.04378,0.0314 l 2.07261,1.88419 -11.11639,0 0,14.88478 20.72734,0 c 0.75367,-1.31925 3.95491,-4.33333 4.70858,-5.46414 0.75368,-1.13051 2.26102,-0.18842 3.58025,0.94209 1.31863,1.13052 4.33364,4.52205 5.27543,5.46415 0.94209,0.94177 0.37684,2.44912 -1.50735,2.82595 l 0,66.13408 c -3.9568,-2.07261 -8.102,-3.9568 -11.87008,-4.89859 l -0.0565,-19.78398 -20.85701,0 0,13.75428 -11.1164,0 0,-13.75428 -22.23343,0 0,11.68167 c -4.3333,-4.89859 -5.65222,-4.52175 -11.49322,-4.52175 l 0.0972,-30.57975 c -12.5597,4.54374 -36.86384,15.85796 -37.02525,16.8255 -0.18842,1.13051 -1.13052,3.20312 -2.2607,1.69577 -1.13052,-1.50735 -8.66727,-9.60936 -8.66727,-9.60936 0,0 7.82567,-1.25738 16.01527,-2.80995 l 0,-30.53955 -11.49322,0 -3.20312,-3.20312 c 0,0 6.55665,0.2354 14.69634,0.40133 l 0,-37.33079 c 0,0 11.49325,1.13051 13.0006,1.50735 1.50735,0.37684 1.13052,1.88419 -1.13051,2.26103 l 0,33.72099 2.26102,0 c 3.20312,0 4.89919,-2.63754 6.78308,-2.63754 1.88419,0 2.63786,1.13051 4.33363,2.07228 1.69577,0.94209 1.13019,3.20312 -1.13084,3.20312 l -12.24689,0 0,28.14475 c 6.7457,-1.40561 14.89011,-3.13622 20.06942,-4.24006 l 0.0909,-29.18009 10.55082,7.91326 z m 48.67235,-18.3991 4.02558,0 1.75322,1.50263 9.41939,0 2.01324,-1.62761 2.51351,0 -2.01295,1.25172 -2.13822,2.13856 -10.92201,0 -4.65176,-3.2653 z m 4.02558,-12.04938 0,-2.77323 7.53203,-8.54321 c 2.1684,1.48663 4.04661,3.11896 5.64504,4.82038 l -13.17708,6.49606 z m 0,3.99636 0,-2.62656 15.57374,-4.99342 c 0.77503,1.052 1.45241,2.11406 2.0343,3.17016 l -17.60804,4.44982 z m 0,4.91333 0,-3.23736 19.34777,-2.2249 c 0.66859,1.95735 0.99423,3.81674 0.99423,5.46226 l -20.342,0 z m -9.65584,-10.41925 c 0.6601,-1.72341 1.23821,-2.65073 1.23821,-2.65073 l 4.01617,3.51527 -0.0314,2.03396 -5.22833,-2.8985 z m -1.51836,5.78885 c 0.20098,-1.296 0.46791,-2.45854 0.75493,-3.47696 l 5.98074,1.47942 -0.0407,3.05364 -6.6964,-1.0561 z m 6.64742,4.88067 -7.03084,0.12562 c 0,-1.09627 0.0535,-2.13509 0.14773,-3.11298 l 6.92157,0.0784 -0.0377,2.90793 z m 9.54341,125.23164 c 4.00578,2.49308 7.06382,4.44321 9.71835,5.98104 -5.27197,3.84028 -10.9167,7.19948 -16.87009,10.01383 -4.76667,-1.61977 -9.33646,-3.5429 -13.69931,-5.68145 7.41616,-2.58009 14.4106,-6.06144 20.85105,-10.31342 z m -61.61986,-19.13614 c 3.29828,-6.44611 11.28347,-17.35431 28.96469,-17.35431 18.91161,0 47.06669,9.55158 61.61892,24.33648 -1.75104,2.12569 -3.58403,4.18071 -5.49428,6.16067 -8.36297,-7.74653 -26.45244,-19.94569 -57.44326,-19.94569 -11.32428,0 -18.65565,7.6231 -20.92768,12.97829 -2.39637,-2.10967 -4.63761,-4.18353 -6.71839,-6.17544 z m 10.82373,9.69163 c 2.47645,-4.24475 9.31982,-10.27699 23.03985,-10.27699 13.23265,0 33.42329,7.85581 47.66682,17.24505 -2.0811,1.96111 -4.24289,3.83746 -6.4791,5.6243 -10.21699,-7.27267 -22.88001,-13.44871 -41.37614,-13.44871 -9.22436,0 -14.19484,2.94499 -16.81921,5.66606 -2.09427,-1.59654 -4.10627,-3.20626 -6.03222,-4.80971 z m -22.65392,-21.66846 c 3.66851,-1.6807 7.25319,-4.50761 7.37785,-6.52557 0.25752,-4.12763 -5.96157,-5.63468 -8.03418,1.90177 -2.82657,-6.21752 2.07261,-10.17431 7.34803,-10.17431 5.27573,0 9.23253,5.087 9.23253,9.23222 0,2.52637 -4.82855,8.69113 -8.60037,13.12178 -2.84577,-2.85798 -5.29426,-5.43367 -7.32386,-7.55589 z m 96.64034,5.41043 10.55584,7.44003 c 4.51766,-7.54082 9.14429,-17.38226 0.30147,-22.10999 -8.84531,-4.72931 -16.28285,5.52537 -12.96572,8.64089 0,0 0.29205,-4.9212 4.51765,-4.9212 4.22402,0 3.90278,2.85643 2.81277,4.61847 -2.61116,4.22402 -5.22297,6.3318 -5.22297,6.3318 z m -76.92198,51.65409 c -9.43759,-8.21225 -21.02691,-18.76023 -26.7313,-24.10851 -8.0841,-7.57914 -21.20181,-21.68543 -34.42663,-21.68543 -8.54605,0 -14.40743,2.9007 -18.54762,6.55949 -1.26399,-1.57802 -2.48306,-3.19403 -3.65565,-4.8452 7.70633,-11.08343 16.82015,-13.18995 23.07816,-13.18995 7.48651,0 15.46386,4.76418 26.25712,15.07321 8.54886,8.16574 30.20886,28.66194 46.34286,41.70743 -3.40912,0.33538 -6.86661,0.50717 -10.36366,0.50717 -0.65256,0 -1.30386,0 -1.95328,-0.0314 z m -76.08322,-34.94981 c 1.19176,-0.82685 2.56095,-1.63015 4.13203,-2.38319 11.76738,-5.63842 25.86676,4.18071 34.3274,11.66784 7.15773,6.33369 17.51637,16.84495 26.54225,24.8785 -25.74114,-3.20091 -48.57813,-15.75872 -65.00167,-34.16315 z M 316.90185,518.8238 c 5.51283,-10.58977 14.48061,-23.5109 28.50558,-23.5109 17.50473,0 33.4528,24.01774 42.78833,32.47868 8.69773,7.88314 34.70174,34.42349 60.39262,39.19111 -6.51457,2.63631 -13.35543,4.63448 -20.44532,5.91794 -21.4543,-14.52019 -39.98969,-35.05188 -48.40857,-43.55238 -10.20978,-10.30903 -17.69692,-19.35313 -34.91023,-19.35313 -12.25351,0 -19.28278,5.86548 -24.38609,14.99877 -1.24578,-2.01232 -2.42591,-4.07018 -3.53632,-6.17009 z m -12.06383,-48.80143 c 0,-57.74471 46.81047,-104.55485 104.55518,-104.55485 57.74471,0 104.55486,46.81014 104.55486,104.55485 0,15.26946 -3.27314,29.77427 -9.1559,42.85116 -0.54485,-3.88175 -2.67838,-7.30532 -7.26952,-9.79778 3.85882,-10.28327 5.96911,-21.42166 5.96911,-33.05338 0,-51.96998 -42.12887,-94.09854 -94.09854,-94.09854 -51.97,0 -94.09919,42.12856 -94.09919,94.09854 0,11.26463 1.97935,22.06668 5.60922,32.07737 -2.76001,3.28947 -5.08572,6.96552 -7.03241,10.49837 -5.80519,-13.00496 -9.0328,-27.41335 -9.0328,-42.57574 z"
       id="path31426"
       style="fill:#00a650;fill-opacity:1;fill-rule:evenodd;stroke:#00a650;stroke-width:0.88996488;stroke-linecap:butt;stroke-linejoin:miter;stroke-miterlimit:3.86360002;stroke-opacity:1;stroke-dasharray:none" />
  </g>
</svg>
