<?xml version="1.0" encoding="UTF-8" standalone="no"?>
<!-- Created with Inkscape (http://www.inkscape.org/) -->

<svg
   xmlns:dc="http://purl.org/dc/elements/1.1/"
   xmlns:cc="http://creativecommons.org/ns#"
   xmlns:rdf="http://www.w3.org/1999/02/22-rdf-syntax-ns#"
   xmlns:svg="http://www.w3.org/2000/svg"
   xmlns="http://www.w3.org/2000/svg"
   version="1.1"
   width="220"
   height="220.00035"
   id="svg4159">
  <defs
     id="defs4161" />
  <metadata
     id="metadata4164">
    <rdf:RDF>
      <cc:Work
         rdf:about="">
        <dc:format>image/svg+xml</dc:format>
        <dc:type
           rdf:resource="http://purl.org/dc/dcmitype/StillImage" />
        <dc:title></dc:title>
      </cc:Work>
    </rdf:RDF>
  </metadata>
  <g
     transform="translate(-299.39304,-360.02236)"
     id="layer1">
    <g
       transform="matrix(7.0000117,0,0,7.0000117,-1826.3618,-3450.1425)"
       id="g4722"
       style="fill:#3b9596;fill-opacity:1">
      <path
         d="m 319.39299,545.02264 c 0.43625,0 0.86875,0.0187 1.29625,0.055 l 0,6.04875 13.70375,8.92625 c -10e-4,0.4575 -0.0225,0.91 -0.0637,1.3575 -3.2575,-1.7425 -13.63125,-7.29125 -14.19125,-7.5875 -0.45375,-0.24 -0.66125,-0.6 -0.7475,-0.905 -0.0875,0.305 -0.295,0.665 -0.74875,0.905 -0.55875,0.29625 -10.92375,5.84 -14.18625,7.585 -0.0412,-0.4475 -0.0625,-0.90125 -0.0625,-1.35875 l 13.6975,-8.9225 0,-6.0475 c 0.42875,-0.0375 0.86375,-0.0562 1.3025,-0.0562"
         id="path4492"
         style="fill:#3b9596;fill-opacity:1;fill-rule:nonzero;stroke:none" />
      <path
         d="m 334.15299,562.70514 c -0.0662,0.37125 -0.14625,0.73625 -0.24,1.09625 -3.4375,-1.15 -13.28,-4.44625 -13.73125,-4.6075 -0.425,-0.1525 -0.66125,-0.49375 -0.79125,-0.785 -0.13,0.29125 -0.36625,0.6325 -0.7925,0.785 -0.45,0.16125 -10.285,3.45375 -13.72625,4.60625 -0.0925,-0.36 -0.17375,-0.72625 -0.24,-1.09625 l 14.75875,-6.3425 14.7625,6.34375 z"
         id="path4494"
         style="fill:#3b9596;fill-opacity:1;fill-rule:nonzero;stroke:none" />
      <path
         d="m 333.56549,564.94889 c -0.1125,0.32125 -0.235,0.63875 -0.3675,0.95 l -13.055,-2.4475 c -0.515,-0.0975 -0.6575,-0.23875 -0.7525,-0.46625 -0.095,0.2275 -0.23875,0.36875 -0.75375,0.46625 l -13.05,2.4475 c -0.1325,-0.3125 -0.255,-0.63 -0.3675,-0.95125 l 14.17125,-3.66375 14.175,3.665 z"
         id="path4496"
         style="fill:#3b9596;fill-opacity:1;fill-rule:nonzero;stroke:none" />
      <path
         d="m 332.69174,566.96764 c -0.16375,0.31125 -0.3375,0.6175 -0.52125,0.91625 -2.745,-0.19625 -11.28875,-0.80875 -11.91,-0.85875 -0.47625,-0.0375 -0.7275,-0.14 -0.87,-0.3725 -0.14375,0.2325 -0.395,0.335 -0.87,0.3725 -0.6225,0.05 -9.155,0.66125 -11.90625,0.8575 -0.18375,-0.2975 -0.3575,-0.60375 -0.52125,-0.91625 l 13.2975,-1.855 13.30125,1.85625 z"
         id="path4498"
         style="fill:#3b9596;fill-opacity:1;fill-rule:nonzero;stroke:none" />
      <path
         d="m 331.50424,568.87389 c -2.72875,3.7275 -7.1375,6.14875 -12.11125,6.14875 -4.975,0 -9.38375,-2.42125 -12.1125,-6.14875 l 24.22375,0 z"
         id="path4500"
         style="fill:#3b9596;fill-opacity:1;fill-rule:nonzero;stroke:none" />
      <path
         d="m 304.54299,557.89389 c 0.935,-6.58375 6.14625,-11.79125 12.73125,-12.7225 0.0112,1.365 -0.0525,2.92125 -1.84,4.29625 -1.63,1.2525 -8.3125,6.42875 -10.89125,8.42625"
         id="path4502"
         style="fill:#3b9596;fill-opacity:1;fill-rule:nonzero;stroke:none" />
      <path
         d="m 321.50549,545.17014 c 6.59,0.93 11.80375,6.14 12.7375,12.72875 -2.575,-1.995 -9.26625,-7.1775 -10.8975,-8.43125 -1.7875,-1.375 -1.85,-2.93125 -1.84,-4.2975"
         id="path4504"
         style="fill:#3b9596;fill-opacity:1;fill-rule:nonzero;stroke:none" />
    </g>
  </g>
</svg>
