<?xml version="1.0" encoding="UTF-8" standalone="no"?>
<!-- Created with Inkscape (http://www.inkscape.org/) -->

<svg
   xmlns:dc="http://purl.org/dc/elements/1.1/"
   xmlns:cc="http://creativecommons.org/ns#"
   xmlns:rdf="http://www.w3.org/1999/02/22-rdf-syntax-ns#"
   xmlns:svg="http://www.w3.org/2000/svg"
   xmlns="http://www.w3.org/2000/svg"
   version="1.1"
   width="220"
   height="220"
   id="svg14885">
  <defs
     id="defs14887">
    <clipPath
       id="clipPath9545">
      <path
         d="m 151.914,453.543 30.709,0 0,26.746 -30.709,0 0,-26.746 z"
         id="path9547" />
    </clipPath>
    <clipPath
       id="clipPath9553">
      <path
         d="m 151.914,480.288 30.709,0 0,-26.746 -30.709,0 0,26.746 z"
         id="path9555" />
    </clipPath>
    <clipPath
       id="clipPath9561">
      <path
         d="m 151.914,480.288 30.709,0 0,-26.746 -30.709,0 0,26.746 z"
         id="path9563" />
    </clipPath>
    <clipPath
       id="clipPath9569">
      <path
         d="m 135.072,588.967 176.272,0 0,-249.299 -176.272,0 0,249.299 z"
         id="path9571" />
    </clipPath>
  </defs>
  <metadata
     id="metadata14890">
    <rdf:RDF>
      <cc:Work
         rdf:about="">
        <dc:format>image/svg+xml</dc:format>
        <dc:type
           rdf:resource="http://purl.org/dc/dcmitype/StillImage" />
        <dc:title></dc:title>
      </cc:Work>
    </rdf:RDF>
  </metadata>
  <g
     transform="translate(0,-832.36218)"
     id="layer1">
    <g
       transform="matrix(6.846561,0,0,-6.846561,-1035.3395,4139.1276)"
       id="g9541">
      <g
         clip-path="url(#clipPath9545)"
         id="g9543">
        <g
           id="g9549">
          <g
             clip-path="url(#clipPath9553)"
             id="g9551">
            <g
               id="g9557">
              <g
                 clip-path="url(#clipPath9561)"
                 id="g9559">
                <g
                   id="g9565">
                  <g
                     clip-path="url(#clipPath9569)"
                     id="g9567">
                    <g
                       transform="translate(169.558,475.444)"
                       id="g9573">
                      <path
                         d="m 0,0 c 0,0 -1.65,0.019 -2.491,-1.276 -0.698,-1.076 -4.011,-6.928 -4.011,-6.928 l 4.558,0 1.944,3.464 1.945,-3.464 4.557,0 c 0,0 -3.312,5.852 -4.01,6.928 C 1.651,0.019 0,0 0,0"
                         id="path9575"
                         style="fill:#ee2742;fill-opacity:1;fill-rule:nonzero;stroke:none" />
                    </g>
                    <g
                       transform="translate(162.995,458.366)"
                       id="g9577">
                      <path
                         d="m 0,0 c 0,0 1.651,-0.02 2.492,1.275 0.698,1.076 4.01,6.928 4.01,6.928 l -4.557,0 L 0,4.739 l -1.944,3.464 -4.558,0 c 0,0 3.313,-5.852 4.011,-6.928 C -1.65,-0.02 0,0 0,0"
                         id="path9579"
                         style="fill:#ee2742;fill-opacity:1;fill-rule:nonzero;stroke:none" />
                    </g>
                    <g
                       transform="translate(176.121,458.366)"
                       id="g9581">
                      <path
                         d="m 0,0 c 0,0 1.65,-0.02 2.491,1.275 0.698,1.076 4.011,6.928 4.011,6.928 l -4.558,0 L 0,4.739 l -1.945,3.464 -4.557,0 c 0,0 3.312,-5.852 4.01,-6.928 C -1.651,-0.02 0,0 0,0"
                         id="path9583"
                         style="fill:#ee2742;fill-opacity:1;fill-rule:nonzero;stroke:none" />
                    </g>
                    <g
                       transform="translate(151.98,467.859)"
                       id="g9585">
                      <path
                         d="m 0,0 c 0,0 -0.066,-6.333 0,-6.961 0.141,-1.334 0.522,-3.216 2.575,-4.988 2.742,-2.367 5.531,-2.097 5.531,-2.097 l 20.355,0 0,4.288 -20.155,0 c 0,0 -1.322,-0.159 -2.638,0.955 -0.79,0.668 -1.033,1.64 -1.101,1.837 -0.002,0.005 0,6.661 0,6.661 0,0 -0.002,5.379 0,5.384 0.068,0.197 0.311,1.169 1.101,1.837 1.316,1.114 2.638,0.956 2.638,0.956 l 20.155,0 0,4.287 -20.355,0 c 0,0 -2.789,0.27 -5.531,-2.097 C 0.522,8.291 0.141,6.408 0,5.074 -0.066,4.447 0,0 0,0"
                         id="path9587"
                         style="fill:#ee2742;fill-opacity:1;fill-rule:nonzero;stroke:none" />
                    </g>
                  </g>
                </g>
              </g>
            </g>
          </g>
        </g>
      </g>
    </g>
  </g>
</svg>
