<?xml version="1.0" encoding="UTF-8"?>
<svg xmlns="http://www.w3.org/2000/svg" xmlns:xlink="http://www.w3.org/1999/xlink" width="247pt" height="257pt" viewBox="0 0 247 257" version="1.1">
<defs>
<clipPath id="clip1">
  <path d="M 25 80 L 32 80 L 32 87 L 25 87 Z M 25 80 "/>
</clipPath>
<clipPath id="clip2">
  <path d="M -6360.25 4994.015625 L -933.109375 7520.304688 L 2643.832031 -146.519531 L -2783.308594 -2672.804688 "/>
</clipPath>
<clipPath id="clip3">
  <path d="M 32 66 L 40 66 L 40 73 L 32 73 Z M 32 66 "/>
</clipPath>
<clipPath id="clip4">
  <path d="M -6967.78125 4023.84375 L -1951.390625 7289.355469 L 2672.21875 202.789062 L -2344.175781 -3062.722656 "/>
</clipPath>
<clipPath id="clip5">
  <path d="M 45 50 L 52 50 L 52 58 L 45 58 Z M 45 50 "/>
</clipPath>
<clipPath id="clip6">
  <path d="M 121.410156 56.359375 L -50.1875 233.78125 L -235.378906 55.078125 L -63.78125 -122.347656 Z M 121.410156 56.359375 "/>
</clipPath>
<clipPath id="clip7">
  <path d="M 57 17 L 74 17 L 74 40 L 57 40 Z M 57 17 "/>
</clipPath>
<clipPath id="clip8">
  <path d="M 137.050781 19.679688 L -74.78125 146.507812 L -207.160156 -74.097656 L 4.671875 -200.925781 Z M 137.050781 19.679688 "/>
</clipPath>
<clipPath id="clip9">
  <path d="M 115 0 L 122 0 L 122 25 L 115 25 Z M 115 0 "/>
</clipPath>
<clipPath id="clip10">
  <path d="M 237.902344 16.496094 L -8.457031 33.9375 L -26.664062 -222.625 L 219.695312 -240.066406 Z M 237.902344 16.496094 "/>
</clipPath>
<clipPath id="clip11">
  <path d="M 221 74 L 245 74 L 245 89 L 221 89 Z M 221 74 "/>
</clipPath>
<clipPath id="clip12">
  <path d="M 252.800781 327.078125 L 152.332031 101.722656 L 387.554688 -2.910156 L 488.027344 222.449219 Z M 252.800781 327.078125 "/>
</clipPath>
<clipPath id="clip13">
  <path d="M 223 81 L 246.976562 81 L 246.976562 102 L 223 102 Z M 223 81 "/>
</clipPath>
</defs>
<g id="surface1">
<path style=" stroke:none;fill-rule:nonzero;fill:rgb(90.196078%,0%,7.058824%);fill-opacity:1;" d="M 111.296875 138.765625 L 111.296875 152.058594 L 117.804688 152.058594 L 117.804688 136.011719 L 134.441406 136.011719 L 134.441406 152.058594 L 140.960938 152.058594 L 140.960938 138.765625 L 151.800781 138.765625 L 151.800781 152.058594 L 158.320312 152.058594 L 158.320312 138.765625 L 166.851562 138.765625 L 161.570312 130.667969 L 154.125 130.667969 L 154.125 127.203125 L 159.304688 127.203125 L 153.363281 118.097656 L 145.726562 118.097656 L 145.726562 114.621094 L 151.097656 114.621094 L 142.980469 102.195312 L 109.265625 102.195312 L 101.148438 114.621094 L 106.519531 114.621094 L 106.519531 118.097656 L 98.886719 118.097656 L 92.941406 127.203125 L 98.128906 127.203125 L 98.128906 130.667969 L 90.675781 130.667969 L 85.398438 138.765625 L 93.925781 138.765625 L 93.925781 152.058594 L 100.445312 152.058594 L 100.445312 138.765625 Z M 111.296875 138.765625 "/>
<path style=" stroke:none;fill-rule:nonzero;fill:rgb(13.72549%,9.411765%,8.235294%);fill-opacity:1;" d="M 17.371094 97.976562 L 1.265625 95.863281 L 0 99.78125 L 23.839844 102.304688 L 25.136719 98.335938 L 10.914062 90.4375 L 10.933594 90.390625 L 27.097656 92.296875 L 28.363281 88.398438 L 7.613281 76.363281 L 6.367188 80.210938 L 20.789062 88.117188 L 20.769531 88.167969 L 4.40625 86.230469 L 3.207031 89.898438 L 17.390625 97.925781 Z M 17.371094 97.976562 "/>
<g clip-path="url(#clip1)" clip-rule="nonzero">
<g clip-path="url(#clip2)" clip-rule="nonzero">
<path style=" stroke:none;fill-rule:nonzero;fill:rgb(13.72549%,9.411765%,8.235294%);fill-opacity:1;" d="M 29.671875 86.261719 L 25.09375 84.132812 L 26.835938 80.398438 L 31.410156 82.53125 Z M 29.671875 86.261719 "/>
</g>
</g>
<path style=" stroke:none;fill-rule:nonzero;fill:rgb(13.72549%,9.411765%,8.235294%);fill-opacity:1;" d="M 17.410156 68.164062 L 33.804688 78 L 35.929688 74.464844 L 19.542969 64.628906 L 22.441406 59.816406 L 18.71875 57.585938 L 10.804688 70.746094 L 14.515625 72.976562 Z M 17.410156 68.164062 "/>
<g clip-path="url(#clip3)" clip-rule="nonzero">
<g clip-path="url(#clip4)" clip-rule="nonzero">
<path style=" stroke:none;fill-rule:nonzero;fill:rgb(13.72549%,9.411765%,8.235294%);fill-opacity:1;" d="M 37.046875 72.488281 L 32.800781 69.726562 L 35.058594 66.265625 L 39.304688 69.03125 Z M 37.046875 72.488281 "/>
</g>
</g>
<path style=" stroke:none;fill-rule:evenodd;fill:rgb(13.72549%,9.411765%,8.235294%);fill-opacity:1;" d="M 33.011719 64.144531 C 37.46875 67.824219 41.914062 66.417969 44.527344 63.191406 C 47.738281 59.234375 46.933594 55.105469 43.59375 52.402344 C 39.460938 49.054688 35.96875 51.636719 34.773438 52.429688 C 30.636719 55.132812 29.894531 55.675781 28.496094 54.542969 C 26.957031 53.304688 27.390625 51.6875 28.214844 50.664062 C 29.453125 49.136719 31.019531 48.351562 33.304688 50.019531 L 35.816406 46.925781 C 31.605469 43.507812 27.679688 44.964844 25.214844 48.011719 C 23.074219 50.644531 22.582031 54.902344 26.3125 57.917969 C 29.734375 60.679688 32.550781 59.34375 35.011719 57.765625 C 37.46875 56.199219 39.570312 54.28125 41.542969 55.878906 C 43.402344 57.382812 42.417969 59.425781 41.511719 60.550781 C 40.125 62.257812 37.949219 63.011719 35.527344 61.042969 Z M 33.011719 64.144531 "/>
<g clip-path="url(#clip5)" clip-rule="nonzero">
<g clip-path="url(#clip6)" clip-rule="evenodd">
<path style=" stroke:none;fill-rule:evenodd;fill:rgb(13.72549%,9.411765%,8.235294%);fill-opacity:1;" d="M 51.945312 54.089844 L 49.078125 57.050781 L 45.433594 53.535156 L 48.296875 50.570312 Z M 51.945312 54.089844 "/>
</g>
</g>
<path style=" stroke:none;fill-rule:evenodd;fill:rgb(13.72549%,9.411765%,8.235294%);fill-opacity:1;" d="M 56.21875 49.878906 L 62.675781 45.015625 C 67.25 41.570312 66.4375 35.863281 62.34375 30.429688 C 57.65625 24.21875 52.445312 23.375 48.5625 26.296875 L 42.09375 31.160156 Z M 48 32.144531 L 50.351562 30.378906 C 53.621094 27.917969 56.5 29.535156 59.34375 33.3125 C 62.464844 37.449219 61.75 40.292969 59.839844 41.730469 L 56.902344 43.941406 Z M 48 32.144531 "/>
<g clip-path="url(#clip7)" clip-rule="nonzero">
<g clip-path="url(#clip8)" clip-rule="evenodd">
<path style=" stroke:none;fill-rule:evenodd;fill:rgb(13.72549%,9.411765%,8.235294%);fill-opacity:1;" d="M 73.574219 37.640625 L 70.039062 39.757812 L 57.972656 19.65625 L 61.511719 17.535156 Z M 73.574219 37.640625 "/>
</g>
</g>
<path style=" stroke:none;fill-rule:evenodd;fill:rgb(13.72549%,9.411765%,8.235294%);fill-opacity:1;" d="M 70.207031 30.328125 C 72.601562 35.582031 77.207031 36.265625 80.980469 34.507812 C 85.597656 32.355469 86.695312 28.296875 84.875 24.398438 C 82.621094 19.585938 78.355469 20.382812 76.9375 20.570312 C 72.027344 21.183594 71.125 21.355469 70.359375 19.71875 C 69.523438 17.929688 70.621094 16.664062 71.808594 16.109375 C 73.597656 15.277344 75.359375 15.257812 76.664062 17.757812 L 80.285156 16.070312 C 77.992188 11.167969 73.828125 10.757812 70.277344 12.402344 C 67.210938 13.839844 64.898438 17.449219 66.917969 21.789062 C 68.78125 25.777344 71.898438 25.804688 74.816406 25.464844 C 77.703125 25.132812 80.425781 24.328125 81.503906 26.621094 C 82.519531 28.800781 80.738281 30.207031 79.421875 30.808594 C 77.429688 31.746094 75.148438 31.464844 73.828125 28.640625 Z M 70.207031 30.328125 "/>
<path style=" stroke:none;fill-rule:evenodd;fill:rgb(13.72549%,9.411765%,8.235294%);fill-opacity:1;" d="M 85.96875 11.296875 L 91.875 29.464844 L 95.796875 28.1875 L 89.894531 10.023438 L 95.242188 8.285156 L 93.894531 4.164062 L 79.269531 8.917969 L 80.617188 13.035156 Z M 85.96875 11.296875 "/>
<path style=" stroke:none;fill-rule:evenodd;fill:rgb(13.72549%,9.411765%,8.235294%);fill-opacity:1;" d="M 100.976562 26.558594 L 105.050781 25.917969 L 103.621094 16.875 L 107.695312 16.230469 C 109.75 15.898438 110.671875 16.855469 111.335938 19.234375 C 111.839844 21.054688 112.140625 23.304688 112.867188 24.679688 L 116.949219 24.039062 C 116.015625 22.851562 115.613281 20.128906 115.300781 18.683594 C 114.796875 16.371094 113.84375 14.03125 111.738281 13.699219 L 111.730469 13.628906 C 113.621094 12.273438 114.175781 10.082031 113.742188 7.359375 C 113.1875 3.863281 110.625 1.3125 107.304688 1.835938 L 97.304688 3.421875 Z M 102.011719 6.726562 L 106.480469 6.023438 C 108.300781 5.730469 109.4375 6.546875 109.789062 8.785156 C 110.160156 11.117188 109.324219 12.253906 107.515625 12.535156 L 103.050781 13.238281 Z M 102.011719 6.726562 "/>
<g clip-path="url(#clip9)" clip-rule="nonzero">
<g clip-path="url(#clip10)" clip-rule="evenodd">
<path style=" stroke:none;fill-rule:evenodd;fill:rgb(13.72549%,9.411765%,8.235294%);fill-opacity:1;" d="M 121.535156 23.886719 L 117.421875 24.179688 L 115.761719 0.808594 L 119.875 0.515625 Z M 121.535156 23.886719 "/>
</g>
</g>
<path style=" stroke:none;fill-rule:evenodd;fill:rgb(13.72549%,9.411765%,8.235294%);fill-opacity:1;" d="M 139.832031 8.714844 C 139.519531 3.289062 136.160156 0.144531 132.039062 0.00390625 C 126.234375 -0.195312 122.621094 5.097656 122.382812 12.050781 C 122.148438 18.804688 125.367188 24.339844 131.183594 24.539062 C 135.78125 24.703125 139.140625 21.074219 139.761719 15.246094 L 135.769531 15.105469 C 135.347656 18.179688 133.847656 20.300781 131.332031 20.210938 C 127.621094 20.078125 126.375 16.089844 126.503906 12.191406 C 126.65625 8.09375 128.183594 4.207031 131.886719 4.335938 C 133.929688 4.40625 135.660156 6.234375 135.839844 8.574219 Z M 139.832031 8.714844 "/>
<path style=" stroke:none;fill-rule:evenodd;fill:rgb(13.72549%,9.411765%,8.235294%);fill-opacity:1;" d="M 147.617188 6.6875 L 143.96875 25.433594 L 148.019531 26.21875 L 151.671875 7.46875 L 157.195312 8.546875 L 158.019531 4.285156 L 142.921875 1.363281 L 142.097656 5.613281 Z M 147.617188 6.6875 "/>
<path style=" stroke:none;fill-rule:evenodd;fill:rgb(13.72549%,9.411765%,8.235294%);fill-opacity:1;" d="M 179.253906 20.320312 C 180.820312 15.117188 178.738281 11.015625 174.90625 9.46875 C 169.527344 7.300781 164.324219 11.039062 161.710938 17.488281 C 159.175781 23.757812 160.3125 30.054688 165.703125 32.238281 C 169.96875 33.953125 174.375 31.695312 176.949219 26.4375 L 173.246094 24.941406 C 171.800781 27.683594 169.667969 29.164062 167.332031 28.21875 C 163.894531 26.832031 164.074219 22.652344 165.542969 19.035156 C 167.082031 15.226562 169.847656 12.101562 173.289062 13.488281 C 175.1875 14.253906 176.175781 16.5625 175.550781 18.824219 Z M 179.253906 20.320312 "/>
<path style=" stroke:none;fill-rule:evenodd;fill:rgb(13.72549%,9.411765%,8.235294%);fill-opacity:1;" d="M 179.464844 24.792969 C 175.871094 30.519531 175.902344 36.917969 180.832031 39.992188 C 185.75 43.066406 191.523438 40.285156 195.113281 34.558594 C 198.804688 28.660156 198.777344 22.25 193.847656 19.175781 C 188.929688 16.101562 183.15625 18.882812 179.464844 24.792969 M 182.964844 26.972656 C 185.136719 23.496094 188.414062 20.894531 191.554688 22.851562 C 194.703125 24.8125 193.785156 28.890625 191.613281 32.367188 C 189.542969 35.683594 186.273438 38.285156 183.125 36.324219 C 179.988281 34.367188 180.890625 30.289062 182.964844 26.972656 "/>
<path style=" stroke:none;fill-rule:evenodd;fill:rgb(13.72549%,9.411765%,8.235294%);fill-opacity:1;" d="M 216.851562 37.941406 L 213.78125 35.179688 L 204.027344 46.011719 C 201.691406 48.601562 199.914062 49.164062 197.71875 47.195312 C 195.246094 44.964844 196.542969 42.734375 198.261719 40.828125 L 208.019531 30.007812 L 204.953125 27.242188 L 195.195312 38.074219 C 190.929688 42.804688 191.070312 47.035156 194.824219 50.410156 C 198.554688 53.765625 202.847656 53.476562 207.085938 48.773438 Z M 216.851562 37.941406 "/>
<path style=" stroke:none;fill-rule:evenodd;fill:rgb(13.72549%,9.411765%,8.235294%);fill-opacity:1;" d="M 220.421875 41.300781 L 202.1875 56.046875 L 204.621094 59.050781 L 216.820312 49.175781 L 216.851562 49.214844 L 209.558594 65.152344 L 212.164062 68.355469 L 230.390625 53.605469 L 227.957031 50.601562 L 215.722656 60.5 L 215.695312 60.457031 L 222.996094 44.484375 Z M 220.421875 41.300781 "/>
<path style=" stroke:none;fill-rule:evenodd;fill:rgb(13.72549%,9.411765%,8.235294%);fill-opacity:1;" d="M 234.734375 75.53125 C 239.121094 72.3125 239.925781 67.78125 237.804688 64.257812 C 234.816406 59.285156 228.40625 59.144531 222.433594 62.730469 C 216.628906 66.207031 213.742188 71.921875 216.742188 76.894531 C 219.105469 80.835938 223.984375 81.679688 229.210938 79.027344 L 227.152344 75.609375 C 224.34375 76.925781 221.75 76.824219 220.453125 74.664062 C 218.539062 71.492188 221.207031 68.277344 224.554688 66.257812 C 228.078125 64.144531 232.179688 63.3125 234.082031 66.488281 C 235.136719 68.234375 234.542969 70.6875 232.671875 72.113281 Z M 234.734375 75.53125 "/>
<g clip-path="url(#clip11)" clip-rule="nonzero">
<g clip-path="url(#clip12)" clip-rule="evenodd">
<path style=" stroke:none;fill-rule:evenodd;fill:rgb(13.72549%,9.411765%,8.235294%);fill-opacity:1;" d="M 222.890625 88.121094 L 221.210938 84.347656 L 242.644531 74.8125 L 244.328125 78.585938 Z M 222.890625 88.121094 "/>
</g>
</g>
<g clip-path="url(#clip13)" clip-rule="nonzero">
<path style=" stroke:none;fill-rule:evenodd;fill:rgb(13.72549%,9.411765%,8.235294%);fill-opacity:1;" d="M 245.628906 81.609375 L 223.449219 89.234375 L 227.773438 101.773438 L 231.867188 100.355469 L 228.890625 91.714844 L 246.976562 85.507812 Z M 245.628906 81.609375 "/>
</g>
<path style=" stroke:none;fill-rule:nonzero;fill:rgb(0%,40.784314%,71.764706%);fill-opacity:1;" d="M 125.863281 84.269531 C 101.117188 84.269531 81.050781 104.3125 81.050781 129.03125 C 81.050781 153.746094 101.117188 173.789062 125.863281 173.789062 C 150.605469 173.789062 170.671875 153.746094 170.671875 129.03125 C 170.671875 104.3125 150.605469 84.269531 125.863281 84.269531 M 53.109375 62.027344 C 54.042969 61.023438 54.988281 60.027344 55.957031 59.0625 C 69.796875 71.117188 76.144531 90.4375 70.933594 109.046875 L 80.003906 111.992188 C 86.695312 94.015625 103.683594 81.046875 123.808594 80.210938 L 123.808594 70.675781 C 104.476562 69.871094 88.03125 57.867188 80.839844 40.988281 C 82.058594 40.363281 83.292969 39.761719 84.542969 39.1875 C 91.320312 55.304688 107.265625 66.609375 125.863281 66.609375 C 144.460938 66.609375 160.402344 55.304688 167.183594 39.1875 C 168.429688 39.761719 169.667969 40.363281 170.882812 40.988281 C 163.691406 57.867188 147.246094 69.871094 127.914062 70.675781 L 127.914062 80.210938 C 148.039062 81.046875 165.019531 94.015625 171.71875 111.992188 L 180.792969 109.046875 C 175.582031 90.4375 181.929688 71.117188 195.757812 59.0625 C 196.734375 60.027344 197.679688 61.023438 198.613281 62.027344 C 185.378906 73.449219 179.542969 92.085938 185.289062 109.738281 C 191.039062 127.402344 206.730469 139.058594 224.152344 140.523438 C 224.003906 141.890625 223.8125 143.246094 223.601562 144.59375 C 205.304688 142.976562 188.796875 131.070312 182.058594 112.945312 L 172.984375 115.886719 C 174.152344 120.066406 174.777344 124.480469 174.777344 129.03125 C 174.777344 144.542969 167.542969 158.367188 156.25 167.320312 L 161.859375 175.035156 C 177.976562 164.335938 198.34375 164.394531 214.09375 173.832031 C 213.472656 175.046875 212.828125 176.25 212.152344 177.445312 C 197.1875 168.394531 177.632812 168.617188 162.59375 179.527344 C 147.546875 190.449219 141.300781 208.953125 145.292969 225.972656 C 143.957031 226.234375 142.597656 226.476562 141.242188 226.6875 C 137.136719 208.804688 143.375 189.445312 158.542969 177.445312 L 152.929688 169.742188 C 145.175781 174.886719 135.871094 177.890625 125.863281 177.890625 C 115.855469 177.890625 106.539062 174.886719 98.792969 169.742188 L 93.183594 177.445312 C 108.351562 189.445312 114.585938 208.804688 110.484375 226.6875 C 109.125 226.476562 107.765625 226.234375 106.429688 225.972656 C 110.421875 208.953125 104.175781 190.449219 89.128906 179.527344 C 74.089844 168.617188 54.539062 168.394531 39.570312 177.445312 C 38.894531 176.25 38.253906 175.046875 37.628906 173.832031 C 53.378906 164.394531 73.75 164.335938 89.863281 175.035156 L 95.476562 167.320312 C 84.179688 158.367188 76.949219 144.542969 76.949219 129.03125 C 76.949219 124.480469 77.570312 120.066406 78.738281 115.886719 L 69.664062 112.945312 C 62.925781 131.070312 46.417969 142.976562 28.125 144.59375 C 27.914062 143.246094 27.722656 141.890625 27.570312 140.523438 C 44.992188 139.058594 60.683594 127.402344 66.425781 109.738281 C 72.167969 92.085938 66.335938 73.449219 53.109375 62.027344 "/>
<path style=" stroke:none;fill-rule:evenodd;fill:rgb(13.72549%,9.411765%,8.235294%);fill-opacity:1;" d="M 135.023438 237.972656 L 140.183594 235.648438 L 140.375 236.5625 L 157.546875 232.917969 C 159.207031 232.566406 160.421875 231.75 160.421875 231.75 L 162.042969 232.714844 L 140.527344 237.277344 L 144.347656 255.222656 L 162.042969 251.464844 L 164.386719 250.410156 L 165.953125 251.464844 L 139.863281 257 C 139.863281 257 136.210938 240.402344 135.992188 239.347656 C 135.769531 238.292969 135.136719 238.300781 135.136719 238.300781 Z M 157.929688 243.246094 L 159.347656 249.90625 L 160.90625 249.574219 L 159.757812 244.191406 L 159.488281 242.894531 C 159.328125 242.171875 157.929688 243.246094 157.929688 243.246094 M 153.8125 243.617188 L 157.625 241.820312 L 157.789062 242.574219 C 157.789062 242.574219 159.578125 241.539062 161.449219 241.597656 C 162.957031 241.65625 163.320312 242.925781 163.632812 244.402344 L 164.707031 249.476562 L 156.15625 251.292969 L 154.699219 244.453125 C 154.527344 243.628906 153.863281 243.839844 153.863281 243.839844 Z M 147.265625 245.515625 L 148.683594 252.167969 L 150.242188 251.835938 L 149.097656 246.460938 L 148.824219 245.164062 C 148.664062 244.441406 147.265625 245.515625 147.265625 245.515625 M 143.152344 245.878906 L 146.964844 244.089844 L 147.125 244.832031 C 147.125 244.832031 148.914062 243.796875 150.777344 243.867188 C 152.304688 243.917969 152.417969 245.234375 152.726562 246.710938 L 153.8125 251.785156 L 145.496094 253.554688 L 144.039062 246.710938 C 143.867188 245.886719 143.203125 246.109375 143.203125 246.109375 Z M 147.890625 238.957031 L 148.554688 242.089844 L 157.246094 240.242188 L 156.671875 237.527344 C 156.441406 236.433594 156.167969 236.28125 154.878906 236.554688 C 153.59375 236.835938 150.746094 237.207031 149.507812 237.859375 C 148.261719 238.523438 147.890625 238.957031 147.890625 238.957031 M 142.5 239.46875 L 147.476562 237.027344 L 147.71875 238.160156 C 147.71875 238.160156 149.359375 236.984375 151.167969 236.59375 C 152.988281 236.210938 156.320312 235.539062 157.878906 235.21875 C 159.425781 234.886719 161.046875 235.257812 161.359375 236.726562 L 162.042969 239.941406 L 144.078125 243.746094 L 143.355469 240.3125 C 143.171875 239.476562 142.507812 239.699219 142.507812 239.699219 Z M 142.5 239.46875 "/>
<path style=" stroke:none;fill-rule:nonzero;fill:rgb(13.72549%,9.411765%,8.235294%);fill-opacity:1;" d="M 224.9375 200.707031 L 226.699219 195.339844 L 227.652344 195.875 C 227.652344 195.875 228.558594 192.589844 229.363281 190.992188 C 230.167969 189.394531 233.144531 184.339844 234.414062 182.046875 C 235.679688 179.757812 236.988281 178.3125 238.808594 179.316406 L 242.921875 181.585938 L 230.953125 203.15625 L 226.296875 200.585938 C 225.492188 200.144531 225.21875 200.777344 225.21875 200.777344 Z M 237.691406 184.320312 L 230.429688 197.410156 L 232.691406 198.667969 L 239.957031 185.574219 Z M 229.886719 197.109375 L 237.148438 184.019531 L 236.234375 183.503906 C 235.207031 182.941406 234.65625 183.183594 233.890625 184.339844 C 233.117188 185.503906 230.964844 189.382812 230.058594 191.171875 C 229.152344 192.960938 228.386719 196.277344 228.386719 196.277344 Z M 226.417969 177.980469 L 218.941406 191.433594 C 218.660156 194.507812 217.554688 196.496094 217.554688 196.496094 L 217.234375 196.476562 C 217.234375 196.476562 217.164062 194.488281 216.1875 192.941406 C 215.210938 191.402344 214.71875 192.507812 214.71875 192.507812 L 216.902344 185.636719 C 216.902344 185.636719 217.273438 186.046875 217.695312 186.75 C 217.867188 185.617188 218.277344 183.949219 219.265625 182.070312 C 221.09375 178.542969 222.765625 175.085938 224.714844 174.714844 C 226.679688 174.34375 227.390625 174.402344 228.558594 173.589844 C 229.714844 172.773438 229.304688 172.09375 229.304688 172.09375 L 229.726562 172.082031 C 229.726562 172.082031 230.058594 173.972656 229.0625 175.75 C 228.488281 176.792969 227.484375 177.527344 226.417969 177.980469 M 218.863281 189.996094 L 225.332031 178.332031 C 224.929688 178.441406 224.527344 178.503906 224.144531 178.523438 C 222.464844 178.632812 221.980469 178.53125 220.671875 180.894531 C 219.355469 183.246094 218.511719 185.074219 218.25 186.75 L 218.128906 187.554688 C 218.449219 188.238281 218.742188 189.070312 218.863281 189.996094 M 230.347656 185.835938 L 233.144531 180.792969 L 230.015625 179.066406 C 229 178.503906 228.449219 178.734375 227.683594 179.898438 C 227.363281 180.382812 226.578125 181.726562 225.710938 183.265625 Z M 221.75 192.609375 L 225.449219 194.65625 L 228.066406 189.945312 L 223.449219 187.382812 C 223.085938 188.035156 222.796875 188.589844 222.605469 188.960938 C 221.699219 190.75 221.75 192.609375 221.75 192.609375 M 218.230469 197.160156 L 220.058594 191.675781 L 221.015625 192.207031 C 221.015625 192.207031 221.214844 190.277344 222.019531 188.679688 C 222.824219 187.082031 226.929688 179.898438 228.207031 177.609375 C 229.472656 175.316406 230.78125 173.871094 232.601562 174.875 L 236.101562 176.8125 L 223.640625 199.28125 L 219.585938 197.039062 C 218.792969 196.597656 218.519531 197.230469 218.519531 197.230469 Z M 227.503906 183.214844 L 228.980469 178.984375 C 228.980469 178.984375 230.328125 180.078125 230.609375 181.976562 C 230.894531 183.878906 230.277344 185.214844 230.277344 185.214844 L 230.007812 185.101562 C 230.007812 185.101562 229.917969 183.835938 228.902344 183.195312 C 228.175781 182.730469 227.855469 183.414062 227.855469 183.414062 Z M 222.03125 191.804688 C 222.03125 191.804688 224.011719 189.734375 225.261719 189.675781 C 226.496094 189.613281 227.128906 190.800781 226.667969 191.632812 C 226.214844 192.457031 225.421875 192.769531 224.34375 192.296875 C 223.277344 191.824219 222.210938 192.15625 222.210938 192.15625 Z M 222.03125 191.804688 "/>
<path style=" stroke:none;fill-rule:nonzero;fill:rgb(13.72549%,9.411765%,8.235294%);fill-opacity:1;" d="M 36.722656 192.800781 L 36.128906 194.75 L 34.257812 191.460938 L 31.652344 192.898438 L 21.957031 175.417969 L 24.554688 173.980469 C 24.070312 173.277344 24.160156 172.855469 22.933594 171.972656 L 23.445312 170.402344 L 25.257812 173.589844 L 25.75 173.316406 C 26.089844 173.097656 26.089844 172.746094 25.859375 172.203125 L 26.101562 172.0625 L 29.5625 176.632812 L 27.558594 177.738281 L 32.699219 186.992188 L 33.050781 186.789062 C 33.425781 186.539062 33.6875 186.269531 33.433594 185.664062 L 33.675781 185.523438 L 37.035156 189.914062 L 35.042969 191.019531 C 35.507812 191.644531 35.796875 191.816406 36.722656 192.800781 M 24.964844 179.175781 L 30.09375 188.429688 L 31.996094 187.382812 L 26.855469 178.128906 Z M 21.050781 189.984375 L 18.609375 191.34375 L 21.34375 196.253906 L 23.789062 194.910156 Z M 16.816406 180.832031 L 19.421875 185.515625 L 21.90625 184.136719 L 21.847656 184.039062 C 21.375 183.175781 20.15625 180.824219 18.980469 180.097656 L 18.648438 179.816406 Z M 13.730469 182.542969 L 16.324219 187.222656 L 18.769531 185.867188 L 16.175781 181.195312 Z M 24.28125 188.199219 L 21.707031 189.625 L 24.433594 194.546875 L 25.214844 194.117188 C 26.5625 193.363281 26.855469 192.910156 26.3125 191.90625 Z M 21.082031 202.777344 L 20.742188 203.035156 C 20.742188 203.035156 18.839844 201.21875 17.492188 197.589844 C 16.4375 194.757812 17.402344 192.40625 17.875 191.511719 L 15.679688 187.503906 C 14.683594 187.433594 12.152344 187.023438 10.289062 184.609375 C 7.925781 181.546875 7.441406 178.984375 7.441406 178.984375 L 7.84375 178.832031 C 7.84375 178.832031 8.78125 180.53125 10.339844 181.496094 C 11.296875 182.089844 12.152344 182.109375 12.671875 182.039062 L 10.832031 178.691406 L 15.8125 175.941406 C 16.195312 175.6875 16.507812 175.679688 16.253906 175.074219 L 16.625 174.875 L 20.1875 178.964844 L 19.371094 179.417969 L 19.84375 179.757812 C 20.8125 180.671875 22.078125 182.78125 22.550781 183.644531 L 22.613281 183.746094 L 24.019531 182.964844 L 21.261719 178 C 20.761719 177.09375 19.976562 175.589844 18.738281 174.625 L 19.222656 172.914062 L 30.515625 193.261719 C 30.910156 193.976562 31.382812 194.566406 32.46875 195.140625 L 31.785156 197.199219 L 26.304688 187.082031 L 24.894531 187.867188 C 24.894531 187.867188 27.46875 192.085938 28.457031 194.445312 C 29.339844 196.558594 28.878906 197.542969 26.945312 198.605469 L 22.984375 200.804688 L 20.859375 196.949219 C 20.570312 197.308594 20.167969 198.035156 20.15625 199.199219 C 20.15625 201.027344 21.082031 202.777344 21.082031 202.777344 "/>
<path style=" stroke:none;fill-rule:nonzero;fill:rgb(13.72549%,9.411765%,8.235294%);fill-opacity:1;" d="M 58.871094 213.859375 L 64.574219 216.851562 C 64.042969 217.433594 63.386719 218.117188 62.625 218.851562 L 68.890625 223.414062 C 69.382812 223.773438 70.742188 223.957031 70.742188 223.957031 L 70.890625 225.773438 L 62.039062 219.394531 C 60.925781 220.398438 59.617188 221.464844 58.167969 222.398438 L 61.589844 226.808594 L 61.46875 227.050781 C 61.46875 227.050781 60.339844 226.417969 60.070312 227.320312 C 59.796875 228.226562 58.792969 231.84375 59.71875 235.429688 C 60.644531 239.003906 60.804688 239.648438 60.804688 239.648438 L 60.402344 239.738281 C 60.402344 239.738281 56.878906 235.648438 55.601562 230.574219 C 54.847656 227.59375 55.210938 225.210938 55.613281 223.804688 C 54.515625 224.316406 53.371094 224.730469 52.164062 224.980469 C 46.621094 226.164062 38.375 224.035156 38.375 224.035156 L 38.503906 223.652344 C 38.503906 223.652344 43.460938 223.484375 49.136719 221.726562 C 52.957031 220.550781 56.066406 217.867188 57.683594 216.25 C 54.324219 213.816406 51.53125 211.789062 51.105469 211.464844 C 49.941406 210.574219 49.214844 210.902344 49.214844 210.902344 L 49.054688 209.023438 C 49.054688 209.023438 51.863281 211.015625 52.898438 211.757812 L 58.25 215.667969 C 58.671875 215.214844 58.902344 214.933594 58.902344 214.933594 Z M 58.871094 213.859375 "/>
<path style=" stroke:none;fill-rule:evenodd;fill:rgb(13.72549%,9.411765%,8.235294%);fill-opacity:1;" d="M 96.390625 235.15625 L 101.652344 234.9375 L 97.808594 252.992188 L 100.234375 253.503906 C 100.234375 253.503906 103.753906 236.957031 103.894531 236.28125 C 104.046875 235.601562 103.242188 235.269531 103.242188 235.269531 L 103.199219 234.945312 L 108.953125 234.785156 L 104.769531 254.46875 L 107.113281 254.960938 C 107.113281 254.960938 110.320312 239.890625 110.472656 239.175781 C 110.632812 238.453125 110.199219 238.402344 110.199219 238.402344 L 110.199219 238.050781 L 115.652344 237.871094 L 111.640625 256.71875 L 93.042969 252.761719 C 93.042969 252.761719 96.378906 237.046875 96.570312 236.183594 C 96.753906 235.320312 96.300781 235.570312 96.300781 235.570312 L 96.402344 235.277344 "/>
<path style=" stroke:none;fill-rule:nonzero;fill:rgb(13.72549%,9.411765%,8.235294%);fill-opacity:1;" d="M 91.140625 232.707031 L 97.578125 232.566406 C 97.578125 232.566406 96.863281 234.824219 95.152344 236.324219 C 94.519531 236.875 93.542969 237.367188 92.496094 237.761719 L 94.460938 238.113281 L 91.371094 252.609375 L 86.875 251.65625 L 89.652344 238.582031 C 88.957031 238.722656 88.375 238.804688 88.03125 238.792969 L 87.921875 238.371094 C 90.796875 236.542969 91.683594 235.390625 91.914062 234.292969 C 92.144531 233.199219 91.179688 233.066406 91.179688 233.066406 Z M 91.140625 232.707031 "/>
<path style=" stroke:none;fill-rule:nonzero;fill:rgb(13.72549%,9.411765%,8.235294%);fill-opacity:1;" d="M 185.648438 233.761719 L 188.625 229.984375 L 189.320312 230.976562 C 189.320312 230.976562 190.066406 229.199219 191.140625 228.496094 C 192.207031 227.792969 193.195312 227.550781 194.109375 228.867188 L 198.273438 234.804688 L 190.808594 240.019531 L 186.835938 234.355469 C 186.273438 233.550781 185.839844 233.890625 185.839844 233.890625 Z M 189.792969 231.710938 L 193.636719 237.195312 L 194.773438 236.402344 L 191.03125 231.070312 C 190.378906 230.144531 189.792969 231.710938 189.792969 231.710938 M 181.644531 227.402344 C 181.644531 227.402344 186.765625 223.855469 187.308594 223.351562 C 187.84375 222.839844 188.316406 221.984375 188.316406 221.984375 L 189.933594 222.398438 C 189.933594 222.398438 185.035156 225.691406 184.390625 226.234375 C 183.75 226.777344 183.144531 227.632812 183.144531 227.632812 Z M 183.507812 230.183594 C 183.507812 230.183594 187.902344 227.070312 188.878906 226.347656 C 189.84375 225.621094 190.164062 224.6875 190.164062 224.6875 L 191.875 225.089844 C 191.875 225.089844 187.941406 227.753906 186.6875 228.628906 C 185.4375 229.5 185.1875 230.34375 185.1875 230.34375 L 183.394531 230.222656 Z M 180.589844 222.71875 L 184.082031 219.375 L 185.15625 220.921875 L 185.507812 220.648438 C 186.023438 220.246094 186.695312 219.242188 186.695312 219.242188 L 188.09375 219.644531 L 182.089844 223.84375 C 181.285156 224.40625 181.054688 225.101562 181.054688 225.101562 L 179.625 225.03125 L 181.808594 223.414062 C 181.757812 223.292969 181.65625 223.101562 181.566406 222.96875 C 181.292969 222.578125 180.691406 222.859375 180.691406 222.859375 Z M 197.335938 214.53125 L 198.261719 215.855469 C 199.269531 215.144531 200.042969 214.589844 200.335938 214.371094 C 201.511719 213.507812 201.824219 212.804688 201.824219 212.804688 L 203.25 213.132812 L 198.625 216.371094 L 199.679688 217.875 L 202.898438 215.605469 C 203.554688 215.144531 204.15625 214.230469 204.15625 214.230469 L 205.425781 214.640625 C 205.425781 214.640625 195.488281 221.675781 194.117188 222.640625 C 192.742188 223.601562 192.347656 224.449219 192.347656 224.449219 L 190.921875 224.117188 L 196.121094 220.417969 L 195.042969 218.871094 L 192.921875 220.359375 C 192.078125 220.941406 191.613281 222.066406 191.613281 222.066406 L 190.125 221.644531 L 194.703125 218.398438 L 193.746094 217.03125 L 191.472656 218.609375 C 190.636719 219.191406 189.734375 220.449219 189.734375 220.449219 L 188.0625 220.238281 L 192.277344 217.253906 C 191.65625 216.972656 190.871094 216.679688 189.976562 216.730469 C 189.070312 216.78125 188.003906 217.042969 188.003906 217.042969 L 187.863281 216.78125 C 187.863281 216.78125 190.066406 215.285156 191.632812 214.851562 C 193.203125 214.421875 194.007812 214.933594 194.109375 215.707031 C 194.117188 215.785156 194.109375 215.886719 194.078125 215.976562 L 196.695312 214.117188 C 196.792969 213.789062 196.894531 213.304688 196.804688 212.882812 C 196.644531 212.148438 195.789062 212.570312 195.789062 212.570312 L 195.578125 212.410156 L 199.429688 208.371094 C 199.429688 208.371094 199.679688 209.355469 199.277344 210.703125 C 199.027344 211.566406 198.464844 212.53125 198.09375 213.113281 C 198.695312 212.691406 199.128906 212.382812 199.300781 212.25 C 200.355469 211.464844 201.140625 210.300781 201.140625 210.300781 L 202.6875 210.8125 Z M 198.886719 222.589844 L 199.792969 223.886719 L 202.164062 222.246094 C 201.472656 221.453125 200.929688 220.851562 200.746094 220.667969 C 200.304688 220.21875 199.742188 220.570312 199.742188 220.570312 L 199.460938 220.367188 L 202.800781 216.742188 C 202.800781 216.742188 203.875 218.390625 205.203125 220.136719 C 205.433594 219.976562 205.585938 219.867188 205.636719 219.824219 C 205.96875 219.566406 206.289062 219.023438 206.480469 218.648438 C 205.996094 218.851562 205.574219 218.550781 205.101562 217.925781 C 204.488281 217.113281 203.59375 216.851562 203.59375 216.851562 L 203.652344 216.5 C 203.652344 216.5 205.546875 216.027344 206.429688 216.460938 C 207.316406 216.902344 207.628906 217.644531 206.984375 218.296875 L 208.433594 218.488281 L 205.515625 220.558594 C 206.007812 221.203125 206.53125 221.84375 207.023438 222.40625 C 207.105469 222.015625 207.113281 221.734375 207.015625 221.484375 C 206.800781 220.921875 206.421875 221.011719 206.421875 221.011719 L 206.308594 220.910156 L 208.59375 218.78125 C 208.59375 218.78125 209.851562 221.152344 208.523438 223.925781 C 209.769531 225.058594 210.484375 225.230469 210.835938 224.636719 C 211.277344 223.886719 211.199219 223.453125 211.199219 223.453125 L 211.769531 223.574219 C 211.769531 223.574219 211.488281 225.5625 210.160156 226.667969 C 209.125 227.53125 207.910156 227.945312 206.570312 227.070312 C 205.554688 228.515625 204.78125 229.410156 204.78125 229.410156 L 204.488281 229.300781 C 204.488281 229.300781 205.152344 227.863281 205.746094 226.375 C 205.644531 226.265625 205.546875 226.164062 205.453125 226.042969 C 204.539062 224.980469 203.441406 223.703125 202.539062 222.667969 L 200.132812 224.367188 L 200.789062 225.300781 C 201.53125 224.355469 202.074219 223.652344 202.074219 223.652344 L 202.347656 223.773438 C 202.347656 223.773438 202.246094 225.070312 201.683594 226.578125 L 203.511719 229.179688 C 204.21875 230.203125 203.703125 231.179688 202.476562 232.042969 C 200.808594 233.207031 199.441406 232.65625 199.441406 232.65625 L 199.570312 232.335938 C 199.570312 232.335938 200.816406 232.394531 200.425781 231.832031 L 199.390625 230.363281 C 198.625 231.351562 197.972656 232.082031 197.972656 232.082031 L 195.507812 230.464844 L 195.617188 230.125 C 195.617188 230.125 196.460938 230.554688 198.042969 228.6875 L 198.140625 228.578125 L 196.824219 226.699219 L 196.671875 226.796875 C 195.214844 227.824219 195.265625 228.417969 195.265625 228.417969 L 193.847656 227.984375 L 196.460938 226.1875 L 195.71875 225.121094 C 194.308594 226.117188 193.355469 226.769531 193.355469 226.769531 L 193.09375 226.636719 C 193.09375 226.636719 194.007812 226.042969 195.578125 223.964844 C 197.15625 221.886719 196.792969 221.382812 196.792969 221.382812 L 196.925781 220.941406 L 200.214844 220.679688 C 200.214844 220.679688 199.921875 221.503906 198.886719 222.589844 "/>
</g>
</svg>
