<?xml version="1.0" encoding="UTF-8" standalone="no"?>
<!-- Created with Inkscape (http://www.inkscape.org/) -->

<svg
   xmlns:dc="http://purl.org/dc/elements/1.1/"
   xmlns:cc="http://creativecommons.org/ns#"
   xmlns:rdf="http://www.w3.org/1999/02/22-rdf-syntax-ns#"
   xmlns:svg="http://www.w3.org/2000/svg"
   xmlns="http://www.w3.org/2000/svg"
   version="1.1"
   width="200"
   height="200"
   id="svg2">
  <defs
     id="defs4" />
  <metadata
     id="metadata7">
    <rdf:RDF>
      <cc:Work
         rdf:about="">
        <dc:format>image/svg+xml</dc:format>
        <dc:type
           rdf:resource="http://purl.org/dc/dcmitype/StillImage" />
        <dc:title></dc:title>
      </cc:Work>
    </rdf:RDF>
  </metadata>
  <g
     transform="translate(0,-852.36218)"
     id="layer1">
    <g
       transform="matrix(2.3672425,0,0,2.3672425,-327.28727,508.83044)"
       id="g3431">
      <path
         d="m 179.225,148.36219 0,17.55 -18.75,0 c 0,0 -2.7,-0.3 -3.75,-3 -1.35,-2.7 -2.85,-9.3 -13.95,-13.8 l -1.35,-0.75 3.6,0"
         id="path2997"
         style="fill:#e34705;fill-opacity:1;fill-rule:evenodd;stroke:none" />
      <path
         d="m 141.425,188.71219 17.55,-0.3 0,18.75 c 0,0 -0.3,2.7 -3,4.05 -2.55,1.05 -9.3,2.7 -13.8,13.65 l -0.75,1.5 0,-3.6"
         id="path2999"
         style="fill:#e34705;fill-opacity:1;fill-rule:evenodd;stroke:none" />
      <path
         d="m 219.575,186.16219 -17.85,-0.15 0.15,-18.6 c 0,0 0.45,-2.7 3,-3.9 2.7,-1.35 9.45,-2.7 13.8,-13.95 l 0.75,-1.2 0,3.6"
         id="path3001"
         style="fill:#e34705;fill-opacity:1;fill-rule:evenodd;stroke:none" />
      <path
         d="m 181.775,226.36219 0,-17.7 18.75,0 c 0,0 2.7,0.3 3.75,3 1.2,2.55 2.85,9.45 14.1,13.8 l 1.2,0.6 -3.6,0"
         id="path3003"
         style="fill:#e34705;fill-opacity:1;fill-rule:evenodd;stroke:none" />
      <path
         d="m 181.775,193.51219 0,12.6 18.75,0 c 0,0 2.55,-0.3 3.75,-3 1.2,-2.55 2.85,-9.45 13.8,-13.95 l 1.5,-0.75 -33,0 c -0.45,2.55 -2.25,4.5 -4.8,5.1"
         id="path3005"
         style="fill:#e34705;fill-opacity:1;fill-rule:evenodd;stroke:none" />
      <path
         d="m 174.425,188.41219 -12.9,0.3 0,18.45 c 0,0 0.45,2.7 3.15,4.05 2.55,1.2 9.3,2.7 13.8,13.8 l 0.75,1.35 0,-32.85 c -2.55,-0.6 -4.35,-2.55 -4.8,-5.1"
         id="path3007"
         style="fill:#e34705;fill-opacity:1;fill-rule:evenodd;stroke:none" />
      <path
         d="m 179.225,181.06219 0,-12.6 -18.75,0 c 0,0 -2.7,0.45 -3.75,2.85 -1.35,2.7 -2.85,9.6 -14.1,13.95 l -1.2,0.75 3.6,0 29.4,0.15 c 0.45,-2.55 2.25,-4.5 4.8,-5.1"
         id="path3009"
         style="fill:#e34705;fill-opacity:1;fill-rule:evenodd;stroke:none" />
      <path
         d="m 186.575,186.16219 12.9,0 0,-18.75 c 0,0 -0.45,-2.7 -3.15,-3.9 -2.7,-1.2 -9.6,-2.7 -13.8,-13.8 l -0.75,-1.35 0,32.7 c 2.55,0.6 4.35,2.55 4.8,5.1"
         id="path3011"
         style="fill:#e34705;fill-opacity:1;fill-rule:evenodd;stroke:none" />
    </g>
  </g>
</svg>
