<?xml version="1.0" encoding="UTF-8"?>
<svg xmlns="http://www.w3.org/2000/svg" xmlns:xlink="http://www.w3.org/1999/xlink" width="252pt" height="252pt" viewBox="0 0 252 252" version="1.1">
<g id="surface1">
<path style=" stroke:none;fill-rule:nonzero;fill:rgb(60%,30.196078%,9.803922%);fill-opacity:1;" d="M 45 9 L 207 9 C 226.882812 9 243 25.117188 243 45 L 243 207 C 243 226.882812 226.882812 243 207 243 L 45 243 C 25.117188 243 9 226.882812 9 207 L 9 45 C 9 25.117188 25.117188 9 45 9 Z M 45 9 "/>
<path style=" stroke:none;fill-rule:nonzero;fill:rgb(100%,100%,100%);fill-opacity:1;" d="M 235.800781 126 C 235.800781 186.640625 186.640625 235.800781 126 235.800781 C 65.359375 235.800781 16.199219 186.640625 16.199219 126 C 16.199219 65.359375 65.359375 16.199219 126 16.199219 C 186.640625 16.199219 235.800781 65.359375 235.800781 126 Z M 235.800781 126 "/>
<path style=" stroke:none;fill-rule:nonzero;fill:rgb(60%,30.196078%,9.803922%);fill-opacity:1;" d="M 216 126 C 216 175.707031 175.707031 216 126 216 C 76.292969 216 36 175.707031 36 126 C 36 76.292969 76.292969 36 126 36 C 175.707031 36 216 76.292969 216 126 Z M 216 126 "/>
<path style=" stroke:none;fill-rule:nonzero;fill:rgb(100%,100%,100%);fill-opacity:1;" d="M 153.539062 87.300781 C 153.539062 102.511719 141.210938 114.839844 126 114.839844 C 110.789062 114.839844 98.460938 102.511719 98.460938 87.300781 C 98.460938 72.089844 110.789062 59.761719 126 59.761719 C 141.210938 59.761719 153.539062 72.089844 153.539062 87.300781 Z M 153.539062 87.300781 "/>
<path style=" stroke:none;fill-rule:nonzero;fill:rgb(100%,100%,100%);fill-opacity:1;" d="M 54 122.039062 L 198 122.039062 L 198 142.199219 L 54 142.199219 Z M 54 122.039062 "/>
<path style=" stroke:none;fill-rule:nonzero;fill:rgb(100%,100%,100%);fill-opacity:1;" d="M 91.800781 140.398438 L 111.601562 140.398438 L 111.601562 216 L 91.800781 216 Z M 91.800781 140.398438 "/>
<path style=" stroke:none;fill-rule:nonzero;fill:rgb(100%,100%,100%);fill-opacity:1;" d="M 140.398438 140.398438 L 160.199219 140.398438 L 160.199219 216 L 140.398438 216 Z M 140.398438 140.398438 "/>
<path style=" stroke:none;fill-rule:nonzero;fill:rgb(60%,30.196078%,9.803922%);fill-opacity:1;" d="M 111.601562 9 L 140.398438 9 L 140.398438 37.800781 L 111.601562 37.800781 Z M 111.601562 9 "/>
<path style=" stroke:none;fill-rule:nonzero;fill:rgb(60%,30.196078%,9.803922%);fill-opacity:1;" d="M 111.601562 207 L 140.398438 207 L 140.398438 243 L 111.601562 243 Z M 111.601562 207 "/>
</g>
</svg>
